<?xml version="1.0" encoding="UTF-8"?>
<svg id="Layer_1" xmlns="http://www.w3.org/2000/svg" version="1.1" xmlns:xlink="http://www.w3.org/1999/xlink" viewBox="0 0 676.2 502.5">
  <!-- Generator: Adobe Illustrator 29.6.1, SVG Export Plug-In . SVG Version: 2.1.1 Build 9)  -->
  <defs>
    <style>
      .st0 {
        fill: #fff;
      }

      .st1 {
        clip-path: url(#clippath-1);
      }

      .st2 {
        clip-path: url(#clippath);
      }
    </style>
    <clipPath id="clippath">
      <path class="st0" d="M355.45,120.83c-7.32,8.44-1.73,15.59,2.94,18.71,1.6,1.25,3.21,2.07,4.3,2.34l-.12-.88c-.76-6.54,6.48-7.55,11.17-4.66,4.54,3.77,5.13,11.87-11.43,22.3-4.57,2.88-9.08,5.65-13.53,8.41l-.27,11.11c2.04,1.54,4.04,3.11,5.94,4.73.44.38.82.76,1.25,1.12,11.65-5.96,23.4-11.55,30.99-18.26,14.05-12.41,18.03-30.52,3.84-43.48-.93-.84-1.89-1.57-2.87-2.25-5.01-3.82-10.69-5.34-15.96-5.34-6.98,0-13.24,2.65-16.25,6.13h-.03Z"/>
    </clipPath>
    <clipPath id="clippath-1">
      <path class="st0" d="M281.07,121.33c-2.07,1.89-3.7,3.89-5.03,5.96-8.92,12.37-4.41,27.8,8.03,38.79.52.46,1.06.91,1.63,1.37,8.59,6.81,21.91,13.03,34.42,19.69,0,0,16.97,9.52,22.55,14.23v-.02c6.6,5.6,10.74,11.76,10.08,18.86-.25,2.72-1.95,6.56-5.51,10.76l-.34,14.13c.37.25.76.53,1.21.84l1.64,1.14c11.84-8.5,21.21-19.22,17.9-36.41-.74-3.88-2.38-7.56-4.75-11.11-3.13-4.47-7.35-8.77-11.9-12.67-6.99-6.01-15.05-11.29-24.14-16.92v.05c-2.28-1.43-4.63-2.89-6.98-4.33-1.22-.75-2.43-1.48-3.68-2.25h.07c-2.67-1.65-5.35-3.31-8.06-5.01-33.85-21.31,3.95-32.99.69-17.52,4.12-1.01,15.42-9.62,6.19-20.28-3.01-3.48-9.3-6.15-16.29-6.15-5.91,0-12.33,1.9-17.73,6.84h0Z"/>
    </clipPath>
  </defs>
  <g>
    <g>
      <path class="st0" d="M401.3,130.2l32.63-24.56,3.04,3.72-3.78,2.7c-.61-.16-1.27-.27-2.04-.17-1.47.18-3.12.84-4.63,1.85-2.24,1.49-3.79,3.46-4.15,5.27-.19.97-.04,1.86.44,2.58.65.98,1.78,1.5,3.22,1.5.26,0,.54-.02.82-.05,1.47-.18,3.12-.84,4.63-1.85,3.14-2.1,4.62-4.96,3.94-7.07l7.94-5.67c.67-.48.83-1.41.35-2.08-.48-.67-1.41-.82-2.08-.35l-2.24,1.6-3.09-3.78,3.33-2.51c.64-.48.79-1.39.32-2.05-.48-.67-1.41-.83-2.08-.35l-38.79,27.59s1.06,1.38,2.2,3.67h.02Z"/>
      <path class="st0" d="M430.67,150.73s94.88,184.26,94.88,185.93l41.69-.62-29.9-56.25c0-.06-65.79-127.27-72.69-140.6l25.06-17.33,1.99,2.78-2.68,1.66c-1.45-.41-3.36-.13-5.35,1.02-1.27.73-2.34,1.69-3,2.7-.85,1.29-1,2.63-.4,3.66.58,1,1.68,1.51,3.05,1.51,1.24,0,2.7-.42,4.16-1.26,2.6-1.51,3.92-3.63,3.62-5.42l6.25-3.88c.7-.43.91-1.35.48-2.05-.43-.7-1.36-.91-2.05-.48l-1.55.96-2.07-2.89,4.93-3.41c.66-.46.84-1.36.4-2.04-.45-.69-1.37-.89-2.06-.44l-42,27.31-51.63-10.34c1.99,4.47,3.85,11.69.59,20.11-.62,1.61-1.23,2.97-1.82,4.26l9.14,16.84-4.94,2.74c-2.17-4.98-4.43-9.9-6.71-14.81-1.79,2.89-3.32,4.41-4.43,5.18,25.57,57.67,51.66,142.44,55.61,170.94l6.78.43c-.12.49-.05-1.13.3-.72.32.37.77.57,1.23.57.37,0,.75-.13,1.06-.39l10.84-9.32c.09-.07.13-.17.2-.26,11.52,3.31,24.99,7.17,25.45,7.29.14.04.28.05.42.05.24,0,.45-.12.66-.22.77,1.49,1.22,2.35,1.22,2.35l7.27,2.18c7.48.02,17.65-2.18,17.65-2.18l-94.27-184.19c-.36-.72-.12-1.61.66-2.02.72-.36,1.61-.06,1.97.65h-.01ZM485.82,239.65c-.18.12-.42.18-.66.18-.54,0-1.07-.3-1.31-.83l-20.96-41.27c-.36-.71-.12-1.61.66-2.03.72-.36,1.61-.06,1.97.66l20.96,41.33c.42.71.12,1.61-.66,1.97h0ZM499.04,265.44c-.24.12-.48.18-.71.18-.54,0-1.07-.24-1.31-.77l-8.34-15.78c-.42-.71-.12-1.61.6-2.03.71-.36,1.61-.12,2.03.66l8.34,15.78c.42.71.12,1.61-.6,1.97h-.01ZM561.03,332.63l-6.67.71-7.96-14.55,5.5-2.9,9.13,16.74ZM550.34,313.04l-5.5,2.9-7.62-13.92,5.52-2.91,7.6,13.93h0ZM541.18,296.25l-5.52,2.91-6.79-12.41,5.54-2.92,6.77,12.41h0ZM532.39,279.85l-5.6,2.98-6.25-12.33,5.6-2.68,6.25,12.03h0ZM524.77,265.2l-5.6,2.62-5.9-11.55,5.42-2.8,6.07,11.73h.01ZM517.32,250.79l-5.42,2.86-5.66-11.14,5.36-2.8,5.72,11.08h0ZM510.23,237.09l-5.36,2.74-5.78-11.38,5.24-2.8,5.9,11.43h0ZM502.97,223.03l-5.24,2.8-5.9-11.61,5.36-2.38,5.78,11.2h0ZM495.82,209.22l-5.36,2.38-5.36-10.54,5-2.86,5.72,11.02h0ZM488.73,195.58l-5,2.8-6.02-11.79,4.94-2.74,6.07,11.73h0ZM481.29,181.17l-4.88,2.8-5.36-10.48,4.76-2.92,5.48,10.6h0ZM474.44,167.88l-4.76,2.92-5.54-10.84,4.65-2.98,5.66,10.9h0ZM460.91,141.77l6.5,12.53-4.59,3.04-6.35-12.5,4.44-3.07h0ZM405.95,177.95l5.18-2.86,8.4,15.37-6.73,4.05c-2.2-5.48-4.47-11.02-6.85-16.56h0ZM413.93,197.31l6.97-4.23,5,9.17.24.36c0,.06.24.54.24.54v.03c-.28.15-8.1,5.21-8.1,5.21-1.37-3.63-2.86-7.33-4.35-11.08h0ZM426.32,229.88l12.57,3.28-8.64,7.74c-1.25-3.51-2.56-7.21-3.93-11.02ZM432.33,246.92l12.21,3.81-8.58,6.85c-1.13-3.34-2.32-6.91-3.63-10.66h0ZM437.99,263.83l11.61,3.34-8.28,7.03c-.89-2.98-2.02-6.43-3.34-10.36h.01ZM442.79,278.79c2.3.66,5.82,1.67,9.83,2.82l-7.13,6.13c-1.37-4.56-2.38-7.9-2.7-8.96h0ZM447.42,294.16c2.29.66,5.57,1.6,9.25,2.65l-6.71,5.77c-.88-2.91-1.73-5.76-2.53-8.43h-.01ZM451.84,308.85c2.23.64,5.21,1.49,8.52,2.45l-6.18,5.32c-.75-2.5-1.54-5.12-2.33-7.77h-.01ZM458.77,331.98c-.64-2.16-1.59-5.32-2.71-9.06,2.3.66,5.86,1.68,9.93,2.85l-7.22,6.21ZM494.42,330.54c-5.7-1.63-26.11-7.49-38.59-11.07l7.99-6.87c.09-.07.13-.17.2-.26,10.03,2.88,21.53,6.18,24.63,7.06,2.22,4.29,4.23,8.17,5.77,11.14ZM486.6,315.44c-7.27-2.08-23.7-6.8-34.94-10.02l8.47-7.29c.09-.07.13-.17.2-.26,7.17,2.06,15.09,4.33,20.16,5.78,2,3.87,4.09,7.91,6.1,11.79h0ZM478.44,299.68c-8.57-2.46-22-6.31-31.37-9l9.02-7.75c.09-.07.13-.17.2-.26,5.3,1.52,11,3.16,15.67,4.5,1.56,3.01,3.86,7.47,6.47,12.51h0ZM466.1,276.22l3.81,6.97h0c-7.95-2.27-18.1-5.18-25.83-7.4l8.91-7.67,10.3,2.92c0,.06,2.8,5.18,2.8,5.18h.01ZM459.97,264.9l.71,1.31.64,1.23c-.78-.21-24.23-6.95-24.23-6.95l10.9-8.76,5.78,1.85,6.19,11.32h.01ZM443.35,234.35l.95,1.73,1.55,2.86.77,1.37,3.57,6.61c.12.24.6,1.13.6,1.13.12.23.91,1.7.94,1.77-.78-.23-20.06-6.23-20.06-6.23l10.66-9.53,1.01.3h0ZM441.38,230.76c-.75-.18-16.25-4.27-16.25-4.27-.04,0-.06-.02-.06-.06l10.24-6.91,6.07,11.24ZM433.88,216.9l-9.89,6.67c-1.43-4.05-2.98-8.16-4.59-12.33l8.4-5.48,3.04,5.54,3.04,5.6ZM430.07,173.01c.36.72.12,1.61-.6,2.03-.24.12-.48.18-.71.18-.54,0-1.07-.3-1.31-.83l-16.62-31.09c-.36-.77-.12-1.67.66-2.03.72-.42,1.61-.12,1.97.6l16.62,31.15h-.01Z"/>
    </g>
    <path class="st0" d="M215.42,144.06l-.6-.36-11.79-7.68c-.71-.48-1.67-.6-2.5-.36-.77.24-1.49.83-1.85,1.67l-87.52,197.57h6.61l1.96-4.62,30.41-4,6.58,6.57c.32.32.73.47,1.15.47s.83-.16,1.15-.48c.63-.64.63-1.67,0-2.3l-4.81-4.81.57-.07c.89-.12,1.52-.93,1.4-1.82-.12-.89-.91-1.52-1.82-1.4l-3.04.4-9.44-9.43,13.31-1.75,3.5,3.5c.32.32.73.47,1.15.47s.83-.16,1.15-.48c.63-.64.63-1.67,0-2.3l-2.11-2.11c.29-.34.45-.78.39-1.26-.12-.89-.92-1.52-1.82-1.4l-1.08.14-8.99-8.98,11.73-1.54,3.22,3.21c.32.32.73.47,1.15.47s.83-.16,1.15-.48c.63-.64.63-1.66,0-2.3l-1.45-1.44.78-.1c.89-.12,1.52-.93,1.4-1.82-.12-.89-.91-1.53-1.82-1.4l-3.25.43-8.18-8.17,12-1.58,3.22,3.21c.32.32.73.47,1.15.47s.83-.16,1.15-.48c.63-.64.63-1.67,0-2.3l-1.45-1.44.78-.1c.89-.12,1.52-.93,1.4-1.82-.12-.89-.92-1.53-1.82-1.4l-3.25.43-8.99-8.98,8.35-1.09,4.94-.66c.6-.12,1.07-.48,1.25-1.01.18-.54.06-1.13-.36-1.49l-3.69-3.87-6.97-7.33,9.83-1.49,4.94-.71c.54-.12,1.01-.48,1.19-1.01.18-.54.06-1.13-.36-1.49l-3.57-3.57-6.49-6.55,9.17-1.49,4.59-.77c.48-.12.89-.42,1.07-.89.24-.42.18-.95-.06-1.37l-3.04-4.7-4.29-6.73,6.85-.71,4.82-.48c.48-.06.95-.36,1.13-.83.24-.42.24-.95,0-1.43l-3.16-5.3-3.81-6.49,6.55-1.01,5.3-.83c.83-.12,1.37-.89,1.25-1.67-.12-.83-.89-1.37-1.73-1.25l-3.69.6-13.16,2.03,6.13-13.52,9.77,3.99,2.26.95c.18.06.36.12.54.12.6,0,1.13-.36,1.37-.89.36-.77,0-1.67-.77-1.97l-2.38-.95-9.59-3.93,4.65-10.3,9.29,2.92,2.2.66c.18.06.3.06.48.06.6,0,1.19-.42,1.43-1.01.24-.83-.24-1.67-1.01-1.91l-1.97-.6-9.23-2.86,5.18-11.37,8.22,3.63,1.97.83c.18.06.42.12.6.12.6,0,1.13-.36,1.37-.89.36-.77,0-1.61-.77-1.97l-2.02-.89-8.16-3.57,10.01-22.21,7.33,4.7,2.2,1.43c1.37.89,3.22.48,4.11-.89s.48-3.22-.89-4.11l-.05-.03ZM152.27,272.71s.03.06.05.08l8.87,8.86-12.32,1.62c-.4-.1-.82-.05-1.19.16l-8.47,1.11,4.55-10.7,8.5-1.13h.01ZM137.92,314.05l9.35,9.33-26.03,3.43,4.81-11.3,11.81-1.55s.04.07.06.1h0ZM143.71,300.2l8.59,8.57-24.78,3.26,4.58-10.76,11.33-1.49c.08.15.15.3.28.42h0ZM156.2,294.82l-22.63,2.98,4.17-9.79,10.28-1.35,8.18,8.17h0ZM165.75,267.28l.54.54-.71.12-20.37,2.68,5.66-12.63,5.36-.77,9.53,10.07h0ZM170.82,251.56l.42.42-.6.06-18.28,2.74,5.24-11.67,4.17-.66,9.05,9.11ZM175.88,236.26l.48.77-.77.12-16.56,2.74,5.96-13.22,4.47-.42,6.43,10.01h0ZM175.46,211.18l5.72,9.65.66,1.13-1.07.12-14.35,1.49,5.3-11.79,3.75-.6h0Z"/>
    <path class="st0" d="M175.05,333.86l-17.35-3.25c-1.61,0-3.8-2.13-3.8-3.8l-6.54,8.09c0-.3,1.72-10.2,1.78-10.5,3.39-12.39,6.73-24.06,10.01-35.2.36-1.25.71-2.5,1.13-3.69.18-.77.42-1.49.66-2.26.06-.3.18-.6.24-.89.06-.18.12-.42.18-.6.36-1.07.66-2.14,1.01-3.22.77-2.56,1.55-5.06,2.26-7.5.36-1.07.66-2.08.95-3.1.12-.24.18-.48.18-.66.42-1.07.71-2.14,1.01-3.28,1.01-2.98,1.91-5.96,2.86-8.81.36-1.07.66-2.14,1.01-3.16.06-.18.12-.3.18-.48.3-1.07.66-2.08,1.01-3.16.89-2.74,1.79-5.42,2.68-8.04l1.07-3.22c.06-.3.18-.6.3-.89.42-1.25.83-2.44,1.19-3.63.89-2.56,1.73-5,2.56-7.44.36-1.01.71-2.08,1.13-3.1.06-.42.24-.83.42-1.25.42-1.25.83-2.5,1.25-3.69.95-2.56,1.85-5.06,2.74-7.5.36-1.07.71-2.14,1.13-3.16.89-2.56,1.85-5.06,2.74-7.5.36-.95.66-1.85,1.01-2.74,1.49-3.99,2.98-7.8,4.35-11.32.36-.95.71-1.91,1.13-2.8,1.43-3.87,2.86-7.39,4.17-10.6.42-.95.77-1.91,1.13-2.8,4.41-10.66,7.62-17.69,9.17-21.08.71-1.55,1.07-2.32,1.13-2.38.6-1.19,1.85-1.85,3.1-1.67l.6.12,14.65,2.2c-10.78,26.26-57.64,143.35-54.43,187.95h0Z"/>
    <path class="st0" d="M175.76,326.75c5.19-51.87,47.72-158.29,56.75-180.36l17.45,2.62c-8.48,17.18-48.47,101.95-50.66,177.8-.13,4.64-24.06,5.16-23.54-.06h0Z"/>
    <path class="st0" d="M213.79,142.53l-46.86-29.43c-.68-.43-1.58-.24-2.03.44-.46.68-.27,1.61.41,2.06l5.63,3.75c-.18.1-.39.14-.52.32l-3.05,4.26-2.33-1.45c-.69-.42-1.61-.22-2.05.48-.43.7-.22,1.62.48,2.05l8.3,5.16c-.27,1.05-.15,2.22.66,3.45.82,1.24,2.13,2.43,3.71,3.33,1.58.91,3.26,1.46,4.74,1.55.14,0,.28,0,.42,0,1.64,0,2.89-.6,3.53-1.71.7-1.2.52-2.72-.5-4.26-.82-1.24-2.13-2.43-3.71-3.34-2.5-1.45-4.97-1.8-6.73-1.23l-3.98-2.47,2.94-4.1c.15-.21.13-.45.16-.68l38.36,25.56c1.1.69,2.47.37,3.13-.67s.34-2.42-.7-3.08h-.01Z"/>
    <path class="st0" d="M283.3,174.22h-.03c-6.1-3.72-10.12-9.01-12.68-13.51-13.39,27.39-49.93,107.96-46.6,164.84.31,5.23,23.72,11.95,23.42,11.05-.05-.13-1.19-3.52-1.75-10.88-1.46-19.25,1.06-65.63,37.65-151.51h-.01Z"/>
    <path class="st0" d="M268.13,155.72c-.92-2.2-1.36-3.73-1.36-3.73l-13.7-2.51c-7.53,15.23-50.54,104.81-50.99,182.66-.02,2.83,19.86,2.78,19.51-.17-7.33-61.45,34.71-152.52,46.54-176.26h0Z"/>
    <g>
      <path class="st0" d="M402.92,344.25h-4.92v8.9h4.92c1.48,0,2.59-.39,3.34-1.17s1.12-1.87,1.12-3.26-.38-2.48-1.13-3.28c-.75-.79-1.86-1.19-3.33-1.19h0Z"/>
      <path class="st0" d="M467.82,356.84h-5.46v7.74h5.1c1.41,0,2.49-.32,3.24-.97.75-.64,1.13-1.55,1.13-2.72,0-2.69-1.34-4.05-4.02-4.06h0Z"/>
      <path class="st0" d="M281.54,344.28h-5.19v9.32h5.1c1.51,0,2.66-.38,3.45-1.13s1.19-1.82,1.19-3.19c0-1.51-.41-2.72-1.22-3.62s-1.92-1.36-3.33-1.38h0Z"/>
      <path class="st0" d="M470.06,350.8c.72-.61,1.09-1.5,1.09-2.69,0-1.37-.39-2.34-1.18-2.95s-2.05-.9-3.79-.9h-3.82v7.48h4.06c1.7-.02,2.91-.33,3.64-.93h0Z"/>
      <polygon class="st0" points="138.33 358.52 145.28 358.52 141.8 347.32 138.33 358.52"/>
      <path class="st0" d="M63.33,319.74v65.37h551.49v-65.37H63.33ZM106.23,349.21c.89.67,2.45,1.37,4.68,2.09,2.23.71,4.07,1.49,5.5,2.32,3.49,2.01,5.24,4.78,5.24,8.32,0,2.83-1.06,5.04-3.2,6.66-2.13,1.61-5.05,2.42-8.76,2.42-2.62,0-4.99-.47-7.11-1.41-2.12-.93-3.72-2.22-4.79-3.86-1.07-1.63-1.61-3.51-1.61-5.65h7.81c0,1.73.45,3.01,1.34,3.83.9.82,2.35,1.23,4.36,1.23,1.29,0,2.3-.28,3.05-.83.75-.56,1.12-1.34,1.12-2.34,0-1.14-.4-2.02-1.21-2.66-.8-.64-2.22-1.29-4.25-1.97s-3.68-1.34-4.97-1.97c-4.19-2.06-6.28-4.88-6.28-8.48,0-1.79.52-3.37,1.56-4.73,1.04-1.37,2.52-2.43,4.43-3.2,1.91-.76,4.05-1.14,6.43-1.14s4.41.41,6.25,1.24,3.27,2.01,4.29,3.54,1.53,3.28,1.53,5.25h-7.77c0-1.32-.4-2.34-1.21-3.06-.8-.72-1.9-1.08-3.27-1.08s-2.49.3-3.3.92c-.8.61-1.21,1.39-1.21,2.34,0,.83.44,1.58,1.33,2.26l.02-.04ZM149.03,370.57l-1.89-6.03h-10.67l-1.86,6.03h-8.32l11.85-32.3h7.32l11.94,32.3h-8.37ZM171.18,370.57h-7.76v-32.3h7.76v32.3ZM206.72,370.57h-7.74l-11.45-20.1v20.1h-7.79v-32.3h7.79l11.43,20.1v-20.1h7.76v32.3h0ZM240.15,344.28h-9.7v26.29h-7.79v-26.29h-9.52v-6.01h27v6.01h0ZM260.04,359.52h-13.33v-5.77h13.33v5.77ZM290.6,356.78c-2.26,1.89-5.35,2.83-9.29,2.83h-4.97v10.96h-7.79v-32.3h12.89c2.47,0,4.66.45,6.56,1.36,1.9.91,3.37,2.21,4.42,3.89,1.04,1.68,1.57,3.58,1.57,5.71,0,3.15-1.13,5.67-3.38,7.55h-.01ZM323.57,344.28h-14.51v6.81h12.25v5.77h-12.25v7.72h14.47v5.99h-22.25v-32.3h22.3v6.01h0ZM355.21,344.28h-9.7v26.29h-7.79v-26.29h-9.52v-6.01h27v6.01h.01ZM383.93,344.28h-14.51v6.81h12.25v5.77h-12.25v7.72h14.47v5.99h-22.25v-32.3h22.3v6.01h0ZM416.25,370.57h-8.34l-5.7-11.43h-4.21v11.43h-7.79v-32.3h12.71c3.83,0,6.83.85,8.99,2.55,2.16,1.7,3.24,4.1,3.24,7.2,0,2.25-.45,4.11-1.36,5.59s-2.33,2.68-4.27,3.59l6.74,13.05v.33h0ZM432.02,349.21c.89.67,2.45,1.37,4.68,2.09,2.23.71,4.07,1.49,5.5,2.32,3.49,2.01,5.24,4.78,5.24,8.32,0,2.83-1.06,5.04-3.2,6.66-2.13,1.61-5.05,2.42-8.76,2.42-2.62,0-4.99-.47-7.11-1.41-2.12-.93-3.72-2.22-4.79-3.86-1.07-1.63-1.61-3.51-1.61-5.65h7.81c0,1.73.45,3.01,1.34,3.83.9.82,2.35,1.23,4.36,1.23,1.29,0,2.3-.28,3.05-.83.75-.56,1.12-1.34,1.12-2.34,0-1.14-.4-2.02-1.21-2.66-.8-.64-2.22-1.29-4.25-1.97s-3.68-1.34-4.97-1.97c-4.19-2.06-6.28-4.88-6.28-8.48,0-1.79.52-3.37,1.56-4.73,1.04-1.37,2.52-2.43,4.43-3.2,1.91-.76,4.05-1.14,6.43-1.14s4.41.41,6.25,1.24,3.27,2.01,4.29,3.54c1.02,1.53,1.53,3.28,1.53,5.25h-7.77c0-1.32-.4-2.34-1.21-3.06-.8-.72-1.9-1.08-3.27-1.08s-2.49.3-3.3.92c-.8.61-1.21,1.39-1.21,2.34,0,.83.44,1.58,1.33,2.26l.02-.04ZM476.6,368.14c-2,1.59-4.97,2.4-8.91,2.43h-13.11v-32.3h11.6c4.16,0,7.32.76,9.48,2.28,2.17,1.52,3.25,3.73,3.25,6.63,0,1.68-.39,3.1-1.16,4.29s-1.9,2.06-3.39,2.62c1.69.44,2.98,1.27,3.88,2.49.9,1.21,1.35,2.69,1.35,4.44,0,3.16-1,5.54-3.01,7.13h.02ZM512.37,359.41c0,2.39-.51,4.47-1.53,6.22s-2.49,3.09-4.39,4.01c-1.91.91-4.16,1.37-6.77,1.37-3.94,0-7.03-1.02-9.3-3.06-2.26-2.04-3.42-4.84-3.46-8.39v-21.3h7.83v21.45c.09,3.53,1.73,5.3,4.92,5.3,1.61,0,2.83-.44,3.66-1.33.83-.88,1.24-2.33,1.24-4.32v-21.1h7.79v21.14h.01ZM546.42,370.57h-8.34l-5.7-11.43h-4.21v11.43h-7.79v-32.3h12.71c3.83,0,6.83.85,8.99,2.55,2.16,1.7,3.24,4.1,3.24,7.2,0,2.25-.45,4.11-1.36,5.59s-2.33,2.68-4.27,3.59l6.74,13.05v.33h0ZM579.6,366.58c-1.2,1.33-2.95,2.41-5.26,3.22s-4.84,1.22-7.59,1.22c-4.23,0-7.61-1.29-10.14-3.88s-3.88-6.19-4.06-10.81l-.02-2.79c0-3.18.56-5.96,1.69-8.33,1.12-2.37,2.73-4.2,4.83-5.48,2.09-1.28,4.52-1.92,7.27-1.92,4.02,0,7.15.92,9.37,2.77,2.23,1.84,3.52,4.59,3.89,8.24h-7.5c-.27-1.8-.84-3.09-1.73-3.86-.89-.77-2.15-1.15-3.77-1.15-1.95,0-3.46.82-4.53,2.48-1.06,1.66-1.6,4.03-1.62,7.1v1.95c0,3.22.55,5.65,1.65,7.27,1.1,1.62,2.84,2.43,5.2,2.43,2.03,0,3.53-.45,4.53-1.35v-5.01h-5.41v-5.35h13.2v13.27-.02Z"/>
      <path class="st0" d="M533.08,344.25h-4.92v8.9h4.92c1.48,0,2.59-.39,3.34-1.17s1.12-1.87,1.12-3.26-.38-2.48-1.13-3.28c-.75-.79-1.86-1.19-3.33-1.19h0Z"/>
    </g>
    <path class="st0" d="M240.53,42.67c.56,6.11,5.55,11.03,11.85,11.3l.5.02h29.16c-.03-.9-.29-2.34-.88-3.27-2.69-4.41-11.91-3.77-17.81-4.95-7.18-1.2-21.53-3.59-21.53-3.59l-1.28-.24v.76-.02Z"/>
    <path class="st0" d="M255.9,69.37c1.39,6.74,6.74,12.06,13.59,13.43.63.13,3.58.76,4.7.73l-.63-1.72c-1.3-3.6-1.39-9.17-.56-12.76l-17.2-.17.11.49h0Z"/>
    <path class="st0" d="M413.25,68.87l-15.81.17c.9,3.9.71,10.15-.93,13.64l-.34.74,2.83-.34c7.78-.67,14-6.34,15.52-13.71l.13-.5h-1.39Z"/>
    <path class="st0" d="M421.98,57.04h-32.68c1.58,3.04,4.8,5.97,6.75,8.89l.31.52h15.02c.89,0,1.82-.23,2.12-.29,4.67-.8,8.4-4.21,9.75-8.61l.07-.5h-1.35,0Z"/>
    <path class="st0" d="M306.78,65.29c-2.5,2.13-7.94,7.69-7.94,7.69l-16.66,19.19-.59.69c-3.51,2.99-7.14,4.9-11.17,4.9h-.15l.08.11h-.08c0,1.92,1.37,3.52,3.2,3.87h122.54c1.81-.36,3.2-1.96,3.2-3.87,0,0-1.33,0-.02,0-3.97,0-7.55-1.78-11.02-4.65l-2.77-3.41s-15.88-17.79-16.76-18.58c-8.53-9.4-18.89-17.65-33.86-17.65-11.71,0-20.58,5.05-27.96,11.74"/>
    <path class="st0" d="M428.21,42.22c-7.04,1.18-14.09,2.35-21.14,3.52-5.9,1.18-15.12.54-17.81,4.95-.59.94-.85,1.86-.88,2.77v.46h2.25l26.91.05h.5c6.17-.28,11.09-5,11.81-10.94h.04l.13-1.15-1.8.34h0Z"/>
    <path class="st0" d="M247.08,57.04l.08.5c1.51,4.9,5.95,8.55,11.37,8.78l2.78.12,12.62-.02.45-.5c1.96-2.91,5.17-5.85,6.75-8.88h-34.04,0Z"/>
    <path class="st0" d="M232,17.92c-.82,1.73-1.31,3.66-1.4,5.7-.29,6.68,3.88,12.53,9.88,14.65v.07l.76.18c1.06.31,2.17.5,3.31.57,9.04,1.52,30.21,4.75,32.45,5.1,4.71,1.15,8.2,5.38,8.2,10.44,0,3.24-1.44,6.14-3.71,8.11l-1.38,1.26c-3.1,3.15-5.02,7.46-5.02,12.21,0,4.19,1.48,8.05,3.96,11.05l.34.35,20.61-24c.87-2.38,1.39-4.92,1.39-7.6,0-9.69-6.17-17.93-14.81-21.02h.02l-1.45-.48h0l-51.85-17.09-.98-.32-.29.83h-.03Z"/>
    <path class="st0" d="M385.29,34.52h0l-1.45.46h.02c-8.64,3.09-14.81,11.33-14.81,21.03,0,3.33.74,6.48,2.04,9.31l19.52,22.74.77-.79c2.48-3,3.96-6.86,3.96-11.05,0-4.75-1.92-9.07-5.02-12.21l-1.38-1.26c-2.27-1.98-3.72-4.88-3.72-8.11,0-5.04,3.5-9.28,8.2-10.44,2.24-.34,23.4-3.58,32.45-5.1,1.14-.07,4.06-.77,4.06-.82,5.99-2.12,10.17-7.97,9.89-14.65-.09-1.91-.53-3.73-1.27-5.37h0l-.45-1.24s-52.82,17.51-52.82,17.51Z"/>
    <path class="st0" d="M325.38,106.94l1.34,56.74,2.93,1.8c.92.57,1.82,1.12,2.7,1.68l2.54,1.57h-.06c3,1.91,5.78,3.77,8.46,5.63l.15-5.32,1.5-62.11h-19.57,0Z"/>
    <path class="st0" d="M327.65,203.07l.65,27.86c.2.21.4.43.62.63l1.39,1.36c3.2,2.9,7.17,5.81,11.29,8.62l.9-33.08c-.73-.77-1.5-1.55-2.38-2.34l-.85-.72c-2.9-2.44-6.53-4.95-11.58-7.96l-.03,5.63h0Z"/>
    <g>
      <path class="st0" d="M355.45,120.83c-7.32,8.44-1.73,15.59,2.94,18.71,1.6,1.25,3.21,2.07,4.3,2.34l-.12-.88c-.76-6.54,6.48-7.55,11.17-4.66,4.54,3.77,5.13,11.87-11.43,22.3-4.57,2.88-9.08,5.65-13.53,8.41l-.27,11.11c2.04,1.54,4.04,3.11,5.94,4.73.44.38.82.76,1.25,1.12,11.65-5.96,23.4-11.55,30.99-18.26,14.05-12.41,18.03-30.52,3.84-43.48-.93-.84-1.89-1.57-2.87-2.25-5.01-3.82-10.69-5.34-15.96-5.34-6.98,0-13.24,2.65-16.25,6.13h-.03Z"/>
      <g class="st2">
        <polygon class="st0" points="403.26 114.7 392.75 114.7 382.23 114.7 371.72 114.7 361.2 114.7 350.68 114.7 348.13 114.7 348.13 120.77 348.13 145.77 348.13 170.77 348.13 184.01 353.08 184.01 363.59 184.01 374.11 184.01 384.62 184.01 395.14 184.01 404.72 184.01 404.72 161.25 404.72 136.24 404.72 114.7 403.26 114.7"/>
      </g>
    </g>
    <path class="st0" d="M301.84,280.3c1.03,14.88,19.94,21.64,19.94,21.64,0,0,1.17.44,1.83.53-.93-.48-1.22-.66-1.64-.92-2.23-1.41-9.34-6.7-10-17.14-.34-5.48,3.44-12.93,11.35-19.25.15-.13.33-.23.47-.36l-.16-6.95c-1.35-.83-2.68-1.68-4.01-2.58l-1.53-1.02c-10.59,8.43-16.81,17.8-16.25,26.04"/>
    <g>
      <path class="st0" d="M281.07,121.33c-2.07,1.89-3.7,3.89-5.03,5.96-8.92,12.37-4.41,27.8,8.03,38.79.52.46,1.06.91,1.63,1.37,8.59,6.81,21.91,13.03,34.42,19.69,0,0,16.97,9.52,22.55,14.23v-.02c6.6,5.6,10.74,11.76,10.08,18.86-.25,2.72-1.95,6.56-5.51,10.76l-.34,14.13c.37.25.76.53,1.21.84l1.64,1.14c11.84-8.5,21.21-19.22,17.9-36.41-.74-3.88-2.38-7.56-4.75-11.11-3.13-4.47-7.35-8.77-11.9-12.67-6.99-6.01-15.05-11.29-24.14-16.92v.05c-2.28-1.43-4.63-2.89-6.98-4.33-1.22-.75-2.43-1.48-3.68-2.25h.07c-2.67-1.65-5.35-3.31-8.06-5.01-33.85-21.31,3.95-32.99.69-17.52,4.12-1.01,15.42-9.62,6.19-20.28-3.01-3.48-9.3-6.15-16.29-6.15-5.91,0-12.33,1.9-17.73,6.84h0Z"/>
      <g class="st1">
        <polygon class="st0" points="358.51 121.09 349.57 117.33 349.57 117.34 342.82 114.5 340.26 114.5 329.74 114.5 319.22 114.5 308.7 114.5 298.18 114.5 287.67 114.5 277.15 114.5 267.12 114.5 267.12 138.37 267.12 163.37 267.12 188.37 267.12 213.37 267.12 227.91 270.86 229.49 279.8 233.25 288.73 237 297.66 240.76 297.66 240.75 393.08 263.77 358.51 121.09"/>
      </g>
    </g>
    <path class="st0" d="M301.72,212.08c-3.41,17.83,6.62,28.79,19.03,37.5.61.43,1.81,1.3,1.81,1.3,1.23.81,2.47,1.61,3.71,2.39,7.63,4.78,15.53,9.01,21.34,13.64.88.71,3.31,3.06,3.76,3.51,5.45,5.55,8.04,11.49,7.76,16.1-.46,7.47-4.19,12.32-7.15,15.03-1.41,1.44-3.64,2.71-3.64,2.71,0,0,6.49-2.34,12.11-7.26,4.27-3.52,8.23-8.51,8.69-15.11.58-8.46-5.93-18.1-17.01-26.7-1.02-.73-9.1-6.37-9.32-6.53-7.3-4.81-13.23-9.03-17.61-13.35h.05c-5.01-4.89-7.9-9.63-7.98-14.6-.07-4.73,1.95-9.13,5.22-13.19l-.31-13.25-3.31-1.85s-2.63-1.38-3.32-1.74c-7.24,6.64-12.31,13.6-13.79,21.38"/>
    <path class="st0" d="M328.81,308.85s.17,5,4.97,5.06c4.8.06,5.14-5.06,5.14-5.06l1-41.8c-3.23-2.24-6.94-4.46-10.81-6.78-.48-.29-.97-.59-1.45-.88l1.16,49.45Z"/>
  </g>
  <g>
    <path class="st0" d="M109.03,423.98c-.09,1.87-.59,3.53-1.52,4.97s-2.23,2.56-3.9,3.35-3.58,1.18-5.74,1.18c-3.54,0-6.34-1.16-8.37-3.46-2.04-2.31-3.06-5.57-3.06-9.78v-1.33c0-2.64.46-4.96,1.38-6.94.92-1.99,2.25-3.52,3.97-4.6,1.73-1.08,3.73-1.62,6-1.62,3.27,0,5.9.86,7.89,2.58,1.99,1.73,3.12,4.1,3.39,7.12h-6.48c-.05-1.64-.46-2.82-1.24-3.54-.78-.71-1.96-1.07-3.56-1.07s-2.8.6-3.56,1.81c-.75,1.21-1.15,3.15-1.18,5.8v1.91c0,2.88.36,4.93,1.08,6.17.72,1.23,1.97,1.85,3.73,1.85,1.5,0,2.64-.35,3.43-1.06s1.21-1.82,1.26-3.35h6.48Z"/>
    <path class="st0" d="M137.28,433.11h-6.46v-11.26h-9.58v11.26h-6.5v-26.97h6.5v10.71h9.58v-10.71h6.46v26.97Z"/>
    <path class="st0" d="M159.34,428.07h-8.91l-1.56,5.04h-6.95l9.89-26.97h6.11l9.97,26.97h-6.99l-1.57-5.04h.01ZM151.98,423.05h5.8l-2.91-9.35-2.89,9.35Z"/>
    <path class="st0" d="M181.02,406.14l6.02,18.77,6-18.77h8.56v26.97h-6.52v-6.3l.63-12.89-6.52,19.19h-4.3l-6.54-19.21.63,12.91v6.3h-6.5v-26.97h8.54Z"/>
    <path class="st0" d="M208.36,433.11v-26.97h9.69c3.47,0,6.11.64,7.92,1.91s2.72,3.12,2.72,5.54c0,1.39-.32,2.58-.97,3.57s-1.59,1.72-2.83,2.18c1.41.37,2.49,1.06,3.24,2.07.75,1.02,1.13,2.25,1.13,3.71,0,2.64-.84,4.63-2.51,5.96-1.68,1.33-4.15,2.01-7.44,2.03h-10.95ZM214.86,417.38h3.39c1.42-.01,2.43-.27,3.04-.78.6-.51.91-1.26.91-2.25,0-1.14-.33-1.96-.98-2.46-.66-.5-1.71-.75-3.17-.75h-3.19v6.24ZM214.86,421.64v6.47h4.26c1.17,0,2.07-.27,2.7-.81s.95-1.29.95-2.27c0-2.25-1.12-3.38-3.35-3.39h-4.56,0Z"/>
    <path class="st0" d="M252.18,421.66h-10.23v6.45h12.08v5h-18.58v-26.97h18.62v5.02h-12.11v5.69h10.23v4.82h0Z"/>
    <path class="st0" d="M269.32,423.57h-3.52v9.54h-6.5v-26.97h10.61c3.2,0,5.7.71,7.5,2.13s2.7,3.42,2.7,6.01c0,1.87-.38,3.43-1.14,4.67-.76,1.23-1.95,2.23-3.56,3l5.63,10.89v.28h-6.96l-4.76-9.54h0ZM265.8,418.57h4.11c1.24,0,2.17-.33,2.79-.98.62-.65.93-1.55.93-2.72s-.32-2.07-.95-2.74c-.63-.66-1.56-.99-2.78-.99h-4.11v7.43h.01Z"/>
    <path class="st0" d="M320.25,420.18c0,2.63-.49,4.96-1.47,6.99-.97,2.02-2.36,3.58-4.16,4.68-1.8,1.09-3.85,1.64-6.14,1.64s-4.34-.53-6.11-1.58c-1.78-1.06-3.16-2.57-4.16-4.53-.99-1.96-1.52-4.22-1.57-6.76v-1.52c0-2.64.48-4.97,1.45-6.99s2.36-3.58,4.17-4.68c1.81-1.1,3.87-1.65,6.18-1.65s4.32.54,6.11,1.63c1.79,1.08,3.18,2.63,4.18,4.64.99,2.01,1.5,4.31,1.51,6.9v1.24h.01ZM313.64,419.05c0-2.68-.45-4.72-1.34-6.11-.89-1.39-2.18-2.09-3.84-2.09-3.26,0-4.98,2.44-5.17,7.34l-.02,1.98c0,2.64.44,4.67,1.31,6.09.88,1.42,2.18,2.13,3.91,2.13s2.91-.7,3.8-2.09c.89-1.4,1.34-3.4,1.35-6.02v-1.24h0Z"/>
    <path class="st0" d="M343.22,422.36h-10.49v10.75h-6.5v-26.97h18.04v5.02h-11.54v6.21h10.49v5h0Z"/>
    <path class="st0" d="M382.16,423.98c-.09,1.87-.59,3.53-1.52,4.97s-2.23,2.56-3.9,3.35c-1.67.79-3.58,1.18-5.74,1.18-3.54,0-6.34-1.16-8.37-3.46-2.04-2.31-3.06-5.57-3.06-9.78v-1.33c0-2.64.46-4.96,1.38-6.94.92-1.99,2.25-3.52,3.97-4.6,1.73-1.08,3.73-1.62,6-1.62,3.27,0,5.9.86,7.89,2.58,1.99,1.73,3.12,4.1,3.39,7.12h-6.48c-.05-1.64-.46-2.82-1.24-3.54-.78-.71-1.96-1.07-3.56-1.07s-2.8.6-3.56,1.81c-.75,1.21-1.15,3.15-1.18,5.8v1.91c0,2.88.36,4.93,1.08,6.17.72,1.23,1.97,1.85,3.73,1.85,1.5,0,2.64-.35,3.43-1.06.79-.7,1.21-1.82,1.26-3.35h6.48Z"/>
    <path class="st0" d="M410.7,420.18c0,2.63-.49,4.96-1.47,6.99-.97,2.02-2.36,3.58-4.16,4.68-1.8,1.09-3.85,1.64-6.14,1.64s-4.34-.53-6.11-1.58c-1.78-1.06-3.16-2.57-4.16-4.53-.99-1.96-1.52-4.22-1.57-6.76v-1.52c0-2.64.48-4.97,1.45-6.99s2.36-3.58,4.17-4.68c1.81-1.1,3.87-1.65,6.18-1.65s4.32.54,6.11,1.63c1.79,1.08,3.18,2.63,4.18,4.64.99,2.01,1.5,4.31,1.51,6.9v1.24h.01ZM404.09,419.05c0-2.68-.45-4.72-1.34-6.11-.89-1.39-2.18-2.09-3.84-2.09-3.26,0-4.98,2.44-5.17,7.34l-.02,1.98c0,2.64.44,4.67,1.31,6.09.88,1.42,2.18,2.13,3.91,2.13s2.91-.7,3.8-2.09c.89-1.4,1.34-3.4,1.35-6.02v-1.24h0Z"/>
    <path class="st0" d="M425.22,406.14l6.02,18.77,6-18.77h8.56v26.97h-6.52v-6.3l.63-12.89-6.52,19.19h-4.3l-6.54-19.21.63,12.91v6.3h-6.5v-26.97h8.54,0Z"/>
    <path class="st0" d="M461.09,406.14l6.02,18.77,6-18.77h8.56v26.97h-6.52v-6.3l.63-12.89-6.52,19.19h-4.3l-6.54-19.21.63,12.91v6.3h-6.5v-26.97h8.54,0Z"/>
    <path class="st0" d="M505.15,421.66h-10.23v6.45h12.08v5h-18.58v-26.97h18.62v5.02h-12.11v5.69h10.23v4.82h-.01Z"/>
    <path class="st0" d="M522.3,423.57h-3.52v9.54h-6.5v-26.97h10.61c3.2,0,5.7.71,7.5,2.13s2.7,3.42,2.7,6.01c0,1.87-.38,3.43-1.14,4.67-.76,1.23-1.95,2.23-3.56,3l5.63,10.89v.28h-6.96l-4.76-9.54h0ZM518.78,418.57h4.11c1.24,0,2.17-.33,2.79-.98.62-.65.93-1.55.93-2.72s-.32-2.07-.95-2.74-1.56-.99-2.78-.99h-4.11v7.43h.01Z"/>
    <path class="st0" d="M561.47,423.98c-.09,1.87-.59,3.53-1.52,4.97s-2.23,2.56-3.9,3.35c-1.67.79-3.58,1.18-5.74,1.18-3.54,0-6.34-1.16-8.37-3.46-2.04-2.31-3.06-5.57-3.06-9.78v-1.33c0-2.64.46-4.96,1.38-6.94.92-1.99,2.25-3.52,3.97-4.6,1.73-1.08,3.73-1.62,6-1.62,3.27,0,5.9.86,7.89,2.58,1.99,1.73,3.12,4.1,3.39,7.12h-6.48c-.05-1.64-.46-2.82-1.24-3.54-.78-.71-1.96-1.07-3.56-1.07s-2.8.6-3.56,1.81c-.75,1.21-1.15,3.15-1.18,5.8v1.91c0,2.88.36,4.93,1.08,6.17.72,1.23,1.97,1.85,3.73,1.85,1.5,0,2.64-.35,3.43-1.06.79-.7,1.21-1.82,1.26-3.35h6.48Z"/>
    <path class="st0" d="M583.9,421.66h-10.23v6.45h12.08v5h-18.58v-26.97h18.62v5.02h-12.11v5.69h10.23v4.82h-.01Z"/>
    <path class="st0" d="M204.11,473.6h-8.91l-1.56,5.04h-6.95l9.89-26.97h6.11l9.97,26.97h-6.99l-1.57-5.04h.01ZM196.75,468.58h5.8l-2.91-9.35-2.89,9.35Z"/>
    <path class="st0" d="M239.78,478.64h-6.47l-9.56-16.79v16.79h-6.5v-26.97h6.5l9.54,16.79v-16.79h6.48v26.97h.01Z"/>
    <path class="st0" d="M246.52,478.64v-26.97h8.69c2.38,0,4.52.54,6.43,1.62,1.9,1.08,3.39,2.6,4.45,4.58,1.07,1.97,1.61,4.18,1.62,6.62v1.24c0,2.47-.52,4.68-1.57,6.64-1.04,1.96-2.51,3.49-4.41,4.6s-4.01,1.66-6.34,1.68h-8.87ZM253.02,456.69v16.95h2.26c1.87,0,3.3-.66,4.3-1.99s1.5-3.3,1.5-5.92v-1.17c0-2.6-.5-4.57-1.5-5.89s-2.46-1.98-4.37-1.98h-2.19,0Z"/>
    <path class="st0" d="M291.33,478.64h-6.48v-26.97h6.48v26.97Z"/>
    <path class="st0" d="M321,478.64h-6.47l-9.56-16.79v16.79h-6.5v-26.97h6.5l9.54,16.79v-16.79h6.48v26.97h0Z"/>
    <path class="st0" d="M327.74,478.64v-26.97h8.69c2.38,0,4.52.54,6.43,1.62,1.9,1.08,3.39,2.6,4.45,4.58,1.07,1.97,1.61,4.18,1.62,6.62v1.24c0,2.47-.52,4.68-1.57,6.64-1.04,1.96-2.51,3.49-4.41,4.6s-4.01,1.66-6.34,1.68h-8.87ZM334.24,456.69v16.95h2.26c1.87,0,3.3-.66,4.3-1.99s1.5-3.3,1.5-5.92v-1.17c0-2.6-.5-4.57-1.5-5.89s-2.46-1.98-4.37-1.98h-2.19Z"/>
    <path class="st0" d="M376.04,451.66v17.65c0,2-.43,3.73-1.28,5.2-.85,1.46-2.07,2.58-3.67,3.34-1.59.77-3.48,1.15-5.65,1.15-3.29,0-5.87-.85-7.76-2.56-1.89-1.7-2.85-4.04-2.89-7v-17.79h6.54v17.91c.07,2.95,1.45,4.43,4.11,4.43,1.35,0,2.36-.37,3.06-1.11.69-.74,1.04-1.95,1.04-3.61v-17.62h6.5Z"/>
    <path class="st0" d="M396.63,471.47c0-.95-.34-1.69-1.01-2.22s-1.86-1.08-3.55-1.65-3.08-1.12-4.15-1.65c-3.5-1.72-5.24-4.08-5.24-7.08,0-1.49.44-2.81,1.31-3.95s2.1-2.03,3.69-2.67,3.38-.96,5.37-.96,3.68.35,5.22,1.04,2.73,1.68,3.58,2.95,1.28,2.74,1.28,4.38h-6.48c0-1.1-.33-1.95-1.01-2.56-.67-.6-1.58-.91-2.73-.91s-2.08.25-2.75.77c-.67.51-1.01,1.16-1.01,1.95,0,.69.37,1.32,1.11,1.88s2.04,1.14,3.91,1.74c1.86.6,3.4,1.24,4.59,1.94,2.91,1.68,4.37,3.99,4.37,6.95,0,2.36-.89,4.21-2.67,5.56-1.78,1.34-4.22,2.02-7.32,2.02-2.18,0-4.16-.39-5.94-1.18-1.77-.78-3.11-1.86-4-3.22-.89-1.36-1.34-2.93-1.34-4.71h6.52c0,1.44.37,2.51,1.12,3.2s1.96,1.03,3.64,1.03c1.08,0,1.92-.23,2.55-.7.62-.46.94-1.11.94-1.95h0Z"/>
    <path class="st0" d="M430.27,456.69h-8.1v21.95h-6.5v-21.95h-7.95v-5.02h22.55v5.02h0Z"/>
    <path class="st0" d="M445.65,469.1h-3.52v9.54h-6.5v-26.97h10.61c3.2,0,5.7.71,7.5,2.13s2.7,3.42,2.7,6.01c0,1.87-.38,3.43-1.14,4.67-.76,1.23-1.95,2.23-3.56,3l5.63,10.89v.28h-6.96l-4.76-9.54h0ZM442.13,464.1h4.11c1.24,0,2.17-.33,2.79-.98.62-.65.93-1.55.93-2.72s-.32-2.07-.95-2.74-1.56-.99-2.78-.99h-4.11v7.43h.01Z"/>
    <path class="st0" d="M472.88,463.37l4.97-11.71h7.02l-8.69,17.28v9.69h-6.6v-9.69l-8.67-17.28h6.98l4.98,11.71h.01Z"/>
  </g>
</svg>