<?xml version="1.0" encoding="UTF-8"?>
<svg id="Layer_1" xmlns="http://www.w3.org/2000/svg" version="1.1" xmlns:xlink="http://www.w3.org/1999/xlink" viewBox="0 0 676.2 502.5">
  <!-- Generator: Adobe Illustrator 29.6.1, SVG Export Plug-In . SVG Version: 2.1.1 Build 9)  -->
  <defs>
    <style>
      .st0 {
        fill: #fff;
      }

      .st1 {
        clip-path: url(#clippath-1);
      }

      .st2 {
        fill: #184b9a;
      }

      .st3 {
        clip-path: url(#clippath);
      }
    </style>
    <clipPath id="clippath">
      <path class="st2" d="M354.41,124.71c-7.44,8.58-1.76,15.85,2.99,19.02,1.62,1.27,3.26,2.11,4.37,2.38l-.12-.9c-.77-6.64,6.58-7.68,11.36-4.73,4.62,3.83,5.22,12.07-11.61,22.67-4.65,2.92-9.23,5.75-13.75,8.55l-.28,11.29c2.08,1.56,4.1,3.16,6.03,4.81.44.38.84.77,1.27,1.14,11.84-6.06,23.79-11.74,31.5-18.56,14.28-12.62,18.33-31.02,3.91-44.19-.94-.86-1.92-1.59-2.91-2.28-5.09-3.89-10.87-5.42-16.22-5.42-7.1,0-13.45,2.7-16.52,6.23h-.03Z"/>
    </clipPath>
    <clipPath id="clippath-1">
      <path class="st2" d="M278.8,125.22c-2.11,1.92-3.76,3.96-5.11,6.06-9.06,12.58-4.48,28.26,8.16,39.43.53.46,1.07.93,1.65,1.39,8.73,6.92,22.27,13.25,34.99,20.01,0,0,17.25,9.67,22.92,14.47v-.02c6.71,5.69,10.91,11.95,10.25,19.17-.26,2.77-1.98,6.67-5.6,10.93l-.34,14.36c.37.26.78.54,1.23.86l1.66,1.16c12.04-8.64,21.55-19.54,18.2-37.01-.75-3.95-2.42-7.69-4.83-11.29-3.18-4.55-7.47-8.92-12.1-12.88-7.11-6.11-15.29-11.48-24.54-17.19v.05c-2.31-1.46-4.7-2.93-7.1-4.4-1.24-.76-2.47-1.51-3.74-2.28h.07c-2.72-1.67-5.44-3.37-8.19-5.09-34.41-21.66,4.02-33.53.7-17.8,4.19-1.02,15.68-9.78,6.29-20.61-3.06-3.53-9.45-6.25-16.55-6.25-6,0-12.53,1.93-18.02,6.95h0Z"/>
    </clipPath>
  </defs>
  <g>
    <g>
      <path class="st2" d="M401.05,134.29l33.15-24.95,3.09,3.78-3.84,2.74c-.62-.16-1.29-.27-2.07-.17-1.5.19-3.17.85-4.71,1.88-2.27,1.51-3.85,3.52-4.22,5.36-.2.98-.04,1.89.45,2.62.66,1,1.81,1.52,3.27,1.52.27,0,.55-.02.84-.05,1.5-.19,3.17-.85,4.71-1.88,3.19-2.13,4.69-5.04,4-7.18l8.06-5.76c.68-.49.84-1.43.35-2.11-.48-.68-1.43-.84-2.11-.35l-2.27,1.62-3.14-3.84,3.38-2.55c.65-.49.8-1.42.32-2.09-.48-.68-1.43-.84-2.11-.36l-39.4,28.03s1.08,1.4,2.24,3.73h0Z"/>
      <path class="st2" d="M430.88,155.15s96.39,187.2,96.39,188.89l42.36-.63-30.38-57.14c0-.06-66.84-129.29-73.85-142.84l25.46-17.6,2.02,2.82-2.72,1.69c-1.47-.41-3.42-.13-5.44,1.04-1.29.74-2.37,1.72-3.05,2.75-.87,1.31-1.01,2.67-.4,3.72.58,1.02,1.71,1.53,3.1,1.53,1.26,0,2.74-.42,4.23-1.28,2.64-1.53,3.98-3.69,3.68-5.51l6.35-3.94c.71-.44.93-1.37.49-2.08s-1.38-.92-2.08-.49l-1.58.98-2.11-2.94,5.01-3.47c.67-.46.85-1.38.41-2.07-.46-.7-1.39-.9-2.09-.44l-42.67,27.74-52.45-10.5c2.02,4.54,3.91,11.88.6,20.43-.63,1.64-1.25,3.02-1.85,4.32l9.29,17.11-5.02,2.78c-2.21-5.06-4.5-10.06-6.82-15.04-1.81,2.94-3.37,4.48-4.5,5.26,25.98,58.59,52.48,144.7,56.5,173.66l6.89.43c-.12.5-.05-1.15.31-.73.33.38.79.57,1.25.57.38,0,.76-.13,1.08-.4l11.01-9.47c.09-.08.14-.17.2-.26,11.7,3.36,25.39,7.29,25.86,7.41.14.04.29.05.43.05.25,0,.46-.12.67-.23.78,1.51,1.24,2.39,1.24,2.39l7.38,2.21c7.6.02,17.93-2.22,17.93-2.22l-95.77-187.13c-.36-.73-.12-1.63.67-2.06.73-.36,1.63-.06,2,.66l-.03.03ZM486.91,245.49c-.18.12-.42.18-.67.18-.54,0-1.09-.3-1.33-.85l-21.3-41.93c-.36-.73-.12-1.63.67-2.06.73-.36,1.63-.06,2,.67l21.3,41.99c.42.73.12,1.63-.67,2h0ZM500.34,271.69c-.24.12-.48.18-.73.18-.54,0-1.09-.24-1.33-.79l-8.47-16.03c-.42-.73-.12-1.63.6-2.06.73-.36,1.63-.12,2.06.67l8.47,16.03c.42.73.12,1.63-.6,2ZM563.33,339.95l-6.77.72-8.09-14.78,5.58-2.95,9.28,17.01ZM552.47,320.04l-5.59,2.95-7.74-14.14,5.61-2.96,7.72,14.15h0ZM543.16,302.99l-5.61,2.96-6.9-12.6,5.63-2.97,6.88,12.61h0ZM534.23,286.33l-5.69,3.03-6.35-12.52,5.69-2.72,6.35,12.22h0ZM526.48,271.44l-5.69,2.66-5.99-11.74,5.51-2.84,6.17,11.92h0ZM518.92,256.8l-5.51,2.9-5.75-11.31,5.45-2.84,5.81,11.25ZM511.72,242.88l-5.45,2.78-5.87-11.56,5.32-2.84,5.99,11.62h.01ZM504.34,228.61l-5.32,2.84-5.99-11.8,5.45-2.42,5.87,11.38h-.01ZM497.08,214.57l-5.45,2.42-5.45-10.71,5.08-2.9,5.81,11.19h.01ZM489.88,200.71l-5.08,2.84-6.11-11.98,5.02-2.78,6.17,11.92h0ZM482.31,186.07l-4.96,2.84-5.45-10.65,4.84-2.96,5.57,10.77ZM475.36,172.58l-4.84,2.96-5.63-11.01,4.72-3.03,5.75,11.07h0ZM461.61,146.05l6.6,12.73-4.66,3.09-6.46-12.7,4.51-3.12h0ZM405.77,182.8l5.26-2.9,8.53,15.61-6.84,4.11c-2.24-5.57-4.54-11.19-6.96-16.82h0ZM413.88,202.47l7.08-4.3,5.08,9.32.24.36c0,.06.24.54.24.54l.02.03c-.3.16-8.24,5.3-8.24,5.3-1.39-3.69-2.9-7.44-4.42-11.25h0ZM426.47,235.56l12.77,3.33-8.77,7.87c-1.27-3.57-2.6-7.32-3.99-11.19h-.01ZM432.58,252.87l12.4,3.87-8.71,6.96c-1.15-3.39-2.36-7.02-3.69-10.83h0ZM438.33,270.05l11.8,3.39-8.41,7.14c-.91-3.03-2.06-6.53-3.39-10.53h0ZM443.2,285.25c2.33.67,5.91,1.7,9.99,2.87l-7.25,6.23c-1.39-4.63-2.42-8.02-2.74-9.1ZM447.9,300.87c2.33.67,5.65,1.62,9.4,2.7l-6.82,5.87c-.89-2.96-1.76-5.85-2.58-8.56h0ZM452.39,315.79c2.27.65,5.29,1.52,8.65,2.48l-6.28,5.4c-.76-2.54-1.56-5.2-2.37-7.89h0ZM459.44,339.29c-.65-2.19-1.61-5.41-2.75-9.2,2.33.67,5.95,1.71,10.08,2.9l-7.33,6.31h0ZM495.65,337.83c-5.79-1.65-26.53-7.61-39.2-11.25l8.12-6.98c.09-.07.14-.17.2-.26,10.19,2.93,21.87,6.28,25.03,7.17,2.26,4.36,4.3,8.3,5.86,11.31h0ZM487.71,322.48c-7.38-2.11-24.08-6.91-35.5-10.18l8.61-7.4c.09-.07.14-.17.2-.26,7.28,2.09,15.33,4.4,20.48,5.88,2.03,3.93,4.16,8.03,6.2,11.98v-.02ZM479.42,306.47c-8.7-2.49-22.36-6.41-31.87-9.14l9.16-7.88c.09-.08.14-.17.2-.26,5.38,1.55,11.18,3.21,15.92,4.57,1.58,3.06,3.92,7.59,6.58,12.71h0ZM466.89,282.64l3.87,7.08h0c-8.07-2.31-18.39-5.27-26.24-7.52l9.06-7.79,10.47,2.97c0,.06,2.84,5.26,2.84,5.26ZM460.65,271.14l.73,1.33.66,1.25c-.8-.21-24.62-7.06-24.62-7.06l11.07-8.89,5.87,1.88,6.29,11.5h0ZM443.77,240.1l.97,1.75,1.57,2.9.79,1.39,3.63,6.72c.12.24.61,1.15.61,1.15.12.24.92,1.73.96,1.79-.79-.23-20.38-6.33-20.38-6.33l10.83-9.68,1.03.3h0ZM441.77,236.45c-.76-.19-16.51-4.34-16.51-4.34-.04,0-.06-.02-.06-.06l10.41-7.02,6.16,11.42ZM434.15,222.37l-10.04,6.78c-1.45-4.11-3.03-8.29-4.66-12.52l8.53-5.57,3.09,5.63,3.09,5.69h0ZM430.28,177.78c.36.73.12,1.63-.61,2.06-.24.12-.48.18-.73.18-.54,0-1.09-.3-1.33-.85l-16.88-31.58c-.36-.79-.12-1.69.67-2.06.73-.42,1.63-.12,2,.61l16.88,31.64h0Z"/>
    </g>
    <path class="st2" d="M212.21,148.37l-.61-.36-11.98-7.81c-.73-.48-1.69-.61-2.54-.36-.79.24-1.51.85-1.88,1.69l-88.91,200.71h6.72l2-4.69,30.9-4.07,6.69,6.68c.32.32.75.48,1.17.48s.85-.16,1.17-.48c.64-.65.64-1.69,0-2.34l-4.89-4.88.58-.08c.9-.12,1.54-.95,1.42-1.85s-.92-1.55-1.85-1.42l-3.09.41-9.59-9.58,13.52-1.78,3.56,3.55c.32.32.75.48,1.17.48s.85-.16,1.17-.48c.64-.65.64-1.69,0-2.34l-2.15-2.14c.29-.34.46-.8.39-1.28-.12-.9-.94-1.54-1.85-1.42l-1.1.14-9.13-9.12,11.92-1.57,3.27,3.26c.32.32.75.48,1.17.48s.85-.16,1.17-.49c.64-.65.64-1.69,0-2.34l-1.47-1.47.79-.1c.9-.12,1.54-.95,1.42-1.85s-.92-1.56-1.85-1.42l-3.3.43-8.31-8.3,12.2-1.6,3.27,3.26c.32.32.75.48,1.17.48s.85-.16,1.17-.48c.64-.65.64-1.69,0-2.34l-1.47-1.47.79-.1c.9-.12,1.54-.95,1.42-1.85s-.93-1.56-1.85-1.42l-3.3.43-9.13-9.12,8.48-1.11,5.02-.67c.6-.12,1.09-.48,1.27-1.03.18-.54.06-1.15-.36-1.51l-3.75-3.93-7.08-7.44,9.98-1.51,5.02-.73c.54-.12,1.03-.48,1.21-1.03.18-.54.06-1.15-.36-1.51l-3.63-3.63-6.6-6.66,9.32-1.51,4.66-.79c.48-.12.91-.42,1.09-.91.24-.42.18-.97-.06-1.39l-3.09-4.78-4.36-6.84,6.96-.73,4.9-.48c.48-.06.97-.36,1.15-.85.24-.42.24-.97,0-1.45l-3.21-5.39-3.87-6.59,6.66-1.03,5.39-.85c.85-.12,1.39-.91,1.27-1.69-.12-.85-.91-1.39-1.75-1.27l-3.75.6-13.37,2.06,6.23-13.73,9.92,4.05,2.3.97c.18.06.36.12.54.12.6,0,1.15-.36,1.39-.91.36-.79,0-1.69-.79-2l-2.42-.97-9.74-3.99,4.72-10.47,9.44,2.96,2.24.67c.18.06.3.06.48.06.61,0,1.21-.42,1.45-1.03.24-.85-.24-1.69-1.03-1.94l-2-.6-9.38-2.9,5.26-11.56,8.35,3.69,2,.85c.18.06.42.12.6.12.6,0,1.15-.36,1.39-.91.36-.79,0-1.63-.79-2l-2.06-.91-8.29-3.63,10.16-22.57,7.44,4.78,2.24,1.45c1.39.91,3.27.48,4.17-.91.91-1.39.48-3.27-.91-4.17l-.02.05ZM148.05,279.07s.03.06.05.08l9.01,9-12.51,1.65c-.41-.1-.83-.05-1.2.16l-8.61,1.13,4.63-10.87,8.63-1.15h0ZM133.47,321.07l9.5,9.48-26.45,3.48,4.89-11.48,12-1.58s.04.07.07.1h-.01ZM139.36,307l8.72,8.71-25.17,3.31,4.65-10.93,11.51-1.51c.08.15.16.3.28.43h0ZM152.05,301.54l-22.99,3.02,4.23-9.95,10.44-1.37,8.31,8.3h.01ZM161.75,273.56l.54.54-.73.12-20.69,2.72,5.75-12.83,5.45-.79,9.68,10.23h0ZM166.89,257.59l.42.42-.6.06-18.58,2.78,5.32-11.86,4.24-.67,9.2,9.26h0ZM172.04,242.04l.48.79-.79.12-16.82,2.78,6.05-13.43,4.54-.42,6.53,10.16h0ZM171.61,216.56l5.81,9.8.67,1.15-1.09.12-14.58,1.51,5.39-11.98,3.81-.61h0Z"/>
    <path class="st2" d="M168.53,348.04h-20.75c-1.63,0-3.03-1.33-3.03-3.03l-1.68-2.77c0-.3,1.74-10.36,1.81-10.67,3.45-12.58,6.84-24.44,10.16-35.76.36-1.27.73-2.54,1.15-3.75.18-.79.42-1.51.67-2.3.06-.3.18-.61.24-.91.06-.18.12-.42.18-.6.36-1.09.67-2.18,1.03-3.27.79-2.6,1.57-5.14,2.3-7.62.36-1.09.67-2.12.97-3.15.12-.24.18-.48.18-.67.42-1.09.73-2.18,1.03-3.33,1.03-3.03,1.94-6.05,2.9-8.96.36-1.09.67-2.18,1.03-3.21.06-.18.12-.3.18-.48.3-1.09.67-2.12,1.03-3.21.91-2.78,1.82-5.51,2.72-8.17l1.09-3.27c.06-.3.18-.61.3-.91.42-1.27.85-2.48,1.21-3.69.91-2.6,1.75-5.08,2.6-7.56.36-1.03.73-2.12,1.15-3.15.06-.42.24-.85.42-1.27.42-1.27.85-2.54,1.27-3.75.97-2.6,1.88-5.14,2.78-7.62.36-1.09.73-2.18,1.15-3.21.91-2.6,1.88-5.14,2.78-7.62.36-.97.67-1.88,1.03-2.78,1.51-4.05,3.03-7.93,4.42-11.5.36-.97.73-1.94,1.15-2.84,1.45-3.93,2.9-7.5,4.24-10.77.42-.97.79-1.94,1.15-2.84,4.48-10.83,7.74-17.97,9.32-21.42.73-1.57,1.09-2.36,1.15-2.42.61-1.21,1.88-1.88,3.15-1.69l.6.12,14.88,2.24c-10.95,26.68-61.23,152.47-57.96,197.79v.02Z"/>
    <path class="st2" d="M195.88,348.04h-24.32c-3.39-44.17,47.92-172.62,58.03-197.31l17.73,2.66c-9.14,18.52-54.33,114.36-51.43,194.65h0Z"/>
    <path class="st2" d="M210.55,146.82l-47.61-29.9c-.69-.43-1.61-.24-2.06.44-.46.7-.28,1.63.42,2.1l5.72,3.81c-.18.1-.39.14-.52.33l-3.1,4.33-2.37-1.47c-.7-.43-1.64-.22-2.08.49s-.22,1.64.49,2.08l8.43,5.24c-.28,1.07-.16,2.26.67,3.51.83,1.26,2.17,2.46,3.77,3.39,1.6.92,3.31,1.48,4.82,1.57.14,0,.28,0,.42,0,1.67,0,2.93-.61,3.58-1.74.71-1.22.53-2.76-.51-4.33-.83-1.26-2.17-2.47-3.77-3.39-2.54-1.47-5.05-1.83-6.84-1.25l-4.04-2.51,2.98-4.16c.15-.21.13-.45.16-.69l38.97,25.96c1.11.7,2.51.38,3.18-.68s.35-2.46-.71-3.13h0Z"/>
    <path class="st2" d="M281.17,179.01l-.03.02c-6.19-3.79-10.28-9.17-12.89-13.74-14.85,30.39-57.75,125.2-45.34,182.75h18.94c.97,0,1.88-.48,2.48-1.27.54-.85.67-1.88.36-2.78-.17-.46-14.9-44.39,36.47-164.98h.01Z"/>
    <path class="st2" d="M265.75,160.22c-.93-2.24-1.38-3.79-1.38-3.79l-13.92-2.55c-7.93,16.03-54.58,113.21-51.67,194.16h21.12c-13.03-62.16,33.26-162.56,45.86-187.82h-.01Z"/>
    <rect class="st2" x="57.69" y="326.85" width="560.28" height="66.41"/>
    <path class="st2" d="M237.6,45.26c.57,6.21,5.64,11.21,12.05,11.49l.51.02h29.63c-.03-.92-.3-2.38-.9-3.33-2.74-4.48-12.11-3.83-18.1-5.03-7.3-1.22-21.89-3.65-21.89-3.65l-1.3-.25v.77-.02Z"/>
    <path class="st2" d="M253.22,72.4c1.42,6.85,6.85,12.26,13.81,13.65.64.13,3.64.77,4.77.74l-.64-1.75c-1.32-3.66-1.42-9.32-.57-12.97l-17.48-.18.11.5h0Z"/>
    <path class="st2" d="M413.15,71.89l-16.07.18c.92,3.97.72,10.31-.94,13.87l-.34.75,2.87-.34c7.9-.68,14.23-6.45,15.78-13.94l.13-.51h-1.42Z"/>
    <path class="st2" d="M422.03,59.87h-33.22c1.6,3.09,4.88,6.07,6.86,9.04l.31.53h15.27c.91,0,1.85-.24,2.16-.3,4.74-.82,8.54-4.28,9.91-8.75l.07-.51h-1.37,0Z"/>
    <path class="st2" d="M304.94,68.25c-2.54,2.17-8.07,7.81-8.07,7.81l-16.94,19.51-.6.7c-3.57,3.04-7.25,4.98-11.36,4.98h-.16l.08.11h-.08c0,1.95,1.4,3.58,3.25,3.94h124.55c1.84-.36,3.25-1.99,3.25-3.94,0,0-1.35,0-.02,0-4.04,0-7.68-1.81-11.2-4.72l-2.81-3.46s-16.14-18.08-17.04-18.89c-8.67-9.56-19.2-17.94-34.42-17.94-11.9,0-20.91,5.14-28.42,11.93"/>
    <path class="st2" d="M428.36,44.81c-7.16,1.2-14.32,2.39-21.49,3.58-5.99,1.2-15.37.55-18.1,5.03-.6.95-.87,1.89-.9,2.81v.46h2.28l27.35.05h.51c6.27-.29,11.27-5.08,12.01-11.12h.04l.13-1.17-1.83.34h0Z"/>
    <path class="st2" d="M244.25,59.87l.08.51c1.54,4.98,6.05,8.69,11.55,8.93l2.82.12,12.82-.02.45-.51c1.99-2.96,5.26-5.94,6.86-9.03h-34.61,0Z"/>
    <path class="st2" d="M228.93,20.11c-.84,1.76-1.33,3.72-1.43,5.8-.3,6.79,3.95,12.74,10.04,14.89v.07l.77.19c1.07.31,2.2.51,3.37.58,9.19,1.55,30.71,4.83,32.98,5.19,4.78,1.17,8.34,5.47,8.34,10.61,0,3.3-1.47,6.24-3.77,8.25l-1.41,1.28c-3.15,3.2-5.1,7.58-5.1,12.41,0,4.26,1.51,8.18,4.03,11.23l.34.35,20.95-24.4c.89-2.42,1.42-5,1.42-7.73,0-9.85-6.27-18.23-15.05-21.37h.02l-1.48-.49h0l-52.7-17.37-.99-.32-.3.85h-.03Z"/>
    <path class="st2" d="M384.74,36.97h0l-1.48.47h.02c-8.78,3.14-15.05,11.52-15.05,21.38,0,3.39.75,6.58,2.08,9.47l19.84,23.11.79-.81c2.52-3.05,4.03-6.97,4.03-11.23,0-4.83-1.95-9.22-5.1-12.41l-1.41-1.28c-2.3-2.01-3.78-4.96-3.78-8.25,0-5.13,3.55-9.43,8.34-10.61,2.27-.34,23.79-3.64,32.98-5.19,1.16-.07,4.12-.79,4.12-.84,6.09-2.16,10.33-8.1,10.05-14.89-.09-1.94-.54-3.79-1.29-5.46h0l-.45-1.26s-53.69,17.79-53.69,17.79Z"/>
    <path class="st2" d="M323.85,110.59l1.36,57.68,2.98,1.83c.94.58,1.85,1.14,2.75,1.71l2.58,1.59h-.06c3.05,1.94,5.88,3.83,8.6,5.72l.15-5.4,1.53-63.13h-19.89,0Z"/>
    <path class="st2" d="M326.15,208.3l.66,28.32c.21.22.4.43.63.64l1.42,1.38c3.25,2.95,7.29,5.91,11.48,8.76l.92-33.62c-.74-.79-1.53-1.57-2.42-2.38l-.87-.73c-2.94-2.48-6.63-5.03-11.77-8.09l-.03,5.72h0Z"/>
    <g>
      <path class="st2" d="M354.41,124.71c-7.44,8.58-1.76,15.85,2.99,19.02,1.62,1.27,3.26,2.11,4.37,2.38l-.12-.9c-.77-6.64,6.58-7.68,11.36-4.73,4.62,3.83,5.22,12.07-11.61,22.67-4.65,2.92-9.23,5.75-13.75,8.55l-.28,11.29c2.08,1.56,4.1,3.16,6.03,4.81.44.38.84.77,1.27,1.14,11.84-6.06,23.79-11.74,31.5-18.56,14.28-12.62,18.33-31.02,3.91-44.19-.94-.86-1.92-1.59-2.91-2.28-5.09-3.89-10.87-5.42-16.22-5.42-7.1,0-13.45,2.7-16.52,6.23h-.03Z"/>
      <g class="st3">
        <polygon class="st2" points="403.01 118.48 392.32 118.48 381.63 118.48 370.94 118.48 360.25 118.48 349.56 118.48 346.97 118.48 346.97 124.65 346.97 150.06 346.97 175.47 346.97 188.93 351.99 188.93 362.68 188.93 373.37 188.93 384.06 188.93 394.75 188.93 404.48 188.93 404.48 165.79 404.48 140.38 404.48 118.48 403.01 118.48"/>
      </g>
    </g>
    <path class="st2" d="M299.92,286.8c1.04,15.13,20.26,22,20.26,22,0,0,1.19.44,1.86.54-.94-.49-1.24-.67-1.66-.94-2.26-1.44-9.5-6.81-10.17-17.42-.34-5.57,3.49-13.14,11.54-19.57.16-.13.33-.24.48-.36l-.17-7.07c-1.37-.85-2.73-1.71-4.07-2.62l-1.56-1.03c-10.77,8.57-17.09,18.09-16.52,26.47"/>
    <g>
      <path class="st2" d="M278.8,125.22c-2.11,1.92-3.76,3.96-5.11,6.06-9.06,12.58-4.48,28.26,8.16,39.43.53.46,1.07.93,1.65,1.39,8.73,6.92,22.27,13.25,34.99,20.01,0,0,17.25,9.67,22.92,14.47v-.02c6.71,5.69,10.91,11.95,10.25,19.17-.26,2.77-1.98,6.67-5.6,10.93l-.34,14.36c.37.26.78.54,1.23.86l1.66,1.16c12.04-8.64,21.55-19.54,18.2-37.01-.75-3.95-2.42-7.69-4.83-11.29-3.18-4.55-7.47-8.92-12.1-12.88-7.11-6.11-15.29-11.48-24.54-17.19v.05c-2.31-1.46-4.7-2.93-7.1-4.4-1.24-.76-2.47-1.51-3.74-2.28h.07c-2.72-1.67-5.44-3.37-8.19-5.09-34.41-21.66,4.02-33.53.7-17.8,4.19-1.02,15.68-9.78,6.29-20.61-3.06-3.53-9.45-6.25-16.55-6.25-6,0-12.53,1.93-18.02,6.95h0Z"/>
      <g class="st1">
        <polygon class="st2" points="357.51 124.97 348.43 121.15 348.43 121.16 341.57 118.27 338.96 118.27 328.28 118.27 317.58 118.27 306.89 118.27 296.2 118.27 285.51 118.27 274.82 118.27 264.63 118.27 264.63 142.53 264.63 167.94 264.63 193.36 264.63 218.77 264.63 233.55 268.42 235.16 277.51 238.98 286.59 242.79 295.67 246.61 295.67 246.61 392.66 270 357.51 124.97"/>
      </g>
    </g>
    <path class="st2" d="M299.79,217.46c-3.46,18.12,6.73,29.26,19.34,38.12.62.43,1.84,1.32,1.84,1.32,1.25.83,2.51,1.63,3.77,2.43,7.76,4.86,15.79,9.16,21.69,13.87.9.72,3.37,3.11,3.82,3.57,5.54,5.64,8.17,11.68,7.88,16.37-.47,7.59-4.26,12.52-7.26,15.28-1.44,1.47-3.7,2.76-3.7,2.76,0,0,6.59-2.38,12.31-7.38,4.34-3.58,8.37-8.65,8.83-15.35.59-8.6-6.02-18.39-17.29-27.13-1.03-.74-9.25-6.48-9.48-6.63-7.42-4.89-13.44-9.18-17.9-13.57h.05c-5.09-4.97-8.03-9.79-8.11-14.84-.07-4.81,1.98-9.28,5.3-13.41l-.31-13.46-3.37-1.88s-2.68-1.41-3.38-1.77c-7.36,6.75-12.51,13.83-14.02,21.73"/>
    <path class="st2" d="M327.33,315.82s.17,5.08,5.06,5.15c4.88.07,5.22-5.14,5.22-5.14l1.01-42.49c-3.28-2.27-7.05-4.53-10.99-6.89-.49-.29-.99-.6-1.48-.89l1.18,50.27Z"/>
  </g>
  <g>
    <g>
      <path class="st2" d="M104.13,432.75c-.09,1.9-.6,3.59-1.54,5.05s-2.26,2.6-3.96,3.4-3.64,1.2-5.83,1.2c-3.6,0-6.44-1.17-8.5-3.52-2.07-2.35-3.11-5.66-3.11-9.94v-1.35c0-2.69.47-5.03,1.4-7.05.94-2.02,2.28-3.57,4.04-4.67s3.79-1.65,6.1-1.65c3.32,0,6,.88,8.02,2.62,2.02,1.75,3.17,4.16,3.44,7.24h-6.59c-.05-1.67-.47-2.87-1.26-3.6-.79-.72-1.99-1.09-3.61-1.09s-2.85.61-3.62,1.84c-.76,1.23-1.17,3.2-1.2,5.89v1.94c0,2.92.37,5.01,1.1,6.26.73,1.25,2,1.88,3.79,1.88,1.52,0,2.68-.36,3.48-1.07s1.23-1.85,1.28-3.4h6.57v.02Z"/>
      <path class="st2" d="M132.82,442.03h-6.57v-11.44h-9.73v11.44h-6.6v-27.4h6.6v10.88h9.73v-10.88h6.57v27.4Z"/>
      <path class="st2" d="M155.23,436.91h-9.05l-1.58,5.12h-7.06l10.05-27.4h6.21l10.12,27.4h-7.1l-1.6-5.12h.01ZM147.76,431.81h5.89l-2.96-9.5-2.94,9.5h.01Z"/>
      <path class="st2" d="M177.26,414.62l6.12,19.06,6.1-19.06h8.69v27.4h-6.62v-6.4l.64-13.1-6.62,19.5h-4.37l-6.64-19.51.64,13.11v6.4h-6.6v-27.4h8.68-.02Z"/>
      <path class="st2" d="M205.03,442.03v-27.4h9.84c3.53,0,6.21.65,8.05,1.94s2.76,3.17,2.76,5.63c0,1.42-.33,2.62-.98,3.63s-1.61,1.75-2.88,2.22c1.43.38,2.53,1.08,3.3,2.11.76,1.03,1.15,2.29,1.15,3.76,0,2.69-.85,4.7-2.55,6.05-1.7,1.35-4.22,2.04-7.56,2.06h-11.13ZM211.64,426.05h3.44c1.44-.01,2.47-.28,3.09-.79.61-.52.92-1.28.92-2.28,0-1.16-.33-1.99-1-2.5s-1.74-.76-3.22-.76h-3.24v6.34h.01ZM211.64,430.38v6.57h4.33c1.19,0,2.11-.28,2.75-.82s.96-1.31.96-2.3c0-2.29-1.14-3.43-3.41-3.44h-4.63Z"/>
      <path class="st2" d="M249.55,430.4h-10.39v6.55h12.27v5.08h-18.88v-27.4h18.91v5.1h-12.31v5.78h10.39v4.89h0Z"/>
      <path class="st2" d="M266.97,432.34h-3.58v9.69h-6.6v-27.4h10.78c3.25,0,5.79.72,7.62,2.16s2.75,3.48,2.75,6.11c0,1.9-.38,3.49-1.16,4.74-.77,1.25-1.98,2.26-3.62,3.05l5.72,11.06v.28h-7.07l-4.84-9.69h0ZM263.39,427.26h4.18c1.26,0,2.2-.33,2.83-.99.63-.66.95-1.58.95-2.76s-.32-2.11-.96-2.78-1.58-1.01-2.82-1.01h-4.18v7.55h0Z"/>
      <path class="st2" d="M318.71,428.89c0,2.67-.5,5.04-1.49,7.1s-2.4,3.64-4.22,4.75c-1.83,1.11-3.91,1.66-6.24,1.66s-4.41-.53-6.21-1.61-3.21-2.61-4.23-4.6c-1.01-1.99-1.54-4.29-1.59-6.87v-1.55c0-2.68.49-5.05,1.48-7.1s2.4-3.64,4.23-4.75c1.84-1.11,3.93-1.67,6.28-1.67s4.39.55,6.21,1.66c1.82,1.1,3.23,2.67,4.24,4.71,1.01,2.04,1.52,4.38,1.53,7.01v1.26h0ZM311.99,427.74c0-2.73-.46-4.79-1.37-6.2s-2.21-2.12-3.91-2.12c-3.31,0-5.06,2.48-5.25,7.46l-.02,2.01c0,2.69.44,4.75,1.33,6.19s2.22,2.16,3.97,2.16,2.96-.71,3.86-2.12c.9-1.42,1.36-3.46,1.37-6.12v-1.26h.02Z"/>
      <path class="st2" d="M342.04,431.11h-10.65v10.92h-6.6v-27.4h18.33v5.1h-11.73v6.3h10.65v5.08h0Z"/>
      <path class="st2" d="M381.6,432.75c-.09,1.9-.6,3.59-1.54,5.05s-2.26,2.6-3.96,3.4-3.64,1.2-5.83,1.2c-3.6,0-6.44-1.17-8.5-3.52-2.07-2.35-3.11-5.66-3.11-9.94v-1.35c0-2.69.47-5.03,1.4-7.05.94-2.02,2.28-3.57,4.04-4.67s3.79-1.65,6.1-1.65c3.32,0,6,.88,8.02,2.62,2.02,1.75,3.17,4.16,3.44,7.24h-6.59c-.05-1.67-.47-2.87-1.26-3.6-.79-.72-1.99-1.09-3.61-1.09s-2.85.61-3.62,1.84c-.76,1.23-1.17,3.2-1.2,5.89v1.94c0,2.92.37,5.01,1.1,6.26s2,1.88,3.79,1.88c1.52,0,2.68-.36,3.48-1.07s1.23-1.85,1.28-3.4h6.57v.02Z"/>
      <path class="st2" d="M410.6,428.89c0,2.67-.5,5.04-1.49,7.1s-2.4,3.64-4.22,4.75c-1.83,1.11-3.91,1.66-6.24,1.66s-4.41-.53-6.21-1.61-3.21-2.61-4.23-4.6c-1.01-1.99-1.54-4.29-1.59-6.87v-1.55c0-2.68.49-5.05,1.48-7.1s2.4-3.64,4.23-4.75c1.84-1.11,3.93-1.67,6.28-1.67s4.39.55,6.21,1.66c1.82,1.1,3.23,2.67,4.24,4.71,1.01,2.04,1.52,4.38,1.53,7.01v1.26h0ZM403.88,427.74c0-2.73-.46-4.79-1.37-6.2s-2.21-2.12-3.91-2.12c-3.31,0-5.06,2.48-5.25,7.46l-.02,2.01c0,2.69.44,4.75,1.33,6.19s2.22,2.16,3.97,2.16,2.96-.71,3.86-2.12c.9-1.42,1.36-3.46,1.37-6.12v-1.26h.02Z"/>
      <path class="st2" d="M425.35,414.62l6.12,19.06,6.1-19.06h8.69v27.4h-6.62v-6.4l.64-13.1-6.62,19.5h-4.37l-6.64-19.51.64,13.11v6.4h-6.6v-27.4h8.68-.02Z"/>
      <path class="st2" d="M461.79,414.62l6.12,19.06,6.1-19.06h8.69v27.4h-6.62v-6.4l.64-13.1-6.62,19.5h-4.37l-6.64-19.51.64,13.11v6.4h-6.6v-27.4h8.68-.02Z"/>
      <path class="st2" d="M506.56,430.4h-10.39v6.55h12.27v5.08h-18.88v-27.4h18.91v5.1h-12.31v5.78h10.39v4.89h.01Z"/>
      <path class="st2" d="M523.98,432.34h-3.58v9.69h-6.6v-27.4h10.78c3.25,0,5.79.72,7.62,2.16s2.75,3.48,2.75,6.11c0,1.9-.38,3.49-1.16,4.74-.77,1.25-1.98,2.26-3.62,3.05l5.72,11.06v.28h-7.07l-4.84-9.69h0ZM520.4,427.26h4.18c1.26,0,2.2-.33,2.83-.99s.95-1.58.95-2.76-.32-2.11-.96-2.78-1.58-1.01-2.82-1.01h-4.18v7.55h0Z"/>
      <path class="st2" d="M563.77,432.75c-.09,1.9-.6,3.59-1.54,5.05s-2.26,2.6-3.96,3.4-3.64,1.2-5.83,1.2c-3.6,0-6.44-1.17-8.5-3.52-2.07-2.35-3.11-5.66-3.11-9.94v-1.35c0-2.69.47-5.03,1.4-7.05.94-2.02,2.28-3.57,4.04-4.67,1.76-1.1,3.79-1.65,6.1-1.65,3.32,0,6,.88,8.02,2.62,2.02,1.75,3.17,4.16,3.44,7.24h-6.59c-.05-1.67-.47-2.87-1.26-3.6-.79-.72-1.99-1.09-3.61-1.09s-2.85.61-3.62,1.84c-.76,1.23-1.17,3.2-1.2,5.89v1.94c0,2.92.37,5.01,1.1,6.26s2,1.88,3.79,1.88c1.52,0,2.68-.36,3.48-1.07s1.23-1.85,1.28-3.4h6.57v.02Z"/>
      <path class="st2" d="M586.56,430.4h-10.39v6.55h12.27v5.08h-18.88v-27.4h18.91v5.1h-12.31v5.78h10.39v4.89h.01Z"/>
      <path class="st2" d="M200.72,483.16h-9.05l-1.58,5.12h-7.06l10.05-27.4h6.21l10.12,27.4h-7.1l-1.6-5.12h.01ZM193.24,478.06h5.89l-2.96-9.5-2.94,9.5h.01Z"/>
      <path class="st2" d="M236.96,488.28h-6.57l-9.71-17.05v17.05h-6.6v-27.4h6.6l9.69,17.05v-17.05h6.59v27.4h0Z"/>
      <path class="st2" d="M243.8,488.28v-27.4h8.83c2.42,0,4.6.55,6.53,1.65s3.44,2.65,4.53,4.65,1.64,4.24,1.65,6.73v1.26c0,2.51-.53,4.76-1.59,6.75s-2.55,3.55-4.48,4.67-4.07,1.69-6.44,1.7h-9.03ZM250.4,465.98v17.22h2.3c1.9,0,3.35-.67,4.37-2.02,1.01-1.35,1.52-3.35,1.52-6.02v-1.19c0-2.65-.51-4.64-1.52-5.98-1.02-1.34-2.5-2.01-4.44-2.01h-2.23Z"/>
      <path class="st2" d="M289.33,488.28h-6.59v-27.4h6.59v27.4Z"/>
      <path class="st2" d="M319.47,488.28h-6.57l-9.71-17.05v17.05h-6.6v-27.4h6.6l9.69,17.05v-17.05h6.59v27.4Z"/>
      <path class="st2" d="M326.31,488.28v-27.4h8.83c2.42,0,4.6.55,6.53,1.65s3.44,2.65,4.53,4.65,1.64,4.24,1.65,6.73v1.26c0,2.51-.53,4.76-1.59,6.75s-2.55,3.55-4.48,4.67-4.07,1.69-6.44,1.7h-9.03ZM332.92,465.98v17.22h2.3c1.9,0,3.35-.67,4.37-2.02,1.01-1.35,1.52-3.35,1.52-6.02v-1.19c0-2.65-.51-4.64-1.52-5.98-1.02-1.34-2.5-2.01-4.44-2.01h-2.23Z"/>
      <path class="st2" d="M375.39,460.88v17.93c0,2.03-.43,3.79-1.3,5.28-.87,1.48-2.11,2.62-3.73,3.39-1.62.78-3.53,1.17-5.74,1.17-3.34,0-5.96-.87-7.89-2.6-1.92-1.73-2.9-4.1-2.94-7.11v-18.07h6.64v18.2c.08,3,1.47,4.5,4.18,4.5,1.37,0,2.4-.38,3.11-1.13.7-.75,1.05-1.98,1.05-3.67v-17.9h6.62Z"/>
      <path class="st2" d="M396.31,481c0-.97-.34-1.72-1.03-2.26s-1.89-1.1-3.6-1.67c-1.72-.58-3.12-1.13-4.22-1.67-3.55-1.75-5.33-4.14-5.33-7.19,0-1.52.44-2.85,1.33-4.02.88-1.16,2.14-2.06,3.75-2.71s3.44-.97,5.46-.97,3.74.35,5.3,1.06,2.78,1.7,3.64,3,1.3,2.78,1.3,4.45h-6.59c0-1.12-.34-1.98-1.03-2.6-.68-.61-1.61-.92-2.78-.92s-2.11.26-2.8.78c-.68.52-1.03,1.18-1.03,1.98,0,.7.38,1.34,1.13,1.91s2.08,1.16,3.97,1.77,3.45,1.26,4.67,1.97c2.96,1.71,4.44,4.06,4.44,7.06,0,2.4-.9,4.28-2.71,5.65s-4.28,2.05-7.43,2.05c-2.22,0-4.23-.4-6.03-1.2-1.8-.79-3.15-1.89-4.07-3.28-.91-1.38-1.36-2.98-1.36-4.79h6.62c0,1.47.38,2.55,1.14,3.25s1.99,1.05,3.7,1.05c1.09,0,1.96-.24,2.59-.71s.95-1.13.95-1.98h.02Z"/>
      <path class="st2" d="M430.48,465.98h-8.23v22.3h-6.6v-22.3h-8.07v-5.1h22.9v5.1h0Z"/>
      <path class="st2" d="M446.11,478.59h-3.58v9.69h-6.6v-27.4h10.78c3.25,0,5.79.72,7.62,2.16s2.75,3.48,2.75,6.11c0,1.9-.38,3.49-1.16,4.74-.77,1.25-1.98,2.26-3.62,3.05l5.72,11.06v.28h-7.07l-4.84-9.69h0ZM442.53,473.51h4.18c1.26,0,2.2-.33,2.83-.99.63-.66.95-1.58.95-2.76s-.32-2.11-.96-2.78-1.58-1.01-2.82-1.01h-4.18v7.55h0Z"/>
      <path class="st2" d="M473.77,472.77l5.05-11.89h7.13l-8.83,17.56v9.84h-6.7v-9.84l-8.81-17.56h7.09l5.06,11.89h.01Z"/>
    </g>
    <g>
      <path class="st0" d="M109.04,369.77c0-1.16-.41-2.06-1.23-2.7-.82-.65-2.26-1.31-4.32-2.01-2.06-.69-3.74-1.36-5.05-2.01-4.25-2.09-6.38-4.96-6.38-8.61,0-1.81.53-3.42,1.59-4.81,1.06-1.39,2.56-2.47,4.5-3.25s4.12-1.16,6.54-1.16,4.48.42,6.35,1.26,3.32,2.04,4.36,3.6,1.56,3.33,1.56,5.33h-7.89c0-1.34-.41-2.38-1.23-3.11-.82-.74-1.93-1.1-3.32-1.1s-2.53.31-3.35.93-1.23,1.42-1.23,2.38c0,.84.45,1.61,1.35,2.29.9.68,2.49,1.39,4.76,2.12,2.27.72,4.13,1.51,5.59,2.35,3.55,2.05,5.32,4.86,5.32,8.45,0,2.87-1.08,5.12-3.25,6.76-2.16,1.64-5.13,2.46-8.9,2.46-2.66,0-5.07-.48-7.23-1.43-2.15-.95-3.78-2.26-4.87-3.92-1.09-1.66-1.63-3.57-1.63-5.74h7.93c0,1.76.46,3.06,1.36,3.89.91.84,2.39,1.25,4.43,1.25,1.31,0,2.34-.28,3.1-.84.76-.57,1.14-1.36,1.14-2.38h0Z"/>
      <path class="st0" d="M142.84,372.36h-10.84l-1.89,6.13h-8.45l12.04-32.82h7.44l12.13,32.82h-8.5l-1.92-6.13h-.01ZM133.89,366.25h7.05l-3.54-11.38-3.52,11.38h0Z"/>
      <path class="st0" d="M167.26,378.49h-7.89v-32.82h7.89v32.82Z"/>
      <path class="st0" d="M203.37,378.49h-7.87l-11.63-20.42v20.42h-7.91v-32.82h7.91l11.61,20.42v-20.42h7.89v32.82Z"/>
      <path class="st0" d="M237.33,351.78h-9.85v26.71h-7.91v-26.71h-9.67v-6.11h27.43v6.11h0Z"/>
      <path class="st0" d="M257.54,367.26h-13.55v-5.86h13.55v5.86Z"/>
      <path class="st0" d="M274.1,367.35v11.14h-7.91v-32.82h13.09c2.51,0,4.73.46,6.66,1.38,1.93.93,3.43,2.24,4.49,3.95,1.06,1.7,1.59,3.64,1.59,5.8,0,3.2-1.15,5.76-3.44,7.68s-5.44,2.87-9.43,2.87h-5.05ZM274.1,361.25h5.18c1.53,0,2.7-.38,3.51-1.15.8-.76,1.21-1.85,1.21-3.24,0-1.53-.41-2.76-1.24-3.67s-1.95-1.38-3.38-1.4h-5.27v9.47h-.01Z"/>
      <path class="st0" d="M319.79,364.56h-12.44v7.84h14.7v6.09h-22.61v-32.82h22.65v6.11h-14.74v6.92h12.44v5.86h0Z"/>
      <path class="st0" d="M354.22,351.78h-9.85v26.71h-7.91v-26.71h-9.67v-6.11h27.43v6.11h0Z"/>
      <path class="st0" d="M381.1,364.56h-12.44v7.84h14.7v6.09h-22.61v-32.82h22.65v6.11h-14.74v6.92h12.44v5.86h0Z"/>
      <path class="st0" d="M401.97,366.88h-4.28v11.61h-7.91v-32.82h12.91c3.89,0,6.94.86,9.13,2.59,2.19,1.72,3.29,4.16,3.29,7.32,0,2.28-.46,4.17-1.39,5.67s-2.37,2.72-4.34,3.65l6.85,13.25v.34h-8.47l-5.8-11.61h0ZM397.69,360.8h5c1.5,0,2.64-.4,3.39-1.19.76-.79,1.14-1.9,1.14-3.32s-.38-2.52-1.15-3.33c-.77-.8-1.89-1.21-3.38-1.21h-5v9.04h0Z"/>
      <path class="st0" d="M440.01,369.77c0-1.16-.41-2.06-1.23-2.7-.82-.65-2.26-1.31-4.32-2.01-2.06-.69-3.74-1.36-5.05-2.01-4.25-2.09-6.38-4.96-6.38-8.61,0-1.81.53-3.42,1.59-4.81,1.06-1.39,2.56-2.47,4.5-3.25s4.12-1.16,6.54-1.16,4.48.42,6.35,1.26,3.32,2.04,4.36,3.6,1.56,3.33,1.56,5.33h-7.89c0-1.34-.41-2.38-1.23-3.11-.82-.74-1.93-1.1-3.32-1.1s-2.53.31-3.35.93-1.23,1.42-1.23,2.38c0,.84.45,1.61,1.35,2.29.9.68,2.49,1.39,4.76,2.12,2.27.72,4.13,1.51,5.59,2.35,3.55,2.05,5.32,4.86,5.32,8.45,0,2.87-1.08,5.12-3.25,6.76-2.16,1.64-5.13,2.46-8.9,2.46-2.66,0-5.07-.48-7.23-1.43-2.15-.95-3.78-2.26-4.87-3.92s-1.63-3.57-1.63-5.74h7.93c0,1.76.46,3.06,1.36,3.89.91.84,2.39,1.25,4.43,1.25,1.31,0,2.34-.28,3.1-.84.76-.57,1.14-1.36,1.14-2.38h0Z"/>
      <path class="st0" d="M455.18,378.49v-32.82h11.79c4.22,0,7.43.78,9.64,2.32s3.3,3.79,3.3,6.74c0,1.7-.39,3.15-1.17,4.35s-1.93,2.09-3.45,2.66c1.71.45,3.03,1.29,3.94,2.53.92,1.23,1.37,2.73,1.37,4.51,0,3.21-1.02,5.63-3.05,7.25-2.04,1.61-5.05,2.44-9.05,2.47h-13.32ZM463.09,359.35h4.12c1.73-.02,2.96-.33,3.7-.95s1.1-1.53,1.1-2.74c0-1.39-.4-2.38-1.19-2.99s-2.08-.92-3.85-.92h-3.88v7.6ZM463.09,364.54v7.87h5.18c1.43,0,2.53-.33,3.29-.98.77-.65,1.15-1.57,1.15-2.76,0-2.74-1.36-4.11-4.08-4.12h-5.55,0Z"/>
      <path class="st0" d="M513.89,345.67v21.48c0,2.43-.52,4.54-1.56,6.32s-2.53,3.14-4.46,4.07c-1.94.93-4.23,1.39-6.87,1.39-4,0-7.14-1.03-9.45-3.11-2.3-2.07-3.47-4.92-3.52-8.52v-21.64h7.96v21.79c.09,3.59,1.76,5.39,5,5.39,1.64,0,2.88-.45,3.72-1.35s1.26-2.37,1.26-4.39v-21.44h7.92Z"/>
      <path class="st0" d="M534.21,366.88h-4.28v11.61h-7.91v-32.82h12.91c3.89,0,6.94.86,9.13,2.59,2.19,1.72,3.29,4.16,3.29,7.32,0,2.28-.46,4.17-1.39,5.67s-2.37,2.72-4.34,3.65l6.85,13.25v.34h-8.47l-5.8-11.61h.01ZM529.93,360.8h5c1.5,0,2.64-.4,3.39-1.19.76-.79,1.14-1.9,1.14-3.32s-.38-2.52-1.15-3.33c-.77-.8-1.89-1.21-3.38-1.21h-5v9.04h0Z"/>
      <path class="st0" d="M582.19,374.43c-1.22,1.35-3,2.44-5.34,3.27s-4.91,1.24-7.71,1.24c-4.3,0-7.73-1.31-10.3-3.94s-3.94-6.29-4.12-10.98l-.02-2.84c0-3.23.57-6.05,1.71-8.47,1.14-2.41,2.78-4.26,4.9-5.56,2.13-1.3,4.59-1.96,7.38-1.96,4.09,0,7.26.94,9.52,2.81s3.58,4.66,3.96,8.37h-7.62c-.27-1.83-.86-3.14-1.76-3.92s-2.18-1.17-3.83-1.17c-1.98,0-3.52.84-4.6,2.52s-1.63,4.09-1.65,7.21v1.98c0,3.28.56,5.74,1.68,7.38,1.12,1.65,2.88,2.47,5.29,2.47,2.06,0,3.59-.46,4.6-1.38v-5.09h-5.5v-5.43h13.41v13.48h0Z"/>
    </g>
  </g>
</svg>