<?xml version="1.0" encoding="UTF-8"?>
<svg id="Layer_1" xmlns="http://www.w3.org/2000/svg" version="1.1" xmlns:xlink="http://www.w3.org/1999/xlink" viewBox="0 0 1984.25 502.5">
  <!-- Generator: Adobe Illustrator 29.6.1, SVG Export Plug-In . SVG Version: 2.1.1 Build 9)  -->
  <defs>
    <style>
      .st0 {
        fill: #fff;
      }

      .st1 {
        clip-path: url(#clippath-1);
      }

      .st2 {
        clip-path: url(#clippath);
      }
    </style>
    <clipPath id="clippath">
      <path class="st0" d="M434.25,170.73c-9.26,10.68-2.2,19.73,3.73,23.67,2.02,1.58,4.05,2.62,5.44,2.96l-.15-1.11c-.96-8.27,8.19-9.55,14.14-5.9,5.74,4.76,6.5,15.03-14.46,28.22-5.78,3.64-11.49,7.16-17.12,10.65l-.34,14.05c2.58,1.95,5.11,3.93,7.51,5.99.55.48,1.04.95,1.58,1.43,14.74-7.55,29.62-14.62,39.22-23.11,17.78-15.72,22.82-38.62,4.86-55.02-1.17-1.07-2.39-1.99-3.63-2.84-6.34-4.84-13.53-6.75-20.2-6.75-8.84,0-16.76,3.36-20.56,7.76"/>
    </clipPath>
    <clipPath id="clippath-1">
      <path class="st0" d="M340.11,171.37c-2.62,2.39-4.69,4.92-6.36,7.55-11.29,15.66-5.57,35.18,10.16,49.08.66.58,1.34,1.15,2.05,1.73,10.87,8.61,27.73,16.49,43.56,24.92,0,0,21.48,12.04,28.54,18.01v-.02c8.36,7.09,13.59,14.88,12.76,23.87-.32,3.44-2.46,8.31-6.97,13.61l-.43,17.88c.46.32.97.68,1.53,1.07l2.07,1.44c14.98-10.76,26.83-24.33,22.66-46.07-.93-4.91-3.01-9.57-6.01-14.06-3.96-5.66-9.3-11.1-15.05-16.04-8.85-7.61-19.04-14.29-30.55-21.4v.06c-2.88-1.81-5.86-3.65-8.84-5.48-1.54-.94-3.08-1.88-4.66-2.84h.08c-3.39-2.09-6.78-4.19-10.19-6.34-42.84-26.97,5-41.75.87-22.17,5.22-1.28,19.51-12.18,7.83-25.66-3.81-4.4-11.76-7.78-20.62-7.78-7.48,0-15.6,2.41-22.44,8.65"/>
    </clipPath>
  </defs>
  <g>
    <g>
      <path class="st0" d="M893.78,339.69c-.18,4.21-1.31,7.93-3.41,11.15-2.08,3.23-4.99,5.73-8.75,7.51-3.74,1.77-8.04,2.66-12.87,2.66-7.95,0-14.21-2.59-18.79-7.77-4.57-5.18-6.86-12.5-6.86-21.95v-2.99c0-5.93,1.04-11.12,3.1-15.56,2.07-4.45,5.04-7.89,8.92-10.31,3.89-2.42,8.38-3.64,13.47-3.64,7.35,0,13.24,1.93,17.71,5.8,4.45,3.86,6.99,9.19,7.6,15.98h-14.53c-.12-3.68-1.05-6.34-2.79-7.94-1.76-1.61-4.4-2.41-7.99-2.41s-6.28,1.36-7.99,4.07c-1.69,2.72-2.57,7.05-2.65,13.02v4.28c0,6.46.81,11.07,2.44,13.84,1.61,2.77,4.4,4.15,8.36,4.15,3.35,0,5.93-.79,7.7-2.37s2.72-4.08,2.82-7.52h14.5Z"/>
      <path class="st0" d="M957.17,360.18h-14.51v-25.27h-21.49v25.27h-14.59v-60.52h14.59v24.02h21.49v-24.02h14.51v60.52Z"/>
      <path class="st0" d="M1006.65,348.87h-19.99l-3.49,11.3h-15.59l22.19-60.52h13.72l22.36,60.52h-15.67l-3.53-11.3ZM990.16,337.6h13.01l-6.53-20.99-6.48,20.99Z"/>
      <path class="st0" d="M1055.32,299.66l13.51,42.1,13.47-42.1h19.2v60.52h-14.63v-14.14l1.41-28.93-14.62,43.06h-9.65l-14.68-43.11,1.41,28.97v14.14h-14.59v-60.52h19.17Z"/>
      <path class="st0" d="M1116.65,360.18v-60.52h21.74c7.79,0,13.71,1.42,17.77,4.28,4.06,2.86,6.09,7,6.09,12.43,0,3.13-.72,5.8-2.17,8.02-1.44,2.22-3.56,3.85-6.35,4.91,3.16.83,5.58,2.38,7.27,4.65,1.69,2.27,2.54,5.05,2.54,8.31,0,5.93-1.87,10.38-5.63,13.36-3.75,2.98-9.32,4.5-16.68,4.55h-24.57ZM1131.24,324.89h7.61c3.19-.03,5.46-.61,6.81-1.75,1.36-1.14,2.03-2.82,2.03-5.05,0-2.56-.73-4.39-2.2-5.52-1.46-1.13-3.83-1.69-7.11-1.69h-7.15v14.01ZM1131.24,334.44v14.51h9.57c2.64,0,4.66-.6,6.07-1.81,1.41-1.2,2.12-2.9,2.12-5.08,0-5.05-2.51-7.58-7.52-7.61h-10.23Z"/>
      <path class="st0" d="M1214.98,334.49h-22.95v14.46h27.11v11.22h-41.7v-60.52h41.78v11.26h-27.19v12.76h22.95v10.81Z"/>
      <path class="st0" d="M1253.45,338.77h-7.9v21.4h-14.59v-60.52h23.82c7.18,0,12.8,1.59,16.84,4.77,4.04,3.19,6.06,7.68,6.06,13.5,0,4.21-.85,7.69-2.56,10.46s-4.37,5-7.99,6.73l12.64,24.44v.62h-15.63l-10.68-21.4ZM1245.55,327.55h9.23c2.78,0,4.86-.73,6.26-2.19,1.4-1.46,2.1-3.49,2.1-6.1s-.71-4.66-2.12-6.14c-1.41-1.49-3.49-2.24-6.24-2.24h-9.23v16.67Z"/>
      <path class="st0" d="M1367.73,331.16c0,5.91-1.09,11.13-3.28,15.67-2.19,4.55-5.3,8.05-9.33,10.5-4.03,2.45-8.62,3.68-13.77,3.68s-9.73-1.19-13.72-3.56c-3.99-2.37-7.11-5.76-9.33-10.16-2.23-4.41-3.4-9.47-3.51-15.17v-3.41c0-5.93,1.09-11.16,3.27-15.69,2.17-4.53,5.29-8.03,9.35-10.5,4.06-2.47,8.68-3.7,13.86-3.7s9.7,1.22,13.72,3.66,7.14,5.91,9.37,10.42c2.24,4.5,3.36,9.66,3.39,15.48v2.79ZM1352.89,328.63c0-6.02-1-10.59-3.02-13.7-2.01-3.11-4.88-4.68-8.62-4.68-7.31,0-11.18,5.48-11.6,16.46l-.04,4.45c0,5.94.98,10.49,2.95,13.67,1.97,3.19,4.89,4.78,8.78,4.78,3.68,0,6.52-1.56,8.52-4.69s3.01-7.63,3.03-13.51v-2.78Z"/>
      <path class="st0" d="M1419.26,336.07h-23.53v24.11h-14.59v-60.52h40.49v11.26h-25.9v13.92h23.53v11.22Z"/>
      <path class="st0" d="M1506.64,339.69c-.19,4.21-1.32,7.93-3.41,11.15-2.08,3.23-5,5.73-8.75,7.51-3.75,1.77-8.04,2.66-12.87,2.66-7.95,0-14.22-2.59-18.79-7.77-4.57-5.18-6.86-12.5-6.86-21.95v-2.99c0-5.93,1.04-11.12,3.1-15.56,2.07-4.45,5.04-7.89,8.92-10.31,3.88-2.42,8.37-3.64,13.47-3.64,7.34,0,13.24,1.93,17.7,5.8,4.46,3.86,7,9.19,7.6,15.98h-14.54c-.12-3.68-1.04-6.34-2.79-7.94s-4.4-2.41-7.98-2.41-6.29,1.36-7.99,4.07c-1.69,2.72-2.57,7.05-2.65,13.02v4.28c0,6.46.81,11.07,2.43,13.84,1.61,2.77,4.41,4.15,8.37,4.15,3.35,0,5.92-.79,7.69-2.37s2.72-4.08,2.83-7.52h14.5Z"/>
      <path class="st0" d="M1570.68,331.16c0,5.91-1.09,11.13-3.28,15.67-2.19,4.55-5.3,8.05-9.33,10.5-4.03,2.45-8.62,3.68-13.77,3.68s-9.73-1.19-13.72-3.56c-3.99-2.37-7.11-5.76-9.33-10.16-2.23-4.41-3.4-9.47-3.51-15.17v-3.41c0-5.93,1.09-11.16,3.27-15.69,2.17-4.53,5.29-8.03,9.35-10.5,4.06-2.47,8.68-3.7,13.86-3.7s9.7,1.22,13.72,3.66c4.02,2.44,7.14,5.91,9.37,10.42,2.24,4.5,3.36,9.66,3.39,15.48v2.79ZM1555.85,328.63c0-6.02-1-10.59-3.02-13.7-2.01-3.11-4.88-4.68-8.62-4.68-7.31,0-11.18,5.48-11.6,16.46l-.04,4.45c0,5.94.98,10.49,2.95,13.67,1.97,3.19,4.89,4.78,8.78,4.78,3.68,0,6.52-1.56,8.52-4.69s3.01-7.63,3.03-13.51v-2.78Z"/>
      <path class="st0" d="M1603.26,299.66l13.51,42.1,13.47-42.1h19.2v60.52h-14.63v-14.14l1.41-28.93-14.62,43.06h-9.65l-14.68-43.11,1.41,28.97v14.14h-14.59v-60.52h19.17Z"/>
      <path class="st0" d="M1683.76,299.66l13.51,42.1,13.47-42.1h19.2v60.52h-14.63v-14.14l1.41-28.93-14.62,43.06h-9.65l-14.68-43.11,1.41,28.97v14.14h-14.59v-60.52h19.17Z"/>
      <path class="st0" d="M1782.62,334.49h-22.95v14.46h27.11v11.22h-41.7v-60.52h41.78v11.26h-27.19v12.76h22.95v10.81Z"/>
      <path class="st0" d="M1821.09,338.77h-7.9v21.4h-14.59v-60.52h23.82c7.18,0,12.8,1.59,16.84,4.77,4.04,3.19,6.06,7.68,6.06,13.5,0,4.21-.85,7.69-2.56,10.46s-4.37,5-7.99,6.73l12.64,24.44v.62h-15.63l-10.68-21.4ZM1813.19,327.55h9.23c2.78,0,4.86-.73,6.26-2.19,1.4-1.46,2.1-3.49,2.1-6.1s-.71-4.66-2.12-6.14c-1.41-1.49-3.49-2.24-6.24-2.24h-9.23v16.67Z"/>
      <path class="st0" d="M1908.99,339.69c-.19,4.21-1.32,7.93-3.41,11.15-2.08,3.23-5,5.73-8.75,7.51-3.75,1.77-8.04,2.66-12.87,2.66-7.95,0-14.22-2.59-18.79-7.77-4.57-5.18-6.86-12.5-6.86-21.95v-2.99c0-5.93,1.04-11.12,3.1-15.56,2.07-4.45,5.04-7.89,8.92-10.31,3.88-2.42,8.37-3.64,13.47-3.64,7.34,0,13.24,1.93,17.7,5.8,4.46,3.86,7,9.19,7.6,15.98h-14.54c-.12-3.68-1.04-6.34-2.79-7.94s-4.4-2.41-7.98-2.41-6.29,1.36-7.99,4.07c-1.69,2.72-2.57,7.05-2.65,13.02v4.28c0,6.46.81,11.07,2.43,13.84,1.61,2.77,4.41,4.15,8.37,4.15,3.35,0,5.92-.79,7.69-2.37s2.72-4.08,2.83-7.52h14.5Z"/>
      <path class="st0" d="M1959.31,334.49h-22.95v14.46h27.11v11.22h-41.7v-60.52h41.78v11.26h-27.19v12.76h22.95v10.81Z"/>
      <path class="st0" d="M879.2,451.02h-19.98l-3.5,11.3h-15.59l22.19-60.52h13.72l22.36,60.52h-15.67l-3.53-11.3ZM862.71,439.75h13.01l-6.53-20.99-6.48,20.99Z"/>
      <path class="st0" d="M959.24,462.33h-14.5l-21.46-37.66v37.66h-14.59v-60.52h14.59l21.41,37.66v-37.66h14.54v60.52Z"/>
      <path class="st0" d="M974.36,462.33v-60.52h19.49c5.35,0,10.16,1.21,14.43,3.63,4.27,2.43,7.6,5.85,9.99,10.28,2.4,4.42,3.61,9.37,3.64,14.85v2.79c0,5.55-1.17,10.51-3.51,14.9s-5.63,7.84-9.89,10.31c-4.25,2.48-9,3.74-14.23,3.76h-19.91ZM988.95,413.07v38.03h5.08c4.18,0,7.4-1.49,9.65-4.46,2.24-2.98,3.36-7.41,3.36-13.28v-2.62c0-5.85-1.12-10.26-3.36-13.22-2.24-2.96-5.52-4.45-9.81-4.45h-4.91Z"/>
      <path class="st0" d="M1074.92,462.33h-14.54v-60.52h14.54v60.52Z"/>
      <path class="st0" d="M1141.49,462.33h-14.5l-21.46-37.66v37.66h-14.59v-60.52h14.59l21.41,37.66v-37.66h14.54v60.52Z"/>
      <path class="st0" d="M1156.61,462.33v-60.52h19.49c5.35,0,10.16,1.21,14.43,3.63,4.27,2.43,7.6,5.85,9.99,10.28,2.4,4.42,3.61,9.37,3.64,14.85v2.79c0,5.55-1.17,10.51-3.51,14.9s-5.63,7.84-9.89,10.31c-4.25,2.48-9,3.74-14.23,3.76h-19.91ZM1171.19,413.07v38.03h5.08c4.18,0,7.4-1.49,9.65-4.46,2.24-2.98,3.36-7.41,3.36-13.28v-2.62c0-5.85-1.12-10.26-3.36-13.22s-5.52-4.45-9.81-4.45h-4.91Z"/>
      <path class="st0" d="M1265,401.81v39.61c0,4.49-.96,8.38-2.87,11.66-1.92,3.28-4.66,5.79-8.23,7.5-3.58,1.72-7.8,2.58-12.68,2.58-7.36,0-13.18-1.92-17.41-5.74-4.24-3.82-6.41-9.06-6.49-15.71v-39.9h14.67v40.19c.17,6.63,3.25,9.94,9.23,9.94,3.03,0,5.31-.83,6.86-2.49,1.55-1.67,2.33-4.37,2.33-8.11v-39.52h14.59Z"/>
      <path class="st0" d="M1311.21,446.24c0-2.13-.75-3.8-2.26-4.99s-4.16-2.42-7.96-3.7c-3.8-1.27-6.9-2.5-9.31-3.7-7.84-3.85-11.77-9.14-11.77-15.87,0-3.35.98-6.31,2.93-8.87s4.72-4.56,8.3-5.99c3.58-1.43,7.59-2.14,12.05-2.14s8.25.77,11.7,2.32,6.13,3.76,8.04,6.63c1.92,2.87,2.87,6.15,2.87,9.83h-14.54c0-2.47-.75-4.37-2.26-5.73-1.52-1.36-3.56-2.04-6.13-2.04s-4.67.58-6.18,1.73c-1.51,1.14-2.26,2.61-2.26,4.38,0,1.55.83,2.95,2.49,4.21,1.66,1.26,4.59,2.56,8.77,3.91,4.19,1.34,7.62,2.79,10.31,4.34,6.54,3.77,9.81,8.96,9.81,15.59,0,5.29-1.99,9.45-5.98,12.47-3.99,3.03-9.47,4.53-16.42,4.53-4.91,0-9.35-.88-13.33-2.64-3.98-1.76-6.97-4.17-8.98-7.23-2.01-3.06-3.01-6.58-3.01-10.58h14.63c0,3.24.83,5.63,2.51,7.17s4.4,2.31,8.17,2.31c2.4,0,4.31-.52,5.71-1.56,1.39-1.04,2.09-2.49,2.09-4.38Z"/>
      <path class="st0" d="M1386.67,413.07h-18.16v49.26h-14.59v-49.26h-17.83v-11.26h50.58v11.26Z"/>
      <path class="st0" d="M1421.19,440.92h-7.9v21.4h-14.59v-60.52h23.82c7.18,0,12.8,1.59,16.84,4.77,4.04,3.19,6.06,7.68,6.06,13.5,0,4.21-.85,7.69-2.56,10.46-1.7,2.77-4.37,5-7.99,6.73l12.64,24.44v.62h-15.63l-10.68-21.4ZM1413.3,429.7h9.23c2.78,0,4.86-.73,6.26-2.19,1.4-1.46,2.1-3.49,2.1-6.1s-.71-4.66-2.12-6.14c-1.41-1.49-3.49-2.24-6.24-2.24h-9.23v16.67Z"/>
      <path class="st0" d="M1482.29,428.07l11.14-26.27h15.76l-19.49,38.78v21.74h-14.8v-21.74l-19.45-38.78h15.67l11.18,26.27Z"/>
    </g>
    <g>
      <path class="st0" d="M871.29,236.99c0-2.13-.75-3.8-2.26-4.99s-4.16-2.42-7.96-3.7c-3.8-1.27-6.9-2.5-9.32-3.7-7.84-3.85-11.76-9.14-11.76-15.87,0-3.35.98-6.31,2.93-8.87s4.72-4.56,8.29-5.99c3.58-1.43,7.6-2.14,12.06-2.14s8.25.77,11.7,2.32,6.13,3.76,8.04,6.63c1.92,2.87,2.87,6.15,2.87,9.83h-14.54c0-2.47-.75-4.37-2.26-5.73-1.52-1.36-3.56-2.04-6.13-2.04s-4.67.58-6.18,1.73c-1.51,1.14-2.27,2.61-2.27,4.38,0,1.55.83,2.95,2.5,4.21,1.66,1.27,4.58,2.56,8.77,3.91,4.19,1.34,7.62,2.79,10.31,4.34,6.54,3.77,9.81,8.96,9.81,15.59,0,5.29-2,9.45-5.98,12.47-3.99,3.03-9.47,4.53-16.42,4.53-4.91,0-9.35-.88-13.33-2.64-3.98-1.76-6.97-4.17-8.98-7.23-2.01-3.06-3.01-6.58-3.01-10.58h14.62c0,3.24.84,5.63,2.52,7.17s4.4,2.31,8.17,2.31c2.4,0,4.31-.52,5.71-1.56,1.39-1.04,2.09-2.49,2.09-4.38Z"/>
      <path class="st0" d="M933.63,241.77h-19.99l-3.49,11.3h-15.59l22.19-60.52h13.72l22.36,60.52h-15.67l-3.53-11.3ZM917.13,230.5h13.01l-6.53-20.99-6.48,20.99Z"/>
      <path class="st0" d="M978.67,253.07h-14.54v-60.52h14.54v60.52Z"/>
      <path class="st0" d="M1045.24,253.07h-14.5l-21.46-37.66v37.66h-14.59v-60.52h14.59l21.41,37.66v-37.66h14.54v60.52Z"/>
      <path class="st0" d="M1107.86,203.82h-18.16v49.26h-14.59v-49.26h-17.83v-11.26h50.58v11.26Z"/>
      <path class="st0" d="M1145.13,232.37h-24.98v-10.81h24.98v10.81Z"/>
      <path class="st0" d="M1175.67,232.54v20.53h-14.59v-60.52h24.15c4.62,0,8.72.85,12.28,2.56s6.32,4.13,8.27,7.28c1.95,3.14,2.93,6.71,2.93,10.7,0,5.9-2.11,10.62-6.34,14.15-4.22,3.53-10.03,5.3-17.39,5.3h-9.32ZM1175.67,221.28h9.57c2.82,0,4.98-.71,6.46-2.12,1.48-1.42,2.23-3.41,2.23-5.99,0-2.82-.76-5.08-2.29-6.77-1.53-1.69-3.6-2.56-6.23-2.58h-9.73v17.46Z"/>
      <path class="st0" d="M1259.91,227.38h-22.95v14.46h27.11v11.22h-41.7v-60.52h41.78v11.26h-27.19v12.76h22.95v10.81Z"/>
      <path class="st0" d="M1323.4,203.82h-18.16v49.26h-14.59v-49.26h-17.83v-11.26h50.58v11.26Z"/>
      <path class="st0" d="M1372.98,227.38h-22.95v14.46h27.11v11.22h-41.7v-60.52h41.78v11.26h-27.19v12.76h22.95v10.81Z"/>
      <path class="st0" d="M1411.45,231.67h-7.9v21.4h-14.59v-60.52h23.82c7.18,0,12.79,1.59,16.83,4.77,4.05,3.19,6.07,7.68,6.07,13.5,0,4.21-.85,7.69-2.56,10.46s-4.37,5-7.99,6.73l12.64,24.44v.62h-15.63l-10.68-21.4ZM1403.55,220.45h9.23c2.78,0,4.86-.73,6.26-2.19,1.4-1.46,2.1-3.49,2.1-6.1s-.71-4.66-2.12-6.14c-1.41-1.49-3.49-2.24-6.24-2.24h-9.23v16.67Z"/>
      <path class="st0" d="M1481.59,236.99c0-2.13-.75-3.8-2.26-4.99s-4.16-2.42-7.96-3.7c-3.8-1.27-6.9-2.5-9.31-3.7-7.84-3.85-11.77-9.14-11.77-15.87,0-3.35.98-6.31,2.93-8.87s4.72-4.56,8.3-5.99c3.57-1.43,7.59-2.14,12.05-2.14s8.25.77,11.7,2.32,6.13,3.76,8.04,6.63c1.92,2.87,2.87,6.15,2.87,9.83h-14.54c0-2.47-.75-4.37-2.26-5.73-1.52-1.36-3.56-2.04-6.13-2.04s-4.67.58-6.18,1.73c-1.51,1.14-2.26,2.61-2.26,4.38,0,1.55.83,2.95,2.49,4.21,1.66,1.27,4.59,2.56,8.77,3.91,4.19,1.34,7.62,2.79,10.31,4.34,6.54,3.77,9.81,8.96,9.81,15.59,0,5.29-2,9.45-5.98,12.47-3.99,3.03-9.47,4.53-16.42,4.53-4.91,0-9.35-.88-13.33-2.64-3.98-1.76-6.97-4.17-8.98-7.23-2.01-3.06-3.01-6.58-3.01-10.58h14.63c0,3.24.83,5.63,2.51,7.17s4.4,2.31,8.17,2.31c2.4,0,4.31-.52,5.71-1.56,1.39-1.04,2.09-2.49,2.09-4.38Z"/>
      <path class="st0" d="M1509.56,253.07v-60.52h21.74c7.79,0,13.71,1.43,17.77,4.28,4.06,2.86,6.09,7,6.09,12.43,0,3.13-.72,5.8-2.17,8.02-1.44,2.22-3.56,3.85-6.35,4.91,3.16.83,5.58,2.38,7.27,4.65,1.69,2.27,2.54,5.05,2.54,8.31,0,5.93-1.87,10.38-5.63,13.36-3.75,2.98-9.32,4.5-16.68,4.55h-24.57ZM1524.14,217.78h7.61c3.19-.03,5.46-.61,6.81-1.75,1.36-1.14,2.03-2.82,2.03-5.05,0-2.56-.73-4.39-2.2-5.52-1.46-1.13-3.83-1.69-7.11-1.69h-7.15v14.01ZM1524.14,227.34v14.51h9.57c2.63,0,4.65-.6,6.07-1.81,1.41-1.2,2.12-2.9,2.12-5.08,0-5.05-2.51-7.58-7.52-7.61h-10.23Z"/>
      <path class="st0" d="M1617.82,192.56v39.61c0,4.49-.96,8.38-2.87,11.66-1.91,3.28-4.65,5.79-8.23,7.5-3.58,1.72-7.8,2.58-12.68,2.58-7.36,0-13.18-1.92-17.41-5.74-4.24-3.82-6.41-9.06-6.49-15.71v-39.9h14.67v40.19c.17,6.63,3.25,9.94,9.23,9.94,3.03,0,5.31-.83,6.86-2.49s2.33-4.37,2.33-8.11v-39.52h14.59Z"/>
      <path class="st0" d="M1655.29,231.67h-7.9v21.4h-14.59v-60.52h23.82c7.18,0,12.79,1.59,16.83,4.77s6.07,7.68,6.07,13.5c0,4.21-.85,7.69-2.56,10.46s-4.37,5-7.99,6.73l12.64,24.44v.62h-15.63l-10.68-21.4ZM1647.39,220.45h9.23c2.78,0,4.86-.73,6.26-2.19,1.4-1.46,2.1-3.49,2.1-6.1s-.71-4.66-2.12-6.14c-1.41-1.49-3.49-2.24-6.24-2.24h-9.23v16.67Z"/>
      <path class="st0" d="M1743.78,245.59c-2.24,2.49-5.53,4.5-9.85,6.03s-9.06,2.29-14.22,2.29c-7.92,0-14.26-2.43-19-7.28-4.74-4.85-7.28-11.6-7.6-20.24l-.04-5.24c0-5.95,1.06-11.15,3.16-15.6,2.1-4.45,5.12-7.87,9.04-10.27,3.92-2.4,8.46-3.6,13.61-3.6,7.53,0,13.39,1.73,17.56,5.18,4.17,3.44,6.6,8.59,7.29,15.44h-14.05c-.5-3.38-1.58-5.79-3.24-7.23-1.67-1.45-4.02-2.17-7.07-2.17-3.66,0-6.48,1.55-8.47,4.66s-3.01,7.53-3.03,13.3v3.66c0,6.04,1.03,10.58,3.1,13.61,2.06,3.03,5.31,4.55,9.74,4.55,3.8,0,6.62-.84,8.48-2.54v-9.39h-10.14v-10.02h24.73v24.85Z"/>
    </g>
  </g>
  <g>
    <g>
      <path class="st0" d="M492.65,182.65l41.28-31.07,3.85,4.7-4.78,3.41c-.77-.2-1.6-.34-2.58-.21-1.87.23-3.95,1.06-5.86,2.34-2.83,1.88-4.79,4.38-5.25,6.67-.25,1.23-.06,2.35.56,3.27.82,1.24,2.25,1.89,4.08,1.89.33,0,.68-.02,1.04-.07,1.87-.23,3.95-1.06,5.86-2.34,3.98-2.65,5.84-6.27,4.98-8.94l10.04-7.17c.85-.61,1.04-1.78.44-2.63-.6-.85-1.78-1.04-2.63-.44l-2.83,2.02-3.91-4.78,4.21-3.17c.81-.61.99-1.76.4-2.6-.6-.85-1.78-1.05-2.63-.44l-49.06,34.9s1.34,1.74,2.79,4.65Z"/>
      <path class="st0" d="M529.8,208.62s120.01,233.08,120.01,235.19l52.74-.79-37.82-71.15c0-.07-83.23-160.99-91.95-177.85l31.7-21.92,2.51,3.51-3.39,2.1c-1.83-.52-4.25-.16-6.77,1.29-1.61.93-2.95,2.14-3.79,3.42-1.08,1.64-1.26,3.33-.5,4.63.73,1.27,2.13,1.91,3.85,1.91,1.57,0,3.41-.53,5.27-1.6,3.29-1.91,4.96-4.6,4.58-6.86l7.9-4.91c.88-.55,1.16-1.71.61-2.59-.55-.88-1.71-1.15-2.59-.61l-1.96,1.22-2.62-3.66,6.24-4.32c.83-.58,1.06-1.72.51-2.58-.57-.87-1.73-1.12-2.61-.55l-53.13,34.54-65.31-13.07c2.52,5.65,4.86,14.79.75,25.44-.79,2.04-1.55,3.76-2.3,5.38l11.56,21.3-6.25,3.47c-2.75-6.3-5.61-12.53-8.49-18.73-2.26,3.66-4.2,5.58-5.6,6.55,32.35,72.95,65.35,180.18,70.35,216.23l8.58.54c-.15.62-.07-1.43.38-.91.41.47.98.71,1.56.71.47,0,.95-.16,1.34-.5l13.71-11.79c.11-.09.17-.22.25-.33,14.57,4.18,31.61,9.07,32.19,9.23.18.05.36.07.53.07.31,0,.57-.16.84-.28.98,1.88,1.54,2.97,1.54,2.97l9.19,2.76c9.46.02,22.33-2.76,22.33-2.76l-119.25-233c-.45-.9-.15-2.03.83-2.56.9-.45,2.03-.08,2.49.83ZM599.56,321.1c-.23.15-.53.23-.83.23-.68,0-1.36-.38-1.66-1.05l-26.52-52.21c-.45-.9-.15-2.03.83-2.56.9-.45,2.03-.07,2.49.83l26.52,52.28c.53.9.15,2.03-.83,2.49ZM616.28,353.72c-.3.15-.6.23-.9.23-.68,0-1.36-.3-1.66-.98l-10.55-19.96c-.53-.9-.15-2.03.75-2.56.9-.45,2.03-.15,2.56.83l10.55,19.96c.53.9.15,2.03-.75,2.49ZM694.7,438.71l-8.43.9-10.07-18.41,6.95-3.67,11.55,21.18ZM681.18,413.93l-6.96,3.67-9.63-17.61,6.98-3.68,9.61,17.62ZM669.6,392.69l-6.98,3.69-8.59-15.69,7.01-3.69,8.56,15.7ZM658.47,371.95l-7.08,3.77-7.91-15.59,7.08-3.39,7.91,15.22ZM648.83,353.42l-7.08,3.31-7.46-14.62,6.86-3.54,7.68,14.84ZM639.41,335.18l-6.86,3.62-7.16-14.09,6.78-3.54,7.23,14.01ZM630.45,317.86l-6.78,3.47-7.31-14.39,6.63-3.54,7.46,14.46ZM621.25,300.08l-6.63,3.54-7.46-14.69,6.78-3.01,7.31,14.16ZM612.21,282.6l-6.78,3.01-6.78-13.33,6.33-3.62,7.23,13.94ZM603.25,265.35l-6.33,3.54-7.61-14.92,6.25-3.47,7.68,14.84ZM593.83,247.11l-6.18,3.54-6.78-13.26,6.03-3.69,6.93,13.41ZM585.17,230.31l-6.03,3.69-7.01-13.71,5.88-3.77,7.16,13.79ZM568.05,197.29l8.22,15.85-5.8,3.84-8.04-15.81,5.62-3.88ZM498.53,243.05l6.55-3.62,10.62,19.44-8.51,5.12c-2.79-6.93-5.65-13.94-8.66-20.94ZM508.63,267.53l8.81-5.35,6.33,11.6.3.45c0,.08.3.68.3.68l.02.03c-.37.2-10.26,6.6-10.26,6.6-1.73-4.6-3.62-9.27-5.5-14.01ZM524.3,308.74l15.9,4.14-10.92,9.79c-1.58-4.45-3.24-9.12-4.97-13.94ZM531.9,330.29l15.44,4.82-10.85,8.66c-1.43-4.22-2.94-8.74-4.6-13.49ZM539.06,351.68l14.69,4.22-10.47,8.89c-1.13-3.77-2.56-8.14-4.22-13.11ZM545.13,370.61c2.91.83,7.36,2.11,12.44,3.57l-9.02,7.76c-1.74-5.76-3.01-9.99-3.41-11.33ZM550.99,390.05c2.9.83,7.04,2.02,11.7,3.36l-8.49,7.3c-1.11-3.68-2.19-7.29-3.21-10.66ZM556.57,408.63c2.82.81,6.59,1.89,10.77,3.09l-7.82,6.73c-.95-3.17-1.94-6.48-2.95-9.82ZM565.34,437.89c-.81-2.73-2.01-6.73-3.43-11.46,2.9.83,7.41,2.13,12.56,3.6l-9.13,7.85ZM610.44,436.07c-7.21-2.06-33.03-9.47-48.81-14l10.11-8.69c.11-.09.17-.22.25-.32,12.69,3.64,27.23,7.81,31.16,8.93,2.81,5.43,5.35,10.33,7.3,14.09ZM600.54,416.97c-9.2-2.63-29.98-8.6-44.2-12.68l10.72-9.22c.11-.09.17-.22.25-.33,9.07,2.6,19.08,5.48,25.5,7.32,2.53,4.89,5.18,10,7.72,14.91ZM590.22,397.03c-10.84-3.11-27.83-7.99-39.68-11.38l11.41-9.81c.11-.09.17-.22.25-.33,6.7,1.92,13.92,4,19.83,5.69,1.97,3.81,4.89,9.45,8.19,15.83ZM574.62,367.35l4.82,8.81s0,.01,0,.02c-10.05-2.88-22.9-6.57-32.68-9.38l11.28-9.7,13.03,3.69c0,.07,3.54,6.55,3.54,6.55ZM566.86,353.04l.9,1.66.82,1.56c-.99-.26-30.65-8.79-30.65-8.79l13.79-11.08,7.31,2.34,7.83,14.31ZM545.84,314.39l1.21,2.19,1.96,3.62.98,1.73,4.52,8.36c.15.3.75,1.43.75,1.43.15.3,1.15,2.15,1.19,2.23-.99-.29-25.37-7.88-25.37-7.88l13.48-12.05,1.28.38ZM543.34,309.85c-.95-.23-20.55-5.4-20.55-5.4q-.08,0-.08-.08l12.96-8.74,7.67,14.22ZM533.86,292.32l-12.51,8.44c-1.81-5.12-3.77-10.32-5.8-15.6l10.62-6.93,3.84,7.01,3.84,7.08ZM529.04,236.79c.45.9.15,2.03-.75,2.56-.3.15-.6.23-.9.23-.68,0-1.36-.38-1.66-1.05l-21.02-39.33c-.45-.98-.15-2.11.83-2.56.9-.53,2.03-.15,2.49.75l21.02,39.4Z"/>
    </g>
    <rect class="st0" x="20.7" y="442.23" width="786.8" height="20.81"/>
    <path class="st0" d="M257.52,200.18l-.75-.45-14.92-9.72c-.9-.6-2.11-.75-3.16-.45-.98.3-1.88,1.05-2.34,2.11l-110.7,249.91h8.36l2.49-5.84,38.47-5.06,8.33,8.32c.4.4.93.6,1.45.6s1.05-.2,1.46-.6c.8-.81.8-2.11,0-2.91l-6.09-6.08.72-.09c1.12-.15,1.92-1.18,1.77-2.31-.15-1.12-1.15-1.93-2.31-1.77l-3.85.51-11.94-11.92,16.83-2.21,4.43,4.42c.4.4.93.6,1.45.6s1.05-.2,1.46-.6c.8-.81.8-2.11,0-2.91l-2.67-2.67c.37-.43.57-.99.49-1.59-.15-1.13-1.17-1.92-2.31-1.77l-1.37.18-11.37-11.35,14.84-1.95,4.07,4.06c.4.4.93.6,1.45.6s1.05-.2,1.46-.6c.8-.8.8-2.1,0-2.91l-1.83-1.83.98-.13c1.12-.15,1.92-1.18,1.77-2.31-.15-1.12-1.15-1.94-2.31-1.77l-4.11.54-10.35-10.33,15.19-2,4.07,4.06c.4.4.93.6,1.45.6s1.05-.2,1.46-.6c.8-.81.8-2.11,0-2.91l-1.83-1.83.98-.13c1.12-.15,1.92-1.18,1.77-2.31-.15-1.12-1.16-1.94-2.31-1.77l-4.11.54-11.37-11.36,10.56-1.38,6.25-.83c.75-.15,1.36-.6,1.58-1.28.23-.68.08-1.43-.45-1.88l-4.67-4.9-8.81-9.27,12.43-1.88,6.25-.9c.68-.15,1.28-.6,1.51-1.28.23-.68.08-1.43-.45-1.88l-4.52-4.52-8.21-8.29,11.6-1.88,5.8-.98c.6-.15,1.13-.53,1.36-1.13.3-.53.23-1.21-.08-1.73l-3.84-5.95-5.42-8.51,8.66-.9,6.1-.6c.6-.08,1.21-.45,1.43-1.05.3-.53.3-1.21,0-1.81l-3.99-6.71-4.82-8.21,8.29-1.28,6.71-1.05c1.05-.15,1.73-1.13,1.58-2.11-.15-1.05-1.13-1.73-2.18-1.58l-4.67.75-16.65,2.56,7.76-17.1,12.36,5.05,2.86,1.21c.23.08.45.15.68.15.75,0,1.43-.45,1.73-1.13.45-.98,0-2.11-.98-2.49l-3.01-1.21-12.13-4.97,5.88-13.03,11.75,3.69,2.79.83c.23.08.38.08.6.08.75,0,1.51-.53,1.81-1.28.3-1.05-.3-2.11-1.28-2.41l-2.49-.75-11.68-3.62,6.55-14.39,10.4,4.6,2.49,1.05c.23.08.53.15.75.15.75,0,1.43-.45,1.73-1.13.45-.98,0-2.03-.98-2.49l-2.56-1.13-10.32-4.52,12.66-28.1,9.27,5.95,2.79,1.81c1.73,1.13,4.07.6,5.2-1.13,1.13-1.73.6-4.07-1.13-5.2ZM177.64,362.91s.04.07.07.1l11.22,11.21-15.58,2.05c-.51-.13-1.03-.06-1.5.2l-10.72,1.41,5.76-13.53,10.75-1.43ZM159.48,415.21l11.82,11.81-32.93,4.33,6.09-14.3,14.94-1.97s.05.09.08.12ZM166.81,397.69l10.86,10.84-31.34,4.12,5.79-13.61,14.34-1.89c.1.19.2.37.35.53ZM182.61,390.89l-28.62,3.77,5.27-12.38,13-1.71,10.35,10.33ZM194.69,356.05l.68.68-.9.15-25.77,3.39,7.16-15.97,6.78-.98,12.05,12.73ZM201.09,336.16l.53.53-.75.08-23.13,3.47,6.63-14.77,5.27-.83,11.45,11.53ZM207.5,316.8l.6.98-.98.15-20.94,3.47,7.53-16.72,5.65-.53,8.14,12.66ZM206.97,285.08l7.23,12.21.83,1.43-1.36.15-18.16,1.88,6.71-14.92,4.75-.75Z"/>
    <path class="st0" d="M203.13,448.79h-25.84c-2.03,0-3.77-1.66-3.77-3.77l-2.1-3.45c0-.38,2.17-12.9,2.25-13.28,4.29-15.67,8.51-30.44,12.66-44.52.45-1.58.9-3.16,1.43-4.67.23-.98.53-1.88.83-2.86.08-.38.23-.75.3-1.13.08-.23.15-.53.23-.75.45-1.36.83-2.71,1.28-4.07.98-3.24,1.96-6.4,2.86-9.49.45-1.36.83-2.64,1.21-3.92.15-.3.23-.6.23-.83.53-1.36.9-2.71,1.28-4.14,1.28-3.77,2.41-7.53,3.62-11.15.45-1.36.83-2.71,1.28-3.99.08-.23.15-.38.23-.6.38-1.36.83-2.64,1.28-3.99,1.13-3.47,2.26-6.86,3.39-10.17l1.36-4.07c.08-.38.23-.75.38-1.13.53-1.58,1.05-3.09,1.51-4.6,1.13-3.24,2.18-6.33,3.24-9.42.45-1.28.9-2.64,1.43-3.92.08-.53.3-1.05.53-1.58.53-1.58,1.05-3.16,1.58-4.67,1.21-3.24,2.34-6.4,3.47-9.49.45-1.36.9-2.71,1.43-3.99,1.13-3.24,2.34-6.4,3.47-9.49.45-1.21.83-2.34,1.28-3.47,1.88-5.05,3.77-9.87,5.5-14.31.45-1.21.9-2.41,1.43-3.54,1.81-4.9,3.62-9.34,5.27-13.41.53-1.21.98-2.41,1.43-3.54,5.57-13.49,9.64-22.38,11.6-26.67.9-1.96,1.36-2.94,1.43-3.01.75-1.51,2.34-2.34,3.92-2.11l.75.15,18.53,2.79c-13.64,33.22-76.24,189.85-72.17,246.28Z"/>
    <path class="st0" d="M237.18,448.79h-30.29c-4.22-55,59.67-214.94,72.25-245.67l22.07,3.31c-11.38,23.05-67.65,142.39-64.04,242.36Z"/>
    <path class="st0" d="M255.45,198.24l-59.28-37.23c-.86-.54-2-.3-2.57.55-.58.87-.34,2.04.52,2.61l7.12,4.74c-.23.13-.49.18-.65.41l-3.86,5.39-2.95-1.83c-.88-.54-2.04-.27-2.59.61-.55.88-.28,2.05.61,2.59l10.5,6.52c-.35,1.33-.2,2.81.83,4.37,1.03,1.57,2.7,3.07,4.69,4.22,1.99,1.15,4.12,1.85,6,1.96.18.01.35.01.53.01,2.08,0,3.65-.76,4.46-2.17.88-1.52.66-3.44-.63-5.39-1.03-1.57-2.7-3.07-4.69-4.22-3.16-1.83-6.29-2.28-8.52-1.55l-5.03-3.12,3.72-5.18c.19-.26.16-.57.2-.86l48.52,32.33c1.39.87,3.13.47,3.96-.85.83-1.32.43-3.07-.89-3.9Z"/>
    <path class="st0" d="M288.82,71.82c.71,7.73,7.03,13.95,15,14.29l.64.02h36.89c-.04-1.14-.37-2.96-1.12-4.15-3.4-5.58-15.07-4.77-22.54-6.27-9.09-1.52-27.26-4.55-27.26-4.55l-1.62-.31v.96Z"/>
    <path class="st0" d="M308.27,105.6c1.77,8.53,8.53,15.27,17.2,17,.8.16,4.54.95,5.94.91l-.8-2.18c-1.64-4.55-1.76-11.61-.71-16.15l-21.77-.22.14.63Z"/>
    <path class="st0" d="M507.38,104.97l-20.01.22c1.14,4.93.9,12.84-1.18,17.26l-.43.93,3.58-.43c9.83-.84,17.72-8.03,19.65-17.35l.16-.63h-1.77Z"/>
    <path class="st0" d="M518.44,90h-41.35c2,3.85,6.07,7.56,8.54,11.25l.39.67h19c1.13,0,2.3-.3,2.69-.37,5.91-1.02,10.63-5.33,12.34-10.9l.09-.64h-1.71Z"/>
    <path class="st0" d="M372.65,100.44c-3.16,2.69-10.05,9.73-10.05,9.73l-21.09,24.28-.75.87c-4.45,3.78-9.03,6.2-14.14,6.2h-.2l.1.13h-.1c0,2.42,1.74,4.46,4.04,4.91h155.07c2.29-.45,4.04-2.48,4.04-4.91,0,0-1.68,0-.02,0-5.02,0-9.56-2.26-13.94-5.88l-3.5-4.31s-20.1-22.51-21.21-23.51c-10.79-11.89-23.9-22.34-42.85-22.34-14.82,0-26.04,6.4-35.38,14.85"/>
    <path class="st0" d="M526.32,71.26c-8.91,1.5-17.84,2.97-26.76,4.46-7.46,1.5-19.13.69-22.53,6.27-.75,1.19-1.08,2.35-1.12,3.5v.58h2.84s34.05.07,34.05.07h.64c7.81-.35,14.03-6.33,14.95-13.84h.05s.15-1.46.15-1.46l-2.27.43Z"/>
    <path class="st0" d="M297.1,90l.1.64c1.91,6.2,7.54,10.82,14.39,11.12l3.51.15,15.96-.03.57-.64c2.47-3.69,6.55-7.4,8.54-11.24h-.07s-43.01,0-43.01,0Z"/>
    <path class="st0" d="M278.02,40.5c-1.04,2.19-1.66,4.63-1.77,7.21-.37,8.46,4.91,15.86,12.5,18.54v.09s.95.23.95.23c1.34.39,2.74.64,4.19.72,11.44,1.92,38.23,6.02,41.06,6.45,5.96,1.46,10.37,6.82,10.37,13.21,0,4.1-1.83,7.77-4.7,10.27l-1.75,1.59c-3.92,3.98-6.35,9.44-6.35,15.46,0,5.31,1.88,10.19,5.01,13.98l.43.44,26.08-30.38c1.1-3.01,1.76-6.23,1.76-9.62,0-12.27-7.8-22.7-18.74-26.61h.02s-1.84-.61-1.84-.61h0s-65.62-21.62-65.62-21.62l-1.24-.41-.37,1.05Z"/>
    <path class="st0" d="M472.01,61.5h0s-1.84.59-1.84.59h.02c-10.93,3.91-18.74,14.34-18.74,26.61,0,4.21.93,8.2,2.58,11.79l24.71,28.78.98-1c3.13-3.8,5.01-8.68,5.01-13.98,0-6.02-2.43-11.48-6.35-15.46l-1.75-1.59c-2.87-2.5-4.7-6.17-4.7-10.27,0-6.39,4.43-11.74,10.38-13.21,2.83-.43,29.62-4.54,41.06-6.45,1.45-.08,5.14-.98,5.14-1.04,7.59-2.68,12.86-10.08,12.51-18.54-.11-2.42-.68-4.72-1.6-6.8h0s-.56-1.57-.56-1.57l-66.85,22.16Z"/>
    <path class="st0" d="M396.2,153.16l1.69,71.81,3.71,2.28c1.16.72,2.3,1.43,3.42,2.13l3.21,1.98h-.07c3.8,2.42,7.32,4.77,10.71,7.12l.19-6.73,1.9-78.6h-24.76Z"/>
    <path class="st0" d="M399.06,274.81l.83,35.26c.26.27.5.53.78.8l1.76,1.72c4.05,3.68,9.08,7.35,14.29,10.9l1.14-41.86c-.92-.98-1.9-1.97-3.02-2.96l-1.08-.91c-3.67-3.09-8.26-6.26-14.66-10.07l-.04,7.11Z"/>
    <path class="st0" d="M402.22,409.7s.21,6.21,6.18,6.29c5.96.08,6.38-6.28,6.38-6.28l1.24-51.91c-4.01-2.78-8.62-5.54-13.43-8.42-.6-.36-1.21-.73-1.81-1.09l1.44,61.42Z"/>
    <g>
      <path class="st0" d="M434.25,170.73c-9.26,10.68-2.2,19.73,3.73,23.67,2.02,1.58,4.05,2.62,5.44,2.96l-.15-1.11c-.96-8.27,8.19-9.55,14.14-5.9,5.74,4.76,6.5,15.03-14.46,28.22-5.78,3.64-11.49,7.16-17.12,10.65l-.34,14.05c2.58,1.95,5.11,3.93,7.51,5.99.55.48,1.04.95,1.58,1.43,14.74-7.55,29.62-14.62,39.22-23.11,17.78-15.72,22.82-38.62,4.86-55.02-1.17-1.07-2.39-1.99-3.63-2.84-6.34-4.84-13.53-6.75-20.2-6.75-8.84,0-16.76,3.36-20.56,7.76"/>
      <g class="st2">
        <polygon class="st0" points="428.21 162.97 424.98 170.65 424.98 162.97 428.21 162.97"/>
        <polygon class="st0" points="441.52 162.97 424.98 202.3 424.98 170.65 428.21 162.97 441.52 162.97"/>
        <polygon class="st0" points="454.83 162.97 424.98 233.94 424.98 202.3 441.52 162.97 454.83 162.97"/>
        <polygon class="st0" points="468.14 162.97 431.25 250.69 424.98 250.69 424.98 233.94 454.83 162.97 468.14 162.97"/>
        <polygon class="st0" points="481.45 162.97 444.55 250.69 431.25 250.69 468.14 162.97 481.45 162.97"/>
        <polygon class="st0" points="494.75 162.97 457.86 250.69 444.55 250.69 481.45 162.97 494.75 162.97"/>
        <polygon class="st0" points="496.6 190.23 471.17 250.69 457.86 250.69 494.75 162.97 496.6 162.97 496.6 190.23"/>
        <polygon class="st0" points="496.6 221.88 484.48 250.69 471.17 250.69 496.6 190.23 496.6 221.88"/>
        <polygon class="st0" points="484.48 250.69 496.6 221.88 496.6 250.69 484.48 250.69"/>
      </g>
    </g>
    <path class="st0" d="M366.41,372.54c1.3,18.83,25.24,27.39,25.24,27.39,0,0,1.49.55,2.31.67-1.18-.61-1.54-.83-2.07-1.16-2.82-1.79-11.82-8.48-12.66-21.69-.43-6.94,4.35-16.36,14.36-24.36.19-.15.41-.3.6-.45l-.21-8.8c-1.7-1.06-3.4-2.13-5.08-3.25l-1.94-1.29c-13.4,10.67-21.27,22.52-20.56,32.95"/>
    <g>
      <path class="st0" d="M340.11,171.37c-2.62,2.39-4.69,4.92-6.36,7.55-11.29,15.66-5.57,35.18,10.16,49.08.66.58,1.34,1.15,2.05,1.73,10.87,8.61,27.73,16.49,43.56,24.92,0,0,21.48,12.04,28.54,18.01v-.02c8.36,7.09,13.59,14.88,12.76,23.87-.32,3.44-2.46,8.31-6.97,13.61l-.43,17.88c.46.32.97.68,1.53,1.07l2.07,1.44c14.98-10.76,26.83-24.33,22.66-46.07-.93-4.91-3.01-9.57-6.01-14.06-3.96-5.66-9.3-11.1-15.05-16.04-8.85-7.61-19.04-14.29-30.55-21.4v.06c-2.88-1.81-5.86-3.65-8.84-5.48-1.54-.94-3.08-1.88-4.66-2.84h.08c-3.39-2.09-6.78-4.19-10.19-6.34-42.84-26.97,5-41.75.87-22.17,5.22-1.28,19.51-12.18,7.83-25.66-3.81-4.4-11.76-7.78-20.62-7.78-7.48,0-15.6,2.41-22.44,8.65"/>
      <g class="st1">
        <polygon class="st0" points="335.16 162.72 322.47 192.92 322.47 162.72 335.16 162.72"/>
        <polygon class="st0" points="348.47 162.72 322.47 224.56 322.47 192.92 335.16 162.72 348.47 162.72"/>
        <polygon class="st0" points="361.78 162.72 322.47 256.2 322.47 224.56 348.47 162.72 361.78 162.72"/>
        <polygon class="st0" points="375.09 162.72 322.47 287.84 322.47 256.2 361.78 162.72 375.09 162.72"/>
        <polygon class="st0" points="388.4 162.72 327.19 308.24 322.47 306.25 322.47 287.84 375.09 162.72 388.4 162.72"/>
        <polygon class="st0" points="401.7 162.72 338.5 312.99 327.19 308.24 388.4 162.72 401.7 162.72"/>
        <polygon class="st0" points="415.01 162.72 349.81 317.75 338.5 312.99 401.7 162.72 415.01 162.72"/>
        <polygon class="st0" points="418.27 162.72 426.81 166.31 361.12 322.5 349.81 317.75 415.01 162.72 418.27 162.72"/>
        <rect class="st0" x="314.9" y="240.65" width="169.44" height="12.27" transform="translate(17.2 519.47) rotate(-67.19)"/>
        <polygon class="st0" points="438.12 171.07 449.42 175.82 384.37 330.51 380.15 330.51 372.43 327.26 438.12 171.07"/>
        <polygon class="st0" points="449.42 175.82 453.86 177.69 453.86 196.92 397.67 330.51 384.37 330.51 449.42 175.82"/>
        <polygon class="st0" points="453.86 228.57 410.98 330.51 397.67 330.51 453.86 196.92 453.86 228.57"/>
        <polygon class="st0" points="453.86 260.21 424.29 330.51 410.98 330.51 453.86 228.57 453.86 260.21"/>
        <polygon class="st0" points="453.86 291.85 437.6 330.51 424.29 330.51 453.86 260.21 453.86 291.85"/>
        <polygon class="st0" points="453.86 323.49 450.91 330.51 437.6 330.51 453.86 291.85 453.86 323.49"/>
        <polygon class="st0" points="450.91 330.51 453.86 323.49 453.86 330.51 450.91 330.51"/>
      </g>
    </g>
    <path class="st0" d="M343.39,238.33l-.03.02c-7.71-4.72-12.8-11.42-16.04-17.11-18.49,37.83-71.91,155.89-56.45,227.55h23.58c1.21,0,2.34-.6,3.09-1.58.68-1.05.83-2.34.45-3.47-.22-.58-18.55-55.27,45.41-205.41Z"/>
    <path class="st0" d="M366.25,286.21c-4.31,22.56,8.38,36.43,24.08,47.46.77.54,2.29,1.65,2.29,1.65,1.55,1.03,3.12,2.04,4.7,3.03,9.66,6.05,19.66,11.41,27,17.27,1.12.9,4.19,3.87,4.76,4.45,6.89,7.02,10.18,14.55,9.81,20.38-.59,9.45-5.31,15.58-9.04,19.02-1.79,1.83-4.61,3.43-4.61,3.43,0,0,8.21-2.96,15.33-9.19,5.41-4.46,10.42-10.78,10.99-19.12.73-10.71-7.49-22.9-21.54-33.79-1.29-.91-11.52-8.07-11.8-8.25-9.24-6.09-16.74-11.43-22.29-16.89h.06c-6.33-6.19-10-12.19-10.1-18.48-.08-5.99,2.46-11.56,6.61-16.7l-.39-16.77-4.19-2.34s-3.34-1.75-4.2-2.21c-9.16,8.4-15.58,17.22-17.46,27.06"/>
    <path class="st0" d="M324.19,214.93c-1.16-2.79-1.72-4.71-1.72-4.71l-17.33-3.18c-9.87,19.96-67.95,140.96-64.34,241.76h26.29c-16.23-77.4,41.41-202.4,57.1-233.86Z"/>
  </g>
</svg>