<?xml version="1.0" encoding="UTF-8"?>
<svg id="Layer_1" xmlns="http://www.w3.org/2000/svg" version="1.1" xmlns:xlink="http://www.w3.org/1999/xlink" viewBox="0 0 1984.25 502.5">
  <!-- Generator: Adobe Illustrator 29.6.1, SVG Export Plug-In . SVG Version: 2.1.1 Build 9)  -->
  <defs>
    <style>
      .st0 {
        fill: #184b9a;
      }

      .st1 {
        clip-path: url(#clippath-1);
      }

      .st2 {
        clip-path: url(#clippath);
      }
    </style>
    <clipPath id="clippath">
      <path class="st0" d="M434.08,176.78c-8.57,9.89-2.04,18.27,3.45,21.91,1.87,1.46,3.75,2.42,5.04,2.74l-.14-1.03c-.89-7.66,7.58-8.84,13.08-5.46,5.32,4.41,6.02,13.91-13.39,26.12-5.35,3.37-10.63,6.62-15.85,9.86l-.31,13c2.39,1.81,4.73,3.64,6.95,5.55.51.44.96.88,1.46,1.32,13.65-6.98,27.41-13.53,36.3-21.39,16.46-14.55,21.12-35.75,4.5-50.92-1.09-.99-2.21-1.84-3.36-2.63-5.86-4.48-12.52-6.25-18.7-6.25-8.18,0-15.51,3.11-19.03,7.18"/>
    </clipPath>
    <clipPath id="clippath-1">
      <path class="st0" d="M346.96,177.37c-2.42,2.21-4.34,4.56-5.89,6.98-10.45,14.5-5.16,32.56,9.41,45.43.61.54,1.24,1.07,1.9,1.6,10.06,7.97,25.67,15.26,40.32,23.06,0,0,19.89,11.15,26.41,16.67v-.02c7.74,6.56,12.58,13.77,11.81,22.09-.3,3.19-2.28,7.69-6.45,12.6l-.4,16.55c.43.3.9.63,1.42.99l1.92,1.34c13.87-9.96,24.83-22.52,20.97-42.64-.86-4.54-2.79-8.86-5.56-13.01-3.66-5.23-8.61-10.27-13.93-14.85-8.19-7.04-17.62-13.22-28.28-19.81v.06c-2.67-1.68-5.43-3.38-8.18-5.07-1.43-.87-2.85-1.74-4.31-2.63h.07c-3.13-1.93-6.28-3.88-9.43-5.87-39.65-24.96,4.63-38.64.81-20.52,4.83-1.18,18.06-11.28,7.24-23.75-3.53-4.07-10.89-7.2-19.08-7.2-6.92,0-14.44,2.23-20.77,8"/>
    </clipPath>
  </defs>
  <g>
    <g>
      <path class="st0" d="M856.7,307.19h-16.81v45.59h-13.5v-45.59h-16.51v-10.42h46.82v10.42Z"/>
      <path class="st0" d="M912.51,325.93c0,5.47-1.01,10.3-3.04,14.5-2.03,4.21-4.9,7.45-8.64,9.72-3.73,2.27-7.98,3.41-12.75,3.41s-9.01-1.1-12.7-3.29c-3.7-2.19-6.58-5.33-8.64-9.4-2.06-4.08-3.15-8.76-3.25-14.04v-3.15c0-5.49,1.01-10.33,3.02-14.52,2.01-4.2,4.9-7.43,8.66-9.72,3.75-2.28,8.03-3.42,12.83-3.42s8.98,1.13,12.7,3.38c3.72,2.26,6.61,5.47,8.67,9.64,2.07,4.16,3.11,8.94,3.14,14.32v2.58ZM898.78,323.59c0-5.57-.93-9.8-2.79-12.68-1.86-2.88-4.52-4.33-7.98-4.33-6.77,0-10.35,5.08-10.73,15.24l-.03,4.11c0,5.49.9,9.71,2.73,12.66,1.82,2.96,4.53,4.43,8.12,4.43,3.41,0,6.04-1.45,7.88-4.34s2.78-7.06,2.81-12.51v-2.57Z"/>
      <path class="st0" d="M935.74,333.78v19.01h-13.5v-56.01h22.36c4.28,0,8.07.79,11.37,2.37,3.29,1.58,5.85,3.82,7.65,6.73,1.81,2.92,2.72,6.22,2.72,9.91,0,5.46-1.96,9.83-5.87,13.1-3.91,3.27-9.28,4.9-16.1,4.9h-8.62ZM935.74,323.35h8.85c2.61,0,4.61-.65,5.98-1.95,1.37-1.31,2.06-3.16,2.06-5.54,0-2.61-.71-4.71-2.12-6.27-1.41-1.56-3.33-2.36-5.77-2.38h-9.01v16.16Z"/>
      <path class="st0" d="M1014.06,307.19h-24.35v45.59h-13.5v-56.01h37.85v10.42Z"/>
      <path class="st0" d="M1070.41,325.93c0,5.47-1.01,10.3-3.04,14.5-2.03,4.21-4.9,7.45-8.64,9.72-3.73,2.27-7.98,3.41-12.75,3.41s-9.01-1.1-12.7-3.29c-3.7-2.19-6.58-5.33-8.64-9.4-2.06-4.08-3.15-8.76-3.25-14.04v-3.15c0-5.49,1.01-10.33,3.02-14.52,2.01-4.2,4.9-7.43,8.66-9.72,3.75-2.28,8.03-3.42,12.83-3.42s8.98,1.13,12.7,3.38c3.72,2.26,6.61,5.47,8.67,9.64,2.07,4.16,3.11,8.94,3.14,14.32v2.58ZM1056.68,323.59c0-5.57-.93-9.8-2.79-12.68-1.86-2.88-4.52-4.33-7.98-4.33-6.77,0-10.35,5.08-10.73,15.24l-.03,4.11c0,5.49.9,9.71,2.73,12.66,1.82,2.96,4.53,4.43,8.12,4.43,3.41,0,6.04-1.45,7.88-4.34s2.78-7.06,2.81-12.51v-2.57Z"/>
      <path class="st0" d="M1080.13,352.78v-56.01h20.12c7.21,0,12.69,1.31,16.45,3.96,3.75,2.64,5.63,6.48,5.63,11.51,0,2.9-.67,5.37-2,7.42-1.33,2.05-3.29,3.56-5.88,4.54,2.92.76,5.17,2.2,6.73,4.3,1.57,2.1,2.35,4.67,2.35,7.7,0,5.49-1.73,9.61-5.22,12.37-3.47,2.76-8.62,4.16-15.44,4.21h-22.74ZM1093.63,320.12h7.05c2.95-.02,5.05-.57,6.31-1.62,1.26-1.06,1.88-2.61,1.88-4.67,0-2.37-.67-4.07-2.04-5.11-1.36-1.04-3.55-1.57-6.58-1.57h-6.62v12.97ZM1093.63,328.97v13.43h8.85c2.44,0,4.31-.56,5.62-1.68,1.31-1.11,1.96-2.69,1.96-4.71,0-4.67-2.32-7.01-6.96-7.05h-9.47Z"/>
      <path class="st0" d="M1181.07,325.93c0,5.47-1.01,10.3-3.04,14.5-2.03,4.21-4.9,7.45-8.64,9.72-3.73,2.27-7.98,3.41-12.75,3.41s-9.01-1.1-12.7-3.29c-3.7-2.19-6.58-5.33-8.64-9.4-2.06-4.08-3.15-8.76-3.25-14.04v-3.15c0-5.49,1.01-10.33,3.02-14.52,2.01-4.2,4.9-7.43,8.66-9.72,3.75-2.28,8.03-3.42,12.83-3.42s8.98,1.13,12.7,3.38c3.72,2.26,6.61,5.47,8.67,9.64,2.07,4.16,3.11,8.94,3.14,14.32v2.58ZM1167.33,323.59c0-5.57-.93-9.8-2.79-12.68-1.86-2.88-4.52-4.33-7.98-4.33-6.77,0-10.35,5.08-10.73,15.24l-.03,4.11c0,5.49.9,9.71,2.73,12.66,1.82,2.96,4.53,4.43,8.12,4.43,3.41,0,6.04-1.45,7.88-4.34,1.85-2.9,2.78-7.06,2.81-12.51v-2.57Z"/>
      <path class="st0" d="M1214.11,333.62h-23.12v-10h23.12v10Z"/>
      <path class="st0" d="M1273.19,352.78h-13.5v-45.59h-20.12v45.59h-13.5v-56.01h47.13v56.01Z"/>
      <path class="st0" d="M1297.84,333.78v19.01h-13.5v-56.01h22.36c4.28,0,8.07.79,11.37,2.37,3.29,1.58,5.85,3.82,7.65,6.73,1.81,2.92,2.72,6.22,2.72,9.91,0,5.46-1.96,9.83-5.87,13.1-3.91,3.27-9.28,4.9-16.1,4.9h-8.62ZM1297.84,323.35h8.85c2.61,0,4.61-.65,5.98-1.95,1.37-1.31,2.06-3.16,2.06-5.54,0-2.61-.71-4.71-2.12-6.27-1.41-1.56-3.33-2.36-5.77-2.38h-9.01v16.16Z"/>
      <path class="st0" d="M1385.82,325.93c0,5.47-1.01,10.3-3.04,14.5-2.03,4.21-4.9,7.45-8.64,9.72-3.73,2.27-7.98,3.41-12.75,3.41s-9.01-1.1-12.7-3.29c-3.7-2.19-6.58-5.33-8.64-9.4-2.06-4.08-3.15-8.76-3.25-14.04v-3.15c0-5.49,1.01-10.33,3.02-14.52,2.01-4.2,4.9-7.43,8.66-9.72,3.75-2.28,8.03-3.42,12.83-3.42s8.98,1.13,12.7,3.38c3.72,2.26,6.61,5.47,8.67,9.64,2.07,4.16,3.11,8.94,3.14,14.32v2.58ZM1372.09,323.59c0-5.57-.93-9.8-2.79-12.68-1.86-2.88-4.52-4.33-7.98-4.33-6.77,0-10.35,5.08-10.73,15.24l-.03,4.11c0,5.49.9,9.71,2.73,12.66,1.82,2.96,4.53,4.43,8.12,4.43,3.41,0,6.04-1.45,7.88-4.34s2.78-7.06,2.81-12.51v-2.57Z"/>
      <path class="st0" d="M1413.28,296.77l12.5,38.97,12.47-38.97h17.77v56.01h-13.54v-13.08l1.31-26.77-13.54,39.86h-8.93l-13.58-39.9,1.31,26.82v13.08h-13.5v-56.01h17.74Z"/>
      <path class="st0" d="M1480.85,316.04h6.96c4.44,0,8.36.76,11.78,2.28,3.41,1.51,6.03,3.65,7.87,6.41,1.83,2.76,2.75,5.91,2.75,9.48,0,5.52-2.05,10-6.14,13.43-4.09,3.44-9.58,5.16-16.48,5.16h-20.27v-56.01h13.54v19.27ZM1480.85,326.43v15.97h6.93c2.74,0,4.91-.76,6.52-2.31,1.6-1.54,2.4-3.52,2.4-5.96,0-2.31-.79-4.16-2.38-5.58s-3.79-2.12-6.62-2.12h-6.85ZM1527.76,352.78h-13.47v-56.01h13.47v56.01Z"/>
      <path class="st0" d="M1552.03,296.77v45.62h13.92v-45.62h13.51v45.62h13.77v-45.62h13.42v56.01h-68.14v-56.01h13.51Z"/>
      <path class="st0" d="M1664.74,296.77v56.01h-13.51v-45.59h-12.57l-.93,18.82c-.39,6.49-1.28,11.67-2.69,15.54-1.41,3.88-3.42,6.7-6.02,8.48s-6.15,2.7-10.64,2.75h-3.61v-10.39l1.88-.19c2.69-.39,4.64-2.04,5.85-4.94,1.21-2.92,1.99-7.82,2.35-14.72l.96-25.77h38.94Z"/>
      <path class="st0" d="M1710.58,329.01h-21.24v13.39h25.09v10.39h-38.59v-56.01h38.67v10.42h-25.16v11.81h21.24v10Z"/>
      <path class="st0" d="M1769.51,352.78h-13.43v-23.39h-19.89v23.39h-13.5v-56.01h13.5v22.23h19.89v-22.23h13.43v56.01Z"/>
      <path class="st0" d="M1827.63,352.78h-13.43v-23.39h-19.89v23.39h-13.5v-56.01h13.5v22.23h19.89v-22.23h13.43v56.01Z"/>
      <path class="st0" d="M1870.74,342.32h-18.5l-3.23,10.46h-14.43l20.54-56.01h12.7l20.7,56.01h-14.5l-3.27-10.46ZM1855.48,331.89h12.04l-6.04-19.42-6,19.42Z"/>
      <path class="st0" d="M1919.4,352.78v-19.66h-7.77l-9.46,19.66h-14.66l11.51-24.24c-5-3.26-7.51-8.04-7.51-14.35,0-5.54,1.82-9.83,5.46-12.87,3.65-3.04,8.89-4.56,15.74-4.56h20.24v56.01h-13.54ZM1904.98,315.37c0,2.86.57,4.93,1.73,6.21,1.15,1.29,3.09,1.93,5.81,1.93h6.88v-16.35h-6.81c-2.69,0-4.63.71-5.82,2.1-1.2,1.4-1.79,3.44-1.79,6.11Z"/>
      <path class="st0" d="M859.78,447.33h-13.5v-45.59h-20.12v45.59h-13.5v-56.01h47.13v56.01Z"/>
      <path class="st0" d="M902.74,436.87h-18.5l-3.23,10.46h-14.43l20.54-56.01h12.7l20.7,56.01h-14.5l-3.27-10.46ZM887.47,426.44h12.04l-6.04-19.42-6,19.42Z"/>
      <path class="st0" d="M974.41,391.32v56.01h-13.51v-45.59h-12.57l-.93,18.82c-.39,6.49-1.28,11.67-2.69,15.54-1.41,3.88-3.42,6.7-6.02,8.48s-6.15,2.7-10.64,2.75h-3.61v-10.39l1.88-.19c2.69-.39,4.64-2.04,5.85-4.94,1.21-2.92,1.99-7.82,2.35-14.72l.96-25.77h38.94Z"/>
      <path class="st0" d="M1017.32,436.87h-18.5l-3.23,10.46h-14.43l20.54-56.01h12.7l20.7,56.01h-14.5l-3.27-10.46ZM1002.05,426.44h12.04l-6.04-19.42-6,19.42Z"/>
      <path class="st0" d="M1085.83,401.74h-16.81v45.59h-13.5v-45.59h-16.5v-10.42h46.81v10.42Z"/>
      <path class="st0" d="M1126.1,436.87h-18.5l-3.23,10.46h-14.43l20.54-56.01h12.7l20.7,56.01h-14.5l-3.27-10.46ZM1110.83,426.44h12.04l-6.04-19.42-6,19.42Z"/>
    </g>
    <g>
      <path class="st0" d="M853.64,234.69c-.18,3.89-1.23,7.34-3.15,10.32-1.92,2.99-4.62,5.31-8.1,6.95-3.47,1.64-7.44,2.46-11.91,2.46-7.36,0-13.15-2.4-17.39-7.19-4.23-4.8-6.35-11.57-6.35-20.32v-2.77c0-5.49.96-10.29,2.87-14.41,1.91-4.11,4.67-7.29,8.25-9.54,3.59-2.24,7.74-3.37,12.47-3.37,6.8,0,12.25,1.79,16.39,5.37,4.12,3.57,6.47,8.51,7.03,14.79h-13.45c-.11-3.41-.97-5.86-2.58-7.35-1.63-1.49-4.07-2.23-7.39-2.23s-5.82,1.26-7.38,3.77c-1.57,2.51-2.39,6.52-2.46,12.04v3.96c0,5.98.75,10.25,2.25,12.81,1.49,2.56,4.08,3.85,7.74,3.85,3.1,0,5.49-.73,7.13-2.19s2.51-3.79,2.61-6.96h13.42Z"/>
      <path class="st0" d="M894.53,243.19h-18.5l-3.23,10.46h-14.43l20.54-56.01h12.7l20.7,56.01h-14.5l-3.27-10.46ZM879.26,232.76h12.04l-6.04-19.42-6,19.42Z"/>
      <path class="st0" d="M965.88,253.66h-13.43v-23.39h-19.89v23.39h-13.5v-56.01h13.5v22.23h19.89v-22.23h13.43v56.01Z"/>
      <path class="st0" d="M996.99,231.5h-6.39v22.16h-13.5v-56.01h13.5v21.66h5.19l10.78-21.66h16.35l-15.39,25.85,17.31,30.16h-15.97l-11.88-22.16Z"/>
      <path class="st0" d="M1074.89,208.07h-16.81v45.59h-13.5v-45.59h-16.5v-10.42h46.81v10.42Z"/>
      <path class="st0" d="M1106.66,234.5h-23.12v-10h23.12v10Z"/>
      <path class="st0" d="M1165.75,253.66h-13.5v-45.59h-20.12v45.59h-13.5v-56.01h47.13v56.01Z"/>
      <path class="st0" d="M1211.64,229.88h-21.24v13.39h25.09v10.39h-38.59v-56.01h38.67v10.42h-25.16v11.81h21.24v10Z"/>
      <path class="st0" d="M1267.71,208.07h-16.81v45.59h-13.5v-45.59h-16.5v-10.42h46.81v10.42Z"/>
      <path class="st0" d="M1310.91,229.88h-21.24v13.39h25.09v10.39h-38.59v-56.01h38.67v10.42h-25.16v11.81h21.24v10Z"/>
      <path class="st0" d="M1336.52,234.65v19.01h-13.5v-56.01h22.36c4.28,0,8.07.79,11.37,2.37s5.85,3.82,7.65,6.73c1.81,2.91,2.71,6.21,2.71,9.9,0,5.46-1.95,9.83-5.86,13.1s-9.28,4.9-16.1,4.9h-8.62ZM1336.52,224.23h8.85c2.61,0,4.61-.66,5.98-1.96,1.37-1.31,2.06-3.15,2.06-5.54,0-2.61-.71-4.71-2.12-6.27-1.41-1.57-3.33-2.37-5.77-2.39h-9.01v16.16Z"/>
      <path class="st0" d="M1414.92,208.02h-24.28v8.89h6.96c4.44,0,8.36.76,11.77,2.27s6.04,3.65,7.87,6.41,2.75,5.91,2.75,9.49c0,5.51-2.05,9.99-6.14,13.42-4.09,3.44-9.58,5.16-16.48,5.16h-20.32v-56.01h37.86v10.38ZM1390.64,227.3v15.97h6.92c2.74,0,4.92-.76,6.52-2.31,1.6-1.54,2.41-3.52,2.41-5.96,0-2.31-.8-4.16-2.39-5.58-1.59-1.41-3.79-2.12-6.61-2.12h-6.85Z"/>
      <path class="st0" d="M1450.76,221.95v.04l9.27-24.35h14.23l-18.85,44.43c-2.03,4.49-4.3,7.65-6.83,9.49-2.52,1.83-5.48,2.8-8.87,2.9h-2.73l-2.08-.07-.23-10.46c.3.1,1.21.16,2.69.16,2.05,0,3.6-.35,4.63-1.06,1.04-.71,1.88-2.07,2.52-4.1l.66-1.85-20.24-39.43h14.35l11.47,24.31Z"/>
      <path class="st0" d="M1495.02,234.65v19.01h-13.5v-56.01h22.36c4.28,0,8.07.79,11.37,2.37,3.29,1.58,5.85,3.82,7.65,6.73,1.81,2.91,2.71,6.21,2.71,9.9,0,5.46-1.95,9.83-5.86,13.1-3.91,3.27-9.28,4.9-16.1,4.9h-8.62ZM1495.02,224.23h8.85c2.61,0,4.61-.66,5.98-1.96,1.37-1.31,2.06-3.15,2.06-5.54,0-2.61-.71-4.71-2.12-6.27-1.41-1.57-3.33-2.37-5.77-2.39h-9.01v16.16Z"/>
      <path class="st0" d="M1573.34,208.07h-24.35v45.59h-13.5v-56.01h37.85v10.42Z"/>
      <path class="st0" d="M1626.2,234.69c-.18,3.89-1.23,7.34-3.15,10.32-1.92,2.99-4.62,5.31-8.1,6.95s-7.44,2.46-11.91,2.46c-7.36,0-13.16-2.4-17.39-7.19-4.23-4.8-6.35-11.57-6.35-20.32v-2.77c0-5.49.96-10.29,2.87-14.41,1.91-4.11,4.67-7.29,8.25-9.54,3.59-2.24,7.74-3.37,12.47-3.37,6.79,0,12.25,1.79,16.39,5.37,4.13,3.57,6.48,8.51,7.04,14.79h-13.46c-.11-3.41-.96-5.86-2.58-7.35s-4.07-2.23-7.38-2.23-5.82,1.26-7.39,3.77c-1.56,2.51-2.38,6.52-2.46,12.04v3.96c0,5.98.76,10.25,2.26,12.81,1.49,2.56,4.08,3.85,7.74,3.85,3.1,0,5.48-.73,7.12-2.19s2.51-3.79,2.62-6.96h13.42Z"/>
      <path class="st0" d="M1655.18,231.5h-6.39v22.16h-13.5v-56.01h13.5v21.66h5.19l10.78-21.66h16.35l-15.39,25.85,17.31,30.16h-15.97l-11.88-22.16Z"/>
      <path class="st0" d="M1720.92,243.19h-18.5l-3.23,10.46h-14.43l20.54-56.01h12.7l20.7,56.01h-14.5l-3.27-10.46ZM1705.65,232.76h12.04l-6.04-19.42-6,19.42Z"/>
      <path class="st0" d="M1769.67,253.66v-19.66h-7.77l-9.46,19.66h-14.66l11.51-24.24c-5-3.26-7.51-8.04-7.51-14.35,0-5.54,1.82-9.83,5.46-12.87,3.65-3.04,8.89-4.56,15.74-4.56h20.24v56.01h-13.54ZM1755.24,216.25c0,2.85.57,4.92,1.72,6.21,1.16,1.28,3.1,1.92,5.81,1.92h6.88v-16.35h-6.81c-2.69,0-4.63.71-5.82,2.1-1.2,1.4-1.79,3.44-1.79,6.12Z"/>
    </g>
  </g>
  <g>
    <g>
      <path class="st0" d="M488.14,187.81l38.21-28.76,3.56,4.35-4.43,3.16c-.72-.19-1.48-.31-2.39-.2-1.73.21-3.65.98-5.42,2.16-2.62,1.74-4.44,4.05-4.86,6.17-.23,1.13-.05,2.18.51,3.02.76,1.15,2.08,1.75,3.77,1.75.31,0,.63-.02.96-.06,1.73-.21,3.65-.98,5.42-2.16,3.68-2.46,5.41-5.81,4.61-8.28l9.29-6.63c.79-.56.97-1.65.41-2.43-.56-.78-1.65-.96-2.43-.41l-2.62,1.87-3.62-4.42,3.9-2.94c.75-.57.92-1.63.37-2.4-.56-.78-1.65-.97-2.43-.41l-45.41,32.3s1.24,1.61,2.58,4.3Z"/>
      <path class="st0" d="M522.52,211.85s111.08,215.74,111.08,217.69l48.81-.73-35.01-65.86c0-.07-77.03-149.01-85.11-164.61l29.34-20.29,2.33,3.25-3.13,1.95c-1.69-.48-3.94-.15-6.26,1.2-1.49.86-2.73,1.98-3.51,3.16-1,1.51-1.17,3.08-.47,4.29.67,1.17,1.97,1.76,3.57,1.76,1.45,0,3.16-.49,4.88-1.48,3.05-1.76,4.59-4.25,4.24-6.35l7.32-4.55c.82-.51,1.07-1.58.56-2.4-.51-.82-1.59-1.06-2.4-.56l-1.82,1.13-2.43-3.39,5.78-3.99c.77-.53.99-1.59.47-2.38-.52-.81-1.6-1.04-2.41-.51l-49.18,31.97-60.45-12.1c2.33,5.23,4.5,13.69.69,23.55-.73,1.89-1.44,3.48-2.13,4.98l10.7,19.72-5.79,3.21c-2.54-5.83-5.19-11.6-7.86-17.33-2.09,3.39-3.89,5.17-5.19,6.07,29.94,67.52,60.49,166.77,65.11,200.14l7.94.5c-.14.57-.06-1.32.35-.84.38.44.91.66,1.44.66.44,0,.88-.15,1.24-.46l12.69-10.92c.1-.09.16-.2.23-.3,13.48,3.87,29.26,8.4,29.8,8.54.16.04.33.06.49.06.28,0,.53-.14.78-.26.9,1.74,1.42,2.75,1.42,2.75l8.51,2.55c8.76.02,20.67-2.56,20.67-2.56l-110.37-215.66c-.42-.84-.14-1.88.77-2.37.84-.42,1.88-.07,2.3.77ZM587.09,315.96c-.21.14-.49.21-.77.21-.63,0-1.26-.35-1.53-.98l-24.55-48.32c-.42-.84-.14-1.88.77-2.37.84-.42,1.88-.07,2.3.77l24.55,48.39c.49.84.14,1.88-.77,2.3ZM602.57,346.15c-.28.14-.56.21-.84.21-.63,0-1.26-.28-1.53-.91l-9.76-18.48c-.49-.84-.14-1.88.7-2.37.84-.42,1.88-.14,2.37.77l9.76,18.48c.49.84.14,1.88-.7,2.3ZM675.16,424.82l-7.81.83-9.32-17.04,6.44-3.39,10.69,19.6ZM662.64,401.88l-6.44,3.4-8.92-16.3,6.46-3.41,8.9,16.31ZM651.92,382.23l-6.46,3.41-7.95-14.52,6.48-3.42,7.93,14.53ZM641.62,363.02l-6.55,3.49-7.32-14.43,6.56-3.14,7.32,14.09ZM632.7,345.87l-6.55,3.07-6.9-13.53,6.35-3.28,7.11,13.74ZM623.98,328.99l-6.35,3.35-6.62-13.04,6.28-3.28,6.69,12.97ZM615.68,312.96l-6.28,3.21-6.76-13.32,6.14-3.28,6.9,13.39ZM607.18,296.5l-6.14,3.28-6.9-13.6,6.28-2.79,6.76,13.11ZM598.81,280.32l-6.28,2.79-6.28-12.34,5.86-3.35,6.69,12.9ZM590.51,264.35l-5.86,3.28-7.04-13.81,5.79-3.21,7.11,13.74ZM581.79,247.48l-5.72,3.28-6.28-12.27,5.58-3.42,6.41,12.41ZM573.77,231.93l-5.58,3.42-6.48-12.69,5.44-3.49,6.62,12.76ZM557.93,201.36l7.61,14.67-5.37,3.56-7.44-14.63,5.2-3.59ZM493.58,243.71l6.07-3.35,9.83,17.99-7.88,4.74c-2.58-6.41-5.23-12.9-8.02-19.38ZM502.93,266.38l8.16-4.95,5.86,10.74.28.42c0,.07.28.63.28.63l.02.03c-.35.18-9.5,6.1-9.5,6.1-1.6-4.25-3.35-8.58-5.09-12.97ZM517.43,304.52l14.71,3.84-10.11,9.07c-1.46-4.11-3-8.44-4.6-12.9ZM524.47,324.46l14.29,4.46-10.04,8.02c-1.33-3.9-2.72-8.09-4.25-12.48ZM531.1,344.27l13.6,3.9-9.69,8.23c-1.05-3.49-2.37-7.53-3.9-12.13ZM536.72,361.78c2.69.77,6.81,1.96,11.51,3.31l-8.35,7.18c-1.61-5.33-2.78-9.24-3.16-10.49ZM542.14,379.78c2.68.77,6.52,1.87,10.83,3.11l-7.86,6.76c-1.03-3.41-2.03-6.75-2.97-9.87ZM547.31,396.97c2.61.75,6.1,1.75,9.97,2.86l-7.24,6.23c-.88-2.93-1.8-5.99-2.73-9.09ZM555.43,424.06c-.75-2.53-1.86-6.23-3.17-10.6,2.69.77,6.86,1.97,11.62,3.34l-8.45,7.27ZM597.17,422.38c-6.68-1.91-30.57-8.76-45.18-12.96l9.35-8.04c.1-.09.16-.2.23-.3,11.75,3.37,25.2,7.23,28.84,8.27,2.6,5.02,4.95,9.56,6.75,13.04ZM588.01,404.69c-8.51-2.44-27.75-7.96-40.91-11.74l9.92-8.53c.1-.09.16-.2.23-.3,8.39,2.41,17.66,5.07,23.61,6.77,2.34,4.53,4.79,9.26,7.15,13.8ZM578.45,386.24c-10.03-2.88-25.76-7.39-36.72-10.54l10.56-9.08c.1-.09.16-.2.23-.3,6.2,1.78,12.88,3.7,18.35,5.27,1.82,3.52,4.52,8.75,7.58,14.65ZM564.01,358.77l4.46,8.16s0,.01,0,.01c-9.3-2.67-21.19-6.08-30.25-8.68l10.44-8.98,12.06,3.42c0,.07,3.28,6.07,3.28,6.07ZM556.83,345.52l.84,1.53.76,1.44c-.92-.24-28.37-8.14-28.37-8.14l12.76-10.25,6.76,2.16,7.25,13.25ZM537.38,309.75l1.12,2.02,1.81,3.35.91,1.6,4.18,7.74c.14.28.7,1.32.7,1.32.14.27,1.06,1.99,1.1,2.07-.92-.26-23.49-7.3-23.49-7.3l12.48-11.16,1.19.35ZM535.06,305.55c-.88-.21-19.03-5-19.03-5q-.07,0-.07-.07l11.99-8.09,7.1,13.16ZM526.29,289.32l-11.58,7.81c-1.67-4.74-3.49-9.55-5.37-14.43l9.83-6.41,3.56,6.48,3.56,6.55ZM521.83,237.93c.42.84.14,1.88-.7,2.37-.28.14-.56.21-.84.21-.63,0-1.26-.35-1.53-.98l-19.45-36.4c-.42-.91-.14-1.95.77-2.37.84-.49,1.88-.14,2.3.7l19.45,36.47Z"/>
    </g>
    <rect class="st0" x="51.31" y="428.08" width="728.25" height="19.26"/>
    <path class="st0" d="M270.51,204.04l-.7-.42-13.81-9c-.84-.56-1.95-.7-2.93-.42-.91.28-1.74.98-2.16,1.95l-102.47,231.32h7.74l2.3-5.4,35.61-4.69,7.71,7.7c.37.37.86.56,1.35.56s.98-.19,1.35-.56c.74-.75.74-1.95,0-2.69l-5.64-5.63.66-.09c1.04-.14,1.78-1.09,1.64-2.14-.14-1.04-1.06-1.78-2.14-1.64l-3.56.47-11.05-11.04,15.58-2.05,4.1,4.09c.37.37.86.56,1.35.56s.98-.19,1.35-.56c.74-.75.74-1.95,0-2.69l-2.48-2.47c.34-.4.53-.92.45-1.47-.14-1.04-1.08-1.78-2.14-1.64l-1.27.17-10.52-10.51,13.73-1.81,3.77,3.76c.37.37.86.56,1.35.56s.98-.19,1.35-.56c.74-.74.74-1.95,0-2.69l-1.69-1.69.91-.12c1.04-.14,1.78-1.09,1.64-2.14-.14-1.04-1.07-1.79-2.14-1.64l-3.81.5-9.58-9.56,14.06-1.85,3.77,3.76c.37.37.86.56,1.35.56s.98-.19,1.35-.56c.74-.75.74-1.95,0-2.69l-1.69-1.69.91-.12c1.04-.14,1.78-1.09,1.64-2.14-.14-1.04-1.08-1.79-2.14-1.64l-3.81.5-10.53-10.51,9.77-1.28,5.79-.77c.7-.14,1.26-.56,1.46-1.19.21-.63.07-1.32-.42-1.74l-4.32-4.53-8.16-8.58,11.51-1.74,5.79-.84c.63-.14,1.19-.56,1.39-1.19.21-.63.07-1.32-.42-1.74l-4.18-4.18-7.6-7.67,10.74-1.74,5.37-.91c.56-.14,1.05-.49,1.26-1.05.28-.49.21-1.12-.07-1.6l-3.56-5.51-5.02-7.88,8.02-.84,5.65-.56c.56-.07,1.12-.42,1.32-.98.28-.49.28-1.12,0-1.67l-3.7-6.21-4.46-7.6,7.67-1.19,6.21-.98c.98-.14,1.6-1.05,1.46-1.95-.14-.98-1.05-1.6-2.02-1.46l-4.32.7-15.41,2.37,7.18-15.83,11.44,4.67,2.65,1.12c.21.07.42.14.63.14.7,0,1.32-.42,1.6-1.05.42-.91,0-1.95-.91-2.3l-2.79-1.12-11.23-4.6,5.44-12.06,10.88,3.42,2.58.77c.21.07.35.07.56.07.7,0,1.39-.49,1.67-1.19.28-.98-.28-1.95-1.19-2.23l-2.3-.7-10.81-3.35,6.07-13.32,9.62,4.25,2.3.98c.21.07.49.14.7.14.7,0,1.32-.42,1.6-1.05.42-.91,0-1.88-.91-2.3l-2.37-1.05-9.55-4.18,11.71-26.01,8.58,5.51,2.58,1.67c1.6,1.05,3.77.56,4.81-1.05,1.05-1.6.56-3.77-1.05-4.81ZM196.57,354.66s.03.06.06.09l10.39,10.37-14.42,1.9c-.47-.12-.96-.06-1.39.18l-9.92,1.3,5.33-12.53,9.95-1.32ZM179.76,403.06l10.94,10.93-30.48,4.01,5.63-13.23,13.83-1.82s.04.08.08.11ZM186.55,386.85l10.05,10.04-29.01,3.82,5.36-12.6,13.27-1.75c.09.17.18.35.33.49ZM201.17,380.55l-26.49,3.49,4.88-11.46,12.04-1.58,9.58,9.56ZM212.36,348.31l.63.63-.84.14-23.85,3.14,6.62-14.78,6.28-.91,11.16,11.78ZM218.28,329.9l.49.49-.7.07-21.41,3.21,6.14-13.67,4.88-.77,10.6,10.67ZM224.21,311.98l.56.91-.91.14-19.39,3.21,6.97-15.48,5.23-.49,7.53,11.71ZM223.72,282.62l6.69,11.3.77,1.32-1.26.14-16.81,1.74,6.21-13.81,4.39-.7Z"/>
    <path class="st0" d="M220.17,434.15h-23.92c-1.88,0-3.49-1.53-3.49-3.49l-1.94-3.19c0-.35,2.01-11.94,2.08-12.29,3.97-14.5,7.88-28.17,11.71-41.21.42-1.46.84-2.93,1.32-4.32.21-.91.49-1.74.77-2.65.07-.35.21-.7.28-1.05.07-.21.14-.49.21-.7.42-1.26.77-2.51,1.19-3.77.91-3,1.81-5.93,2.65-8.79.42-1.26.77-2.44,1.12-3.63.14-.28.21-.56.21-.77.49-1.26.84-2.51,1.19-3.84,1.19-3.49,2.23-6.97,3.35-10.32.42-1.26.77-2.51,1.19-3.7.07-.21.14-.35.21-.56.35-1.26.77-2.44,1.19-3.7,1.05-3.21,2.09-6.35,3.14-9.41l1.26-3.77c.07-.35.21-.7.35-1.05.49-1.46.98-2.86,1.39-4.25,1.05-3,2.02-5.86,3-8.72.42-1.19.84-2.44,1.32-3.63.07-.49.28-.98.49-1.46.49-1.46.98-2.93,1.46-4.32,1.12-3,2.16-5.93,3.21-8.79.42-1.26.84-2.51,1.32-3.7,1.05-3,2.16-5.93,3.21-8.79.42-1.12.77-2.16,1.19-3.21,1.74-4.67,3.49-9.13,5.09-13.25.42-1.12.84-2.23,1.32-3.28,1.67-4.53,3.35-8.65,4.88-12.41.49-1.12.91-2.23,1.32-3.28,5.16-12.48,8.93-20.71,10.74-24.68.84-1.81,1.26-2.72,1.32-2.79.7-1.39,2.16-2.16,3.63-1.95l.7.14,17.15,2.58c-12.62,30.75-70.57,175.72-66.8,227.95Z"/>
    <path class="st0" d="M251.68,434.15h-28.03c-3.9-50.9,55.23-198.94,66.87-227.39l20.43,3.07c-10.53,21.34-62.62,131.79-59.27,224.32Z"/>
    <path class="st0" d="M268.59,202.24l-54.87-34.46c-.8-.5-1.85-.28-2.38.51-.53.8-.32,1.88.48,2.42l6.59,4.39c-.21.12-.45.17-.6.38l-3.57,4.98-2.73-1.7c-.81-.5-1.89-.25-2.4.56-.51.82-.26,1.89.56,2.4l9.72,6.04c-.32,1.23-.18,2.6.77,4.04.96,1.45,2.5,2.84,4.34,3.9,1.85,1.07,3.82,1.71,5.55,1.81.17.01.33.01.49.01,1.92,0,3.38-.7,4.13-2.01.82-1.41.61-3.18-.58-4.99-.96-1.45-2.5-2.84-4.34-3.91-2.93-1.69-5.82-2.11-7.88-1.44l-4.66-2.89,3.44-4.8c.17-.24.15-.52.19-.8l44.91,29.92c1.28.81,2.9.44,3.66-.79.77-1.22.4-2.84-.82-3.61Z"/>
    <path class="st0" d="M299.48,85.23c.66,7.15,6.5,12.91,13.89,13.23l.59.02h34.15c-.04-1.06-.34-2.74-1.03-3.84-3.15-5.16-13.95-4.41-20.86-5.8-8.41-1.41-25.23-4.21-25.23-4.21l-1.5-.29v.89Z"/>
    <path class="st0" d="M317.48,116.5c1.64,7.9,7.89,14.13,15.92,15.74.74.15,4.2.88,5.5.85l-.74-2.02c-1.52-4.21-1.63-10.74-.66-14.95l-20.15-.2.13.58Z"/>
    <path class="st0" d="M501.78,115.91l-18.52.2c1.06,4.57.83,11.88-1.09,15.98l-.4.86,3.31-.4c9.1-.78,16.4-7.43,18.18-16.06l.15-.59h-1.64Z"/>
    <path class="st0" d="M512.01,102.06h-38.28c1.85,3.56,5.62,7,7.91,10.41l.36.62h17.59c1.04,0,2.13-.28,2.49-.34,5.47-.95,9.84-4.93,11.42-10.09l.08-.59h-1.58Z"/>
    <path class="st0" d="M377.08,111.72c-2.92,2.49-9.3,9-9.3,9l-19.52,22.48-.69.8c-4.12,3.5-8.36,5.73-13.09,5.73h-.19l.09.12h-.09c0,2.24,1.61,4.12,3.74,4.54h143.53c2.12-.42,3.74-2.3,3.74-4.54,0,0-1.56,0-.02,0-4.65,0-8.85-2.09-12.91-5.44l-3.24-3.99s-18.6-20.83-19.63-21.76c-9.99-11.01-22.13-20.68-39.66-20.68-13.72,0-24.1,5.93-32.75,13.75"/>
    <path class="st0" d="M519.3,84.71c-8.25,1.38-16.51,2.75-24.76,4.13-6.91,1.39-17.71.64-20.86,5.8-.69,1.1-1,2.17-1.04,3.24v.54h2.63s31.52.06,31.52.06h.59c7.23-.33,12.99-5.86,13.84-12.81h.04s.14-1.35.14-1.35l-2.11.4Z"/>
    <path class="st0" d="M307.14,102.06l.1.59c1.77,5.74,6.98,10.02,13.32,10.29l3.25.14,14.78-.03.53-.59c2.29-3.41,6.06-6.85,7.91-10.4h-.07s-39.8,0-39.8,0Z"/>
    <path class="st0" d="M289.48,56.24c-.96,2.03-1.54,4.29-1.64,6.68-.34,7.83,4.54,14.68,11.57,17.16v.08s.88.21.88.21c1.24.36,2.54.59,3.88.67,10.59,1.78,35.39,5.57,38.01,5.97,5.51,1.35,9.6,6.31,9.6,12.22,0,3.79-1.69,7.19-4.35,9.51l-1.62,1.48c-3.62,3.69-5.88,8.74-5.88,14.31,0,4.91,1.74,9.43,4.64,12.94l.4.4,24.14-28.12c1.02-2.79,1.63-5.76,1.63-8.9,0-11.36-7.22-21.01-17.34-24.63h.02s-1.71-.56-1.71-.56h0s-60.74-20.02-60.74-20.02l-1.15-.38-.34.97Z"/>
    <path class="st0" d="M469.04,75.67h0s-1.71.55-1.71.55h.02c-10.11,3.62-17.34,13.27-17.34,24.63,0,3.9.86,7.59,2.39,10.91l22.87,26.63.91-.93c2.9-3.52,4.64-8.03,4.64-12.94,0-5.57-2.25-10.62-5.87-14.31l-1.62-1.48c-2.66-2.31-4.35-5.71-4.35-9.51,0-5.91,4.1-10.87,9.61-12.22,2.62-.4,27.42-4.2,38-5.97,1.34-.07,4.75-.91,4.76-.96,7.02-2.48,11.91-9.33,11.58-17.16-.1-2.24-.63-4.37-1.48-6.3h0s-.52-1.45-.52-1.45l-61.87,20.51Z"/>
    <path class="st0" d="M398.87,160.52l1.56,66.46,3.43,2.11c1.07.66,2.13,1.32,3.17,1.97l2.97,1.83h-.07c3.52,2.24,6.78,4.41,9.91,6.59l.17-6.23,1.76-72.75h-22.92Z"/>
    <path class="st0" d="M401.51,273.11l.76,32.63c.24.25.46.49.72.74l1.63,1.59c3.75,3.4,8.4,6.81,13.22,10.09l1.05-38.74c-.85-.91-1.76-1.82-2.8-2.74l-1-.84c-3.39-2.86-7.65-5.79-13.56-9.32l-.04,6.58Z"/>
    <path class="st0" d="M404.44,397.97s.2,5.75,5.72,5.82c5.52.07,5.9-5.82,5.9-5.82l1.15-48.05c-3.71-2.57-7.97-5.13-12.43-7.8-.55-.33-1.12-.68-1.67-1.01l1.33,56.85Z"/>
    <g>
      <path class="st0" d="M434.08,176.78c-8.57,9.89-2.04,18.27,3.45,21.91,1.87,1.46,3.75,2.42,5.04,2.74l-.14-1.03c-.89-7.66,7.58-8.84,13.08-5.46,5.32,4.41,6.02,13.91-13.39,26.12-5.35,3.37-10.63,6.62-15.85,9.86l-.31,13c2.39,1.81,4.73,3.64,6.95,5.55.51.44.96.88,1.46,1.32,13.65-6.98,27.41-13.53,36.3-21.39,16.46-14.55,21.12-35.75,4.5-50.92-1.09-.99-2.21-1.84-3.36-2.63-5.86-4.48-12.52-6.25-18.7-6.25-8.18,0-15.51,3.11-19.03,7.18"/>
      <g class="st2">
        <polygon class="st0" points="428.5 169.6 425.51 176.71 425.51 169.6 428.5 169.6"/>
        <polygon class="st0" points="440.82 169.6 425.51 206 425.51 176.71 428.5 169.6 440.82 169.6"/>
        <polygon class="st0" points="453.14 169.6 425.51 235.28 425.51 206 440.82 169.6 453.14 169.6"/>
        <polygon class="st0" points="465.45 169.6 431.31 250.79 425.51 250.79 425.51 235.28 453.14 169.6 465.45 169.6"/>
        <polygon class="st0" points="477.77 169.6 443.62 250.79 431.31 250.79 465.45 169.6 477.77 169.6"/>
        <polygon class="st0" points="490.09 169.6 455.94 250.79 443.62 250.79 477.77 169.6 490.09 169.6"/>
        <polygon class="st0" points="491.79 194.83 468.26 250.79 455.94 250.79 490.09 169.6 491.79 169.6 491.79 194.83"/>
        <polygon class="st0" points="491.79 224.12 480.58 250.79 468.26 250.79 491.79 194.83 491.79 224.12"/>
        <polygon class="st0" points="480.58 250.79 491.79 224.12 491.79 250.79 480.58 250.79"/>
      </g>
    </g>
    <path class="st0" d="M371.3,363.57c1.21,17.43,23.36,25.35,23.36,25.35,0,0,1.38.51,2.14.62-1.09-.56-1.43-.77-1.91-1.08-2.61-1.65-10.94-7.85-11.72-20.08-.4-6.42,4.03-15.15,13.29-22.55.18-.14.38-.28.56-.42l-.19-8.15c-1.57-.98-3.14-1.98-4.7-3.01l-1.79-1.19c-12.41,9.88-19.69,20.84-19.03,30.5"/>
    <g>
      <path class="st0" d="M346.96,177.37c-2.42,2.21-4.34,4.56-5.89,6.98-10.45,14.5-5.16,32.56,9.41,45.43.61.54,1.24,1.07,1.9,1.6,10.06,7.97,25.67,15.26,40.32,23.06,0,0,19.89,11.15,26.41,16.67v-.02c7.74,6.56,12.58,13.77,11.81,22.09-.3,3.19-2.28,7.69-6.45,12.6l-.4,16.55c.43.3.9.63,1.42.99l1.92,1.34c13.87-9.96,24.83-22.52,20.97-42.64-.86-4.54-2.79-8.86-5.56-13.01-3.66-5.23-8.61-10.27-13.93-14.85-8.19-7.04-17.62-13.22-28.28-19.81v.06c-2.67-1.68-5.43-3.38-8.18-5.07-1.43-.87-2.85-1.74-4.31-2.63h.07c-3.13-1.93-6.28-3.88-9.43-5.87-39.65-24.96,4.63-38.64.81-20.52,4.83-1.18,18.06-11.28,7.24-23.75-3.53-4.07-10.89-7.2-19.08-7.2-6.92,0-14.44,2.23-20.77,8"/>
      <g class="st1">
        <polygon class="st0" points="342.38 169.36 330.62 197.31 330.62 169.36 342.38 169.36"/>
        <polygon class="st0" points="354.69 169.36 330.62 226.6 330.62 197.31 342.38 169.36 354.69 169.36"/>
        <polygon class="st0" points="367.01 169.36 330.62 255.89 330.62 226.6 354.69 169.36 367.01 169.36"/>
        <polygon class="st0" points="379.33 169.36 330.62 285.18 330.62 255.89 367.01 169.36 379.33 169.36"/>
        <polygon class="st0" points="391.65 169.36 335 304.05 330.62 302.21 330.62 285.18 379.33 169.36 391.65 169.36"/>
        <polygon class="st0" points="403.96 169.36 345.47 308.46 335 304.05 391.65 169.36 403.96 169.36"/>
        <polygon class="st0" points="416.28 169.36 355.93 312.86 345.47 308.46 403.96 169.36 416.28 169.36"/>
        <polygon class="st0" points="419.29 169.36 427.2 172.69 366.4 317.26 355.93 312.86 416.28 169.36 419.29 169.36"/>
        <rect class="st0" x="323.61" y="241.5" width="156.83" height="11.35" transform="translate(18.32 521.94) rotate(-67.19)"/>
        <polygon class="st0" points="437.67 177.09 448.13 181.49 387.92 324.67 384.02 324.67 376.86 321.66 437.67 177.09"/>
        <polygon class="st0" points="448.13 181.49 452.24 183.22 452.24 201.02 400.23 324.67 387.92 324.67 448.13 181.49"/>
        <polygon class="st0" points="452.24 230.31 412.55 324.67 400.23 324.67 452.24 201.02 452.24 230.31"/>
        <polygon class="st0" points="452.24 259.6 424.87 324.67 412.55 324.67 452.24 230.31 452.24 259.6"/>
        <polygon class="st0" points="452.24 288.89 437.19 324.67 424.87 324.67 452.24 259.6 452.24 288.89"/>
        <polygon class="st0" points="452.24 318.17 449.5 324.67 437.19 324.67 452.24 288.89 452.24 318.17"/>
        <polygon class="st0" points="449.5 324.67 452.24 318.17 452.24 324.67 449.5 324.67"/>
      </g>
    </g>
    <path class="st0" d="M349.98,239.35l-.03.02c-7.14-4.37-11.85-10.57-14.85-15.83-17.11,35.02-66.56,144.29-52.25,210.62h21.83c1.12,0,2.16-.56,2.86-1.46.63-.98.77-2.16.42-3.21-.2-.54-17.17-51.16,42.03-190.13Z"/>
    <path class="st0" d="M371.15,283.67c-3.99,20.88,7.76,33.71,22.29,43.93.71.5,2.12,1.52,2.12,1.52,1.44.95,2.89,1.89,4.35,2.8,8.94,5.6,18.2,10.56,24.99,15.98,1.04.83,3.88,3.59,4.4,4.12,6.38,6.49,9.42,13.47,9.08,18.86-.55,8.75-4.91,14.42-8.37,17.6-1.66,1.69-4.26,3.18-4.26,3.18,0,0,7.6-2.74,14.19-8.5,5-4.13,9.65-9.98,10.17-17.69.68-9.91-6.94-21.2-19.93-31.28-1.19-.85-10.66-7.47-10.93-7.64-8.55-5.63-15.5-10.58-20.63-15.64h.06c-5.86-5.73-9.26-11.28-9.35-17.11-.07-5.54,2.28-10.7,6.12-15.45l-.36-15.52-3.88-2.17s-3.09-1.62-3.89-2.04c-8.48,7.78-14.42,15.94-16.16,25.05"/>
    <path class="st0" d="M332.22,217.69c-1.07-2.58-1.6-4.36-1.6-4.36l-16.04-2.94c-9.13,18.48-62.9,130.47-59.55,223.77h24.34c-15.02-71.64,38.33-187.34,52.85-216.46Z"/>
  </g>
</svg>