<?xml version="1.0" encoding="UTF-8"?>
<svg id="Layer_1" xmlns="http://www.w3.org/2000/svg" version="1.1" xmlns:xlink="http://www.w3.org/1999/xlink" viewBox="0 0 676.2 502.5">
  <!-- Generator: Adobe Illustrator 29.6.1, SVG Export Plug-In . SVG Version: 2.1.1 Build 9)  -->
  <defs>
    <style>
      .st0 {
        fill: url(#linear-gradient2);
      }

      .st1 {
        fill: url(#linear-gradient10);
      }

      .st2 {
        fill: url(#linear-gradient21);
      }

      .st3 {
        fill: #fff;
      }

      .st4 {
        fill: url(#linear-gradient1);
      }

      .st5 {
        fill: url(#linear-gradient9);
      }

      .st6 {
        fill: url(#linear-gradient18);
      }

      .st7 {
        fill: url(#linear-gradient8);
      }

      .st8 {
        fill: url(#linear-gradient11);
      }

      .st9 {
        fill: none;
      }

      .st10 {
        fill: url(#linear-gradient16);
      }

      .st11 {
        clip-path: url(#clippath-1);
      }

      .st12 {
        fill: url(#linear-gradient19);
      }

      .st13 {
        fill: url(#linear-gradient12);
      }

      .st14 {
        fill: #184b9a;
      }

      .st15 {
        fill: url(#linear-gradient7);
      }

      .st16 {
        fill: url(#linear-gradient20);
      }

      .st17 {
        fill: url(#linear-gradient4);
      }

      .st18 {
        fill: url(#linear-gradient14);
      }

      .st19 {
        fill: url(#linear-gradient5);
      }

      .st20 {
        fill: url(#New_Gradient_Swatch);
      }

      .st21 {
        fill: url(#linear-gradient3);
      }

      .st22 {
        fill: url(#linear-gradient15);
      }

      .st23 {
        fill: url(#linear-gradient17);
      }

      .st24 {
        fill: url(#linear-gradient6);
      }

      .st25 {
        fill: url(#linear-gradient13);
      }

      .st26 {
        fill: #203d7e;
      }

      .st27 {
        fill: url(#linear-gradient);
      }

      .st28 {
        clip-path: url(#clippath);
      }
    </style>
    <linearGradient id="linear-gradient" x1="390.64" y1="389.41" x2="436.97" y2="389.41" gradientTransform="translate(0 503.42) scale(1 -1)" gradientUnits="userSpaceOnUse">
      <stop offset="0" stop-color="#194a9a"/>
      <stop offset="1" stop-color="#223468"/>
    </linearGradient>
    <linearGradient id="linear-gradient1" x1="385" y1="274.01" x2="564.2" y2="274.01" gradientTransform="translate(0 503.42) scale(1 -1)" gradientUnits="userSpaceOnUse">
      <stop offset="0" stop-color="#194a9a"/>
      <stop offset="1" stop-color="#223468"/>
    </linearGradient>
    <linearGradient id="linear-gradient2" x1="117.48" y1="269.8" x2="180.11" y2="255.83" gradientTransform="translate(0 503.42) scale(1 -1)" gradientUnits="userSpaceOnUse">
      <stop offset="0" stop-color="#194a9a"/>
      <stop offset="1" stop-color="#223468"/>
    </linearGradient>
    <linearGradient id="linear-gradient3" x1="-79.99" y1="313.42" x2="728.43" y2="133.08" gradientTransform="translate(0 503.42) scale(1 -1)" gradientUnits="userSpaceOnUse">
      <stop offset="0" stop-color="#194a9a"/>
      <stop offset="1" stop-color="#223468"/>
    </linearGradient>
    <linearGradient id="linear-gradient4" x1="-79.25" y1="316.74" x2="729.17" y2="136.4" gradientTransform="translate(0 503.42) scale(1 -1)" gradientUnits="userSpaceOnUse">
      <stop offset="0" stop-color="#194a9a"/>
      <stop offset="1" stop-color="#223468"/>
    </linearGradient>
    <linearGradient id="linear-gradient5" x1="-55.16" y1="424.75" x2="753.27" y2="244.41" gradientTransform="translate(0 503.42) scale(1 -1)" gradientUnits="userSpaceOnUse">
      <stop offset="0" stop-color="#194a9a"/>
      <stop offset="1" stop-color="#223468"/>
    </linearGradient>
    <linearGradient id="linear-gradient6" x1="73.53" y1="529.53" x2="728.72" y2="253.98" gradientTransform="translate(0 503.42) scale(1 -1)" gradientUnits="userSpaceOnUse">
      <stop offset="0" stop-color="#194a9a"/>
      <stop offset="1" stop-color="#223468"/>
    </linearGradient>
    <linearGradient id="linear-gradient7" x1="65.39" y1="510.19" x2="720.58" y2="234.63" gradientTransform="translate(0 503.42) scale(1 -1)" gradientUnits="userSpaceOnUse">
      <stop offset="0" stop-color="#194a9a"/>
      <stop offset="1" stop-color="#223468"/>
    </linearGradient>
    <linearGradient id="linear-gradient8" x1="86.2" y1="559.67" x2="741.39" y2="284.11" gradientTransform="translate(0 503.42) scale(1 -1)" gradientUnits="userSpaceOnUse">
      <stop offset="0" stop-color="#194a9a"/>
      <stop offset="1" stop-color="#223468"/>
    </linearGradient>
    <linearGradient id="linear-gradient9" x1="92.21" y1="573.93" x2="747.39" y2="298.38" gradientTransform="translate(0 503.42) scale(1 -1)" gradientUnits="userSpaceOnUse">
      <stop offset="0" stop-color="#194a9a"/>
      <stop offset="1" stop-color="#223468"/>
    </linearGradient>
    <linearGradient id="linear-gradient10" x1="70.5" y1="522.33" x2="725.69" y2="246.77" gradientTransform="translate(0 503.42) scale(1 -1)" gradientUnits="userSpaceOnUse">
      <stop offset="0" stop-color="#194a9a"/>
      <stop offset="1" stop-color="#223468"/>
    </linearGradient>
    <linearGradient id="linear-gradient11" x1="97.21" y1="585.86" x2="752.4" y2="310.3" gradientTransform="translate(0 503.42) scale(1 -1)" gradientUnits="userSpaceOnUse">
      <stop offset="0" stop-color="#194a9a"/>
      <stop offset="1" stop-color="#223468"/>
    </linearGradient>
    <linearGradient id="linear-gradient12" x1="70.34" y1="521.95" x2="725.52" y2="246.4" gradientTransform="translate(0 503.42) scale(1 -1)" gradientUnits="userSpaceOnUse">
      <stop offset="0" stop-color="#194a9a"/>
      <stop offset="1" stop-color="#223468"/>
    </linearGradient>
    <linearGradient id="linear-gradient13" x1="72.69" y1="527.53" x2="727.87" y2="251.97" gradientTransform="translate(0 503.42) scale(1 -1)" gradientUnits="userSpaceOnUse">
      <stop offset="0" stop-color="#194a9a"/>
      <stop offset="1" stop-color="#223468"/>
    </linearGradient>
    <linearGradient id="linear-gradient14" x1="96.31" y1="583.69" x2="751.49" y2="308.13" gradientTransform="translate(0 503.42) scale(1 -1)" gradientUnits="userSpaceOnUse">
      <stop offset="0" stop-color="#194a9a"/>
      <stop offset="1" stop-color="#223468"/>
    </linearGradient>
    <linearGradient id="linear-gradient15" x1="52.88" y1="480.44" x2="708.07" y2="204.88" gradientTransform="translate(0 503.42) scale(1 -1)" gradientUnits="userSpaceOnUse">
      <stop offset="0" stop-color="#194a9a"/>
      <stop offset="1" stop-color="#223468"/>
    </linearGradient>
    <linearGradient id="linear-gradient16" x1="22.32" y1="407.78" x2="677.53" y2="132.21" gradientTransform="translate(0 503.42) scale(1 -1)" gradientUnits="userSpaceOnUse">
      <stop offset="0" stop-color="#194a9a"/>
      <stop offset="1" stop-color="#223468"/>
    </linearGradient>
    <clipPath id="clippath">
      <path class="st9" d="M345.24,120.54c-7.56,8.72-1.79,16.1,3.04,19.32,1.65,1.29,3.31,2.14,4.44,2.42l-.12-.91c-.78-6.75,6.69-7.8,11.54-4.81,4.69,3.89,5.3,12.26-11.8,23.03-4.72,2.97-9.38,5.84-13.97,8.69l-.28,11.47c2.11,1.59,4.17,3.21,6.13,4.89.45.39.85.78,1.29,1.16,12.03-6.16,24.17-11.93,32.01-18.86,14.51-12.82,18.62-31.52,3.97-44.9-.96-.87-1.95-1.62-2.96-2.32-5.17-3.95-11.04-5.51-16.48-5.51-7.21,0-13.67,2.74-16.78,6.33h-.03Z"/>
    </clipPath>
    <linearGradient id="linear-gradient17" x1="-1.6" y1="350.9" x2="653.58" y2="75.34" gradientTransform="translate(0 503.42) scale(1 -1)" gradientUnits="userSpaceOnUse">
      <stop offset="0" stop-color="#194a9a"/>
      <stop offset="1" stop-color="#223468"/>
    </linearGradient>
    <clipPath id="clippath-1">
      <path class="st9" d="M268.42,121.06c-2.14,1.95-3.82,4.02-5.19,6.16-9.21,12.78-4.55,28.71,8.29,40.06.54.47,1.09.94,1.68,1.41,8.87,7.03,22.63,13.46,35.55,20.33,0,0,17.53,9.83,23.29,14.7v-.02c6.82,5.78,11.09,12.14,10.41,19.48-.26,2.81-2.01,6.78-5.69,11.11l-.35,14.59c.38.26.79.55,1.25.87l1.69,1.18c12.23-8.78,21.9-19.85,18.49-37.6-.76-4.01-2.46-7.81-4.91-11.47-3.23-4.62-7.59-9.06-12.29-13.09-7.22-6.21-15.54-11.66-24.93-17.47v.05c-2.35-1.48-4.78-2.98-7.21-4.47-1.26-.77-2.51-1.53-3.8-2.32h.07c-2.76-1.7-5.53-3.42-8.32-5.17-34.96-22.01,4.08-34.07.71-18.09,4.26-1.04,15.93-9.94,6.39-20.94-3.11-3.59-9.6-6.35-16.82-6.35-6.1,0-12.73,1.96-18.31,7.06h0Z"/>
    </clipPath>
    <linearGradient id="linear-gradient18" x1="-57.27" y1="313.98" x2="693.16" y2="146.58" gradientTransform="translate(0 503.42) scale(1 -1)" gradientUnits="userSpaceOnUse">
      <stop offset="0" stop-color="#194a9a"/>
      <stop offset="1" stop-color="#223468"/>
    </linearGradient>
    <linearGradient id="linear-gradient19" x1="11.56" y1="382.19" x2="666.74" y2="106.64" gradientTransform="translate(0 503.42) scale(1 -1)" gradientUnits="userSpaceOnUse">
      <stop offset="0" stop-color="#194a9a"/>
      <stop offset="1" stop-color="#223468"/>
    </linearGradient>
    <linearGradient id="linear-gradient20" x1="-58.15" y1="315.51" x2="691.51" y2="148.28" gradientTransform="translate(0 503.42) scale(1 -1)" gradientUnits="userSpaceOnUse">
      <stop offset="0" stop-color="#194a9a"/>
      <stop offset="1" stop-color="#223468"/>
    </linearGradient>
    <linearGradient id="linear-gradient21" x1="44.01" y1="143.76" x2="613.31" y2="143.76" gradientTransform="translate(0 503.42) scale(1 -1)" gradientUnits="userSpaceOnUse">
      <stop offset="0" stop-color="#194a9a"/>
      <stop offset="1" stop-color="#223468"/>
    </linearGradient>
    <linearGradient id="New_Gradient_Swatch" data-name="New Gradient Swatch" x1="-10.92" y1="152.98" x2="656.7" y2="433.77" gradientUnits="userSpaceOnUse">
      <stop offset="0" stop-color="#184a99"/>
      <stop offset="1" stop-color="#233468"/>
    </linearGradient>
  </defs>
  <g>
    <g>
      <path class="st27" d="M392.9,130.26l33.69-25.35,3.14,3.84-3.9,2.79c-.63-.17-1.31-.28-2.1-.17-1.52.19-3.22.86-4.78,1.91-2.31,1.54-3.91,3.57-4.28,5.44-.2,1-.05,1.92.45,2.67.67,1.01,1.84,1.55,3.33,1.55.27,0,.56-.02.85-.05,1.52-.19,3.22-.86,4.78-1.91,3.24-2.16,4.77-5.12,4.06-7.3l8.19-5.85c.69-.5.85-1.45.36-2.14-.49-.69-1.45-.85-2.14-.36l-2.31,1.65-3.19-3.9,3.44-2.59c.66-.5.81-1.44.33-2.12-.49-.69-1.45-.85-2.14-.36l-40.04,28.48s1.09,1.42,2.27,3.79v-.02Z"/>
      <path class="st4" d="M423.22,151.46s97.94,190.21,97.94,191.94l43.04-.64-30.87-58.06c0-.06-67.92-131.38-75.04-145.14l25.87-17.89,2.05,2.86-2.76,1.72c-1.49-.42-3.47-.13-5.52,1.05-1.31.76-2.41,1.75-3.09,2.79-.88,1.34-1.03,2.71-.41,3.78.59,1.03,1.74,1.55,3.15,1.55,1.28,0,2.79-.43,4.3-1.3,2.69-1.55,4.04-3.75,3.74-5.6l6.45-4.01c.72-.45.94-1.4.5-2.12-.45-.72-1.4-.94-2.12-.5l-1.6,1-2.14-2.99,5.09-3.52c.68-.47.87-1.4.41-2.1-.46-.71-1.41-.91-2.13-.45l-43.36,28.19-53.29-10.67c2.05,4.61,3.97,12.07.61,20.76-.64,1.67-1.27,3.07-1.88,4.39l9.44,17.38-5.1,2.83c-2.24-5.14-4.58-10.22-6.93-15.28-1.84,2.98-3.43,4.56-4.57,5.35,26.4,59.53,53.33,147.04,57.41,176.46l7,.44c-.12.51-.05-1.16.31-.74.33.39.8.58,1.27.58.39,0,.78-.13,1.1-.41l11.19-9.63c.09-.08.14-.18.21-.27,11.89,3.41,25.8,7.4,26.27,7.53.14.04.29.06.43.06.25,0,.46-.13.68-.23.8,1.54,1.26,2.42,1.26,2.42l7.5,2.25c7.72.02,18.22-2.25,18.22-2.25l-97.32-190.14c-.37-.74-.12-1.66.68-2.09.74-.37,1.66-.06,2.03.68l-.02.02ZM480.15,243.25c-.18.12-.43.18-.68.18-.55,0-1.11-.31-1.35-.86l-21.64-42.61c-.37-.74-.12-1.66.68-2.09.74-.37,1.66-.06,2.03.68l21.64,42.67c.43.74.12,1.66-.68,2.03h0ZM493.8,269.87c-.25.12-.49.18-.74.18-.55,0-1.11-.25-1.35-.8l-8.61-16.29c-.43-.74-.12-1.66.61-2.09.74-.37,1.66-.12,2.09.68l8.61,16.29c.43.74.12,1.66-.61,2.03ZM557.79,339.24l-6.88.73-8.22-15.02,5.67-2.99,9.43,17.28h0ZM546.76,319.01l-5.68,2.99-7.86-14.37,5.7-3.01,7.84,14.38h0ZM537.3,301.68l-5.7,3.01-7.01-12.81,5.72-3.01,6.99,12.81h0ZM528.22,284.75l-5.78,3.07-6.46-12.73,5.78-2.77,6.46,12.42h0ZM520.36,269.63l-5.78,2.71-6.09-11.93,5.59-2.89,6.27,12.11h.01ZM512.67,254.75l-5.59,2.95-5.84-11.5,5.53-2.89,5.9,11.44h0ZM505.35,240.61l-5.53,2.83-5.96-11.74,5.41-2.89,6.09,11.8h-.01ZM497.85,226.1l-5.41,2.89-6.09-11.99,5.53-2.46,5.96,11.56h.01ZM490.48,211.83l-5.53,2.46-5.53-10.88,5.16-2.95,5.9,11.37ZM483.16,197.75l-5.16,2.89-6.21-12.17,5.1-2.83,6.27,12.11ZM475.47,182.88l-5.04,2.89-5.53-10.82,4.92-3.01,5.66,10.94h-.01ZM468.4,169.17l-4.92,3.01-5.72-11.19,4.8-3.07,5.84,11.25h0ZM454.44,142.21l6.71,12.94-4.73,3.14-6.56-12.9,4.58-3.17h0ZM397.7,179.56l5.35-2.95,8.67,15.86-6.95,4.18c-2.27-5.66-4.61-11.37-7.07-17.09ZM405.94,199.54l7.19-4.37,5.16,9.47.25.37c0,.06.25.55.25.55l.02.03c-.31.16-8.38,5.38-8.38,5.38-1.41-3.75-2.95-7.56-4.49-11.44h0ZM418.73,233.17l12.97,3.38-8.91,7.99c-1.29-3.63-2.64-7.44-4.06-11.37h0ZM424.94,250.75l12.6,3.93-8.85,7.07c-1.17-3.44-2.4-7.13-3.75-11.01h0ZM430.78,268.21l11.99,3.44-8.55,7.25c-.92-3.07-2.09-6.64-3.44-10.7h0ZM435.73,283.66c2.37.68,6,1.72,10.15,2.91l-7.36,6.33c-1.42-4.7-2.45-8.15-2.79-9.25h0ZM440.51,299.52c2.36.68,5.75,1.65,9.55,2.74l-6.93,5.96c-.9-3.01-1.79-5.95-2.62-8.7h0ZM445.07,314.68c2.3.66,5.37,1.54,8.79,2.52l-6.38,5.49c-.78-2.58-1.59-5.29-2.41-8.02h0ZM452.23,338.56c-.66-2.23-1.64-5.49-2.8-9.35,2.37.68,6.04,1.74,10.25,2.94l-7.45,6.41ZM489.03,337.08c-5.89-1.68-26.95-7.73-39.84-11.43l8.25-7.09c.09-.08.14-.18.21-.27,10.36,2.97,22.22,6.38,25.43,7.29,2.29,4.43,4.37,8.43,5.95,11.5h0ZM480.95,321.49c-7.5-2.15-24.47-7.02-36.07-10.35l8.75-7.52c.09-.08.14-.18.21-.27,7.4,2.12,15.57,4.47,20.81,5.97,2.07,3.99,4.23,8.16,6.3,12.17h0ZM472.53,305.22c-8.84-2.53-22.72-6.52-32.38-9.29l9.31-8c.09-.08.14-.18.21-.27,5.47,1.57,11.36,3.26,16.18,4.64,1.61,3.11,3.99,7.71,6.68,12.92h0ZM459.8,281l3.93,7.19h0c-8.2-2.34-18.69-5.35-26.67-7.64l9.2-7.91,10.64,3.01c0,.06,2.89,5.35,2.89,5.35h0ZM453.47,269.32l.74,1.35.67,1.27c-.81-.22-25.01-7.17-25.01-7.17l11.25-9.04,5.96,1.91,6.39,11.68h0ZM436.31,237.78l.98,1.78,1.6,2.95.8,1.41,3.69,6.82c.12.25.62,1.17.62,1.17.12.24.94,1.76.97,1.82-.81-.23-20.71-6.43-20.71-6.43l11-9.84,1.05.31h0ZM434.27,234.07c-.77-.19-16.77-4.41-16.77-4.41-.04,0-.06-.02-.06-.06l10.57-7.13,6.26,11.6h0ZM426.54,219.76l-10.21,6.89c-1.48-4.18-3.07-8.42-4.73-12.73l8.67-5.66,3.14,5.72,3.14,5.78h-.01ZM422.6,174.45c.37.74.12,1.66-.62,2.09-.25.12-.49.18-.74.18-.55,0-1.11-.31-1.35-.86l-17.15-32.09c-.37-.8-.12-1.72.68-2.09.74-.43,1.66-.12,2.03.62l17.15,32.15h0Z"/>
    </g>
    <path class="st0" d="M201.02,144.57l-.62-.37-12.17-7.93c-.74-.49-1.72-.61-2.58-.37-.8.25-1.54.86-1.91,1.72l-90.34,203.95h6.82l2.03-4.76,31.4-4.13,6.8,6.79c.33.33.76.49,1.19.49s.86-.16,1.19-.49c.65-.66.65-1.72,0-2.37l-4.97-4.96.59-.08c.92-.12,1.57-.96,1.44-1.88-.12-.92-.94-1.57-1.88-1.44l-3.14.41-9.74-9.73,13.74-1.81,3.62,3.61c.33.33.76.49,1.19.49s.86-.16,1.19-.49c.65-.66.65-1.72,0-2.37l-2.18-2.18c.3-.35.46-.81.4-1.3-.12-.92-.95-1.57-1.88-1.44l-1.12.15-9.28-9.27,12.11-1.59,3.32,3.31c.33.33.76.49,1.19.49s.86-.16,1.19-.49c.65-.66.65-1.72,0-2.37l-1.49-1.49.8-.11c.92-.12,1.57-.96,1.44-1.88-.12-.92-.94-1.58-1.88-1.44l-3.36.44-8.44-8.43,12.39-1.63,3.32,3.31c.33.33.76.49,1.19.49s.86-.16,1.19-.49c.65-.66.65-1.72,0-2.37l-1.49-1.49.8-.11c.92-.12,1.57-.96,1.44-1.88-.12-.92-.95-1.58-1.88-1.44l-3.36.44-9.28-9.27,8.62-1.13,5.1-.68c.61-.12,1.11-.49,1.29-1.05.18-.55.06-1.17-.37-1.54l-3.81-4-7.19-7.56,10.14-1.54,5.1-.74c.55-.12,1.05-.49,1.23-1.05.18-.55.06-1.17-.37-1.54l-3.69-3.69-6.7-6.76,9.47-1.54,4.73-.8c.49-.12.92-.43,1.11-.92.25-.43.18-.98-.06-1.41l-3.14-4.86-4.43-6.95,7.07-.74,4.98-.49c.49-.06.98-.37,1.17-.86.25-.43.25-.98,0-1.48l-3.26-5.47-3.93-6.7,6.76-1.05,5.47-.86c.86-.12,1.41-.92,1.29-1.72-.12-.86-.92-1.41-1.78-1.29l-3.81.61-13.59,2.09,6.33-13.96,10.08,4.12,2.34.98c.18.06.37.12.55.12.61,0,1.17-.37,1.41-.92.37-.8,0-1.72-.8-2.03l-2.46-.98-9.9-4.06,4.8-10.64,9.59,3.01,2.27.68c.18.06.31.06.49.06.61,0,1.23-.43,1.48-1.05.25-.86-.25-1.72-1.05-1.97l-2.03-.61-9.53-2.95,5.35-11.74,8.48,3.75,2.03.86c.18.06.43.12.61.12.61,0,1.17-.37,1.41-.92.37-.8,0-1.66-.8-2.03l-2.09-.92-8.42-3.69,10.33-22.93,7.56,4.86,2.27,1.48c1.41.92,3.32.49,4.24-.92s.49-3.32-.92-4.24h-.01ZM135.83,277.37s.03.06.05.08l9.16,9.14-12.71,1.67c-.41-.11-.84-.05-1.22.16l-8.75,1.15,4.7-11.04,8.77-1.17h0ZM121.01,320.05l9.65,9.63-26.88,3.54,4.97-11.67,12.19-1.6s.04.07.07.1ZM126.99,305.76l8.86,8.85-25.58,3.37,4.73-11.11,11.7-1.54c.08.15.16.3.29.43ZM139.89,300.2l-23.36,3.07,4.3-10.11,10.61-1.4,8.44,8.43h0ZM149.75,271.78l.55.55-.74.12-21.03,2.77,5.84-13.03,5.53-.8,9.84,10.39h.01ZM154.97,255.55l.43.43-.61.06-18.87,2.83,5.41-12.05,4.3-.68,9.34,9.41ZM160.2,239.75l.49.8-.8.12-17.09,2.83,6.15-13.65,4.61-.43,6.64,10.33h0ZM159.77,213.86l5.9,9.96.68,1.17-1.11.12-14.82,1.54,5.47-12.17,3.87-.62h.01Z"/>
    <path class="st21" d="M156.63,347.46h-21.09c-1.66,0-3.07-1.35-3.07-3.07l-1.71-2.81c0-.31,1.77-10.53,1.83-10.84,3.5-12.79,6.95-24.84,10.33-36.33.37-1.29.74-2.58,1.17-3.81.18-.8.43-1.54.68-2.34.06-.31.18-.62.25-.92.06-.18.12-.43.18-.61.37-1.11.68-2.21,1.05-3.32.8-2.64,1.6-5.23,2.34-7.75.37-1.11.68-2.15.98-3.2.12-.25.18-.49.18-.68.43-1.11.74-2.21,1.05-3.38,1.05-3.07,1.97-6.15,2.95-9.1.37-1.11.68-2.21,1.05-3.26.06-.18.12-.31.18-.49.31-1.11.68-2.15,1.05-3.26.92-2.83,1.84-5.59,2.77-8.3l1.11-3.32c.06-.31.18-.62.31-.92.43-1.29.86-2.52,1.23-3.75.92-2.64,1.78-5.16,2.64-7.69.37-1.05.74-2.15,1.17-3.2.06-.43.25-.86.43-1.29.43-1.29.86-2.58,1.29-3.81.98-2.64,1.91-5.23,2.83-7.75.37-1.11.74-2.21,1.17-3.26.92-2.64,1.91-5.23,2.83-7.75.37-.98.68-1.91,1.05-2.83,1.54-4.12,3.07-8.05,4.49-11.68.37-.98.74-1.97,1.17-2.89,1.48-4,2.95-7.62,4.3-10.94.43-.98.8-1.97,1.17-2.89,4.55-11.01,7.87-18.26,9.47-21.76.74-1.6,1.11-2.4,1.17-2.46.62-1.23,1.91-1.91,3.2-1.72l.61.12,15.12,2.27c-11.13,27.11-62.22,154.93-58.9,200.98h-.03Z"/>
    <path class="st17" d="M184.42,347.46h-24.72c-3.44-44.88,48.69-175.4,58.96-200.49l18.01,2.7c-9.28,18.81-55.21,116.2-52.26,197.78h0Z"/>
    <path class="st19" d="M199.33,142.99l-48.37-30.38c-.7-.44-1.63-.24-2.1.45-.47.71-.28,1.66.43,2.13l5.81,3.87c-.18.11-.4.15-.53.33l-3.15,4.39-2.41-1.5c-.71-.44-1.67-.22-2.12.5s-.23,1.67.5,2.12l8.57,5.32c-.28,1.09-.16,2.29.68,3.57.84,1.28,2.2,2.5,3.83,3.44s3.37,1.51,4.9,1.6c.15,0,.29,0,.43,0,1.7,0,2.98-.62,3.64-1.77.72-1.24.54-2.81-.51-4.4-.84-1.28-2.2-2.51-3.83-3.44-2.58-1.49-5.13-1.86-6.95-1.27l-4.1-2.55,3.03-4.23c.15-.21.13-.46.16-.7l39.6,26.38c1.13.71,2.55.39,3.23-.69s.35-2.5-.73-3.18h0Z"/>
    <path class="st24" d="M226.56,39.82c.58,6.31,5.73,11.39,12.24,11.67l.52.02h30.11c-.03-.93-.3-2.42-.91-3.38-2.78-4.55-12.3-3.89-18.39-5.11-7.42-1.24-22.24-3.71-22.24-3.71l-1.32-.25v.78-.02Z"/>
    <path class="st15" d="M242.43,67.39c1.44,6.96,6.96,12.46,14.03,13.87.65.13,3.7.78,4.85.75l-.65-1.78c-1.34-3.72-1.44-9.47-.58-13.18l-17.76-.18.11.51h0Z"/>
    <path class="st7" d="M404.93,66.88l-16.33.18c.93,4.03.73,10.48-.96,14.09l-.35.76,2.92-.35c8.03-.69,14.46-6.55,16.03-14.16l.13-.52h-1.44Z"/>
    <path class="st5" d="M413.95,54.66h-33.75c1.63,3.14,4.96,6.17,6.97,9.18l.32.54h15.51c.92,0,1.88-.24,2.19-.3,4.82-.83,8.68-4.35,10.07-8.89l.07-.52h-1.39,0Z"/>
    <path class="st1" d="M294.98,63.18c-2.58,2.2-8.2,7.94-8.2,7.94l-17.21,19.82-.61.71c-3.63,3.09-7.37,5.06-11.54,5.06h-.16l.08.11h-.08c0,1.98,1.42,3.64,3.3,4h126.55c1.87-.37,3.3-2.02,3.3-4,0,0-1.37,0-.02,0-4.1,0-7.8-1.84-11.38-4.8l-2.86-3.52s-16.4-18.37-17.31-19.19c-8.81-9.71-19.51-18.23-34.97-18.23-12.09,0-21.25,5.22-28.88,12.12"/>
    <path class="st8" d="M420.38,39.36c-7.27,1.22-14.55,2.43-21.83,3.64-6.09,1.22-15.62.56-18.39,5.11-.61.97-.88,1.92-.91,2.86v.47h2.32l27.79.05h.52c6.37-.29,11.45-5.16,12.2-11.3h.04l.13-1.19-1.86.35h-.01Z"/>
    <path class="st13" d="M233.32,54.66l.08.52c1.56,5.06,6.15,8.83,11.74,9.07l2.87.12,13.03-.02.46-.52c2.02-3.01,5.34-6.04,6.97-9.17h-35.16.01Z"/>
    <path class="st25" d="M217.75,14.26c-.85,1.79-1.35,3.78-1.45,5.89-.3,6.9,4.01,12.94,10.2,15.13v.07l.78.19c1.09.32,2.24.52,3.42.59,9.34,1.57,31.2,4.91,33.51,5.27,4.86,1.19,8.47,5.56,8.47,10.78,0,3.35-1.49,6.34-3.83,8.38l-1.43,1.3c-3.2,3.25-5.18,7.7-5.18,12.61,0,4.33,1.53,8.31,4.09,11.41l.35.36,21.29-24.79c.9-2.46,1.44-5.08,1.44-7.85,0-10.01-6.37-18.52-15.29-21.71h.02l-1.5-.5h0l-53.55-17.65-1.01-.33-.3.86h-.03Z"/>
    <path class="st18" d="M376.06,31.4h0l-1.5.48h.02c-8.92,3.19-15.29,11.7-15.29,21.72,0,3.44.76,6.69,2.11,9.62l20.16,23.48.8-.82c2.56-3.1,4.09-7.08,4.09-11.41,0-4.91-1.98-9.37-5.18-12.61l-1.43-1.3c-2.34-2.04-3.84-5.04-3.84-8.38,0-5.21,3.61-9.58,8.47-10.78,2.31-.35,24.17-3.7,33.51-5.27,1.18-.07,4.19-.8,4.19-.85,6.19-2.19,10.5-8.23,10.21-15.13-.09-1.97-.55-3.85-1.31-5.55h0l-.46-1.28s-54.55,18.08-54.55,18.08Z"/>
    <path class="st22" d="M314.19,106.2l1.38,58.6,3.03,1.86c.95.59,1.88,1.16,2.79,1.74l2.62,1.62h-.06c3.1,1.97,5.97,3.89,8.74,5.81l.15-5.49,1.55-64.14h-20.21.01Z"/>
    <path class="st10" d="M316.53,205.47l.67,28.77c.21.22.41.44.64.65l1.44,1.4c3.3,3,7.41,6,11.66,8.9l.93-34.16c-.75-.8-1.55-1.6-2.46-2.42l-.88-.74c-2.99-2.52-6.74-5.11-11.96-8.22l-.03,5.81h-.01Z"/>
    <g class="st28">
      <polygon class="st26" points="394.62 114.21 383.76 114.21 372.9 114.21 362.04 114.21 351.18 114.21 340.32 114.21 337.68 114.21 337.68 120.48 337.68 146.3 337.68 172.12 337.68 185.79 342.79 185.79 353.65 185.79 364.51 185.79 375.37 185.79 386.23 185.79 396.12 185.79 396.12 162.28 396.12 136.46 396.12 114.21 394.62 114.21"/>
    </g>
    <path class="st23" d="M289.88,285.23c1.06,15.37,20.59,22.35,20.59,22.35,0,0,1.21.45,1.89.55-.96-.5-1.26-.68-1.69-.95-2.3-1.46-9.65-6.92-10.33-17.7-.35-5.66,3.55-13.35,11.72-19.88.16-.13.34-.24.49-.37l-.17-7.18c-1.39-.86-2.77-1.74-4.14-2.66l-1.58-1.05c-10.94,8.71-17.36,18.38-16.78,26.89"/>
    <g class="st11">
      <polygon class="st26" points="348.4 120.81 339.17 116.93 339.17 116.94 332.2 114 329.55 114 318.69 114 307.82 114 296.96 114 286.1 114 275.24 114 264.38 114 254.02 114 254.02 138.65 254.02 164.47 254.02 190.29 254.02 216.11 254.02 231.13 257.88 232.76 267.11 236.64 276.34 240.52 285.56 244.4 285.56 244.39 384.11 268.16 348.4 120.81"/>
    </g>
    <path class="st6" d="M271.09,175.71l-.03.02c-6.29-3.85-10.44-9.32-13.09-13.96-15.09,30.88-58.68,127.22-46.07,185.7h19.24c.98,0,1.91-.49,2.52-1.29.55-.86.68-1.91.37-2.83-.18-.47-15.14-45.1,37.06-167.63h0Z"/>
    <path class="st12" d="M289.75,214.78c-3.52,18.41,6.84,29.73,19.65,38.73.63.44,1.87,1.34,1.87,1.34,1.27.84,2.55,1.66,3.83,2.47,7.88,4.94,16.04,9.31,22.04,14.09.91.73,3.42,3.16,3.88,3.63,5.63,5.73,8.3,11.87,8.01,16.63-.48,7.71-4.33,12.72-7.38,15.52-1.46,1.49-3.76,2.8-3.76,2.8,0,0,6.7-2.42,12.51-7.5,4.41-3.64,8.5-8.79,8.97-15.6.6-8.74-6.12-18.69-17.57-27.57-1.05-.75-9.4-6.58-9.63-6.74-7.54-4.97-13.66-9.33-18.19-13.79h.05c-5.17-5.05-8.16-9.95-8.24-15.08-.07-4.89,2.01-9.43,5.39-13.62l-.32-13.68-3.42-1.91s-2.72-1.43-3.43-1.8c-7.48,6.86-12.71,14.05-14.24,22.08"/>
    <path class="st16" d="M255.43,156.61c-.95-2.27-1.41-3.85-1.41-3.85l-14.14-2.59c-8.05,16.29-55.46,115.03-52.5,197.29h21.46c-13.24-63.17,33.79-165.18,46.6-190.85h-.01Z"/>
    <g>
      <path class="st14" d="M69.85,420.08h-8.36v22.66h-6.71v-22.66h-8.2v-5.18h23.27v5.18Z"/>
      <path class="st14" d="M97.59,429.39c0,2.72-.51,5.12-1.51,7.21s-2.44,3.7-4.29,4.83c-1.86,1.12-3.97,1.69-6.34,1.69s-4.48-.54-6.31-1.63-3.27-2.65-4.29-4.68c-1.02-2.03-1.56-4.36-1.62-6.98v-1.57c0-2.72.5-5.13,1.5-7.22s2.43-3.69,4.3-4.83c1.87-1.13,3.99-1.7,6.38-1.7s4.46.56,6.31,1.68,3.29,2.72,4.31,4.79,1.54,4.45,1.56,7.13v1.28h0ZM90.76,428.23c0-2.77-.46-4.87-1.39-6.3-.92-1.43-2.25-2.15-3.97-2.15-3.37,0-5.14,2.52-5.34,7.58l-.02,2.04c0,2.73.45,4.82,1.36,6.29s2.25,2.2,4.04,2.2,3-.72,3.92-2.16,1.38-3.51,1.4-6.22v-1.28h0Z"/>
      <path class="st14" d="M109.13,433.29v9.45h-6.71v-27.84h11.11c2.13,0,4.01.39,5.65,1.18,1.64.79,2.91,1.9,3.81,3.35.9,1.45,1.35,3.09,1.35,4.93,0,2.71-.97,4.89-2.92,6.51-1.94,1.63-4.61,2.44-8,2.44h-4.28v-.02ZM109.13,428.11h4.4c1.3,0,2.29-.33,2.97-.98.68-.65,1.02-1.57,1.02-2.75,0-1.3-.35-2.34-1.05-3.12-.7-.78-1.66-1.18-2.87-1.19h-4.48v8.03h.01Z"/>
      <path class="st14" d="M148.06,420.08h-12.1v22.66h-6.71v-27.84h18.82v5.18h0Z"/>
      <path class="st14" d="M176.07,429.39c0,2.72-.51,5.12-1.51,7.21s-2.44,3.7-4.29,4.83c-1.86,1.12-3.97,1.69-6.34,1.69s-4.48-.54-6.31-1.63-3.27-2.65-4.29-4.68c-1.02-2.03-1.56-4.36-1.62-6.98v-1.57c0-2.72.5-5.13,1.5-7.22s2.43-3.69,4.3-4.83c1.87-1.13,3.99-1.7,6.38-1.7s4.46.56,6.31,1.68c1.85,1.12,3.29,2.72,4.31,4.79s1.54,4.45,1.56,7.13v1.28h0ZM169.24,428.23c0-2.77-.46-4.87-1.39-6.3-.92-1.43-2.25-2.15-3.97-2.15-3.37,0-5.14,2.52-5.34,7.58l-.02,2.04c0,2.73.45,4.82,1.36,6.29s2.25,2.2,4.04,2.2,3-.72,3.92-2.16,1.38-3.51,1.4-6.22v-1.28h0Z"/>
      <path class="st14" d="M180.9,442.74v-27.84h10c3.58,0,6.31.66,8.18,1.97s2.8,3.22,2.8,5.72c0,1.44-.33,2.67-1,3.69s-1.64,1.78-2.93,2.26c1.45.38,2.57,1.1,3.35,2.14.78,1.05,1.16,2.32,1.16,3.83,0,2.73-.86,4.78-2.59,6.15s-4.29,2.07-7.68,2.1h-11.3v-.02ZM187.61,426.5h3.5c1.47-.01,2.51-.28,3.14-.81.62-.53.94-1.3.94-2.32,0-1.18-.34-2.03-1.01-2.54-.68-.52-1.77-.78-3.27-.78h-3.29v6.44h-.01ZM187.61,430.91v6.67h4.4c1.21,0,2.14-.28,2.79-.83s.98-1.34.98-2.34c0-2.32-1.16-3.49-3.46-3.5h-4.71Z"/>
      <path class="st14" d="M231.08,429.39c0,2.72-.51,5.12-1.51,7.21s-2.44,3.7-4.29,4.83c-1.86,1.12-3.97,1.69-6.34,1.69s-4.48-.54-6.31-1.63-3.27-2.65-4.29-4.68c-1.02-2.03-1.56-4.36-1.62-6.98v-1.57c0-2.72.5-5.13,1.5-7.22s2.43-3.69,4.3-4.83c1.87-1.13,3.99-1.7,6.38-1.7s4.46.56,6.31,1.68c1.85,1.12,3.29,2.72,4.31,4.79s1.54,4.45,1.56,7.13v1.28h0ZM224.25,428.23c0-2.77-.46-4.87-1.39-6.3-.92-1.43-2.25-2.15-3.97-2.15-3.37,0-5.14,2.52-5.34,7.58l-.02,2.04c0,2.73.45,4.82,1.36,6.29s2.25,2.2,4.04,2.2,3-.72,3.92-2.16,1.38-3.51,1.4-6.22v-1.28h0Z"/>
      <path class="st14" d="M247.5,433.22h-11.49v-4.97h11.49v4.97Z"/>
      <path class="st14" d="M276.87,442.74h-6.71v-22.66h-10v22.66h-6.71v-27.84h23.43v27.84h-.01Z"/>
      <path class="st14" d="M289.12,433.29v9.45h-6.71v-27.84h11.11c2.13,0,4.01.39,5.65,1.18,1.64.79,2.91,1.9,3.81,3.35s1.35,3.09,1.35,4.93c0,2.71-.97,4.89-2.92,6.51-1.94,1.63-4.61,2.44-8,2.44h-4.28v-.02ZM289.12,428.11h4.4c1.3,0,2.29-.33,2.97-.98.68-.65,1.02-1.57,1.02-2.75,0-1.3-.35-2.34-1.05-3.12-.7-.78-1.66-1.18-2.87-1.19h-4.48v8.03h.01Z"/>
      <path class="st14" d="M332.85,429.39c0,2.72-.51,5.12-1.51,7.21s-2.44,3.7-4.29,4.83c-1.86,1.12-3.97,1.69-6.34,1.69s-4.48-.54-6.31-1.63-3.27-2.65-4.29-4.68c-1.02-2.03-1.56-4.36-1.62-6.98v-1.57c0-2.72.5-5.13,1.5-7.22s2.43-3.69,4.3-4.83c1.87-1.13,3.99-1.7,6.38-1.7s4.46.56,6.31,1.68,3.29,2.72,4.31,4.79,1.54,4.45,1.56,7.13v1.28h0ZM326.02,428.23c0-2.77-.46-4.87-1.39-6.3-.92-1.43-2.25-2.15-3.97-2.15-3.37,0-5.14,2.52-5.34,7.58l-.02,2.04c0,2.73.45,4.82,1.36,6.29s2.25,2.2,4.04,2.2,3-.72,3.92-2.16,1.38-3.51,1.4-6.22v-1.28h0Z"/>
      <path class="st14" d="M346.49,414.9l6.21,19.37,6.2-19.37h8.84v27.84h-6.73v-6.5l.65-13.31-6.73,19.81h-4.44l-6.75-19.83.65,13.33v6.5h-6.71v-27.84h8.82,0Z"/>
      <path class="st14" d="M380.08,424.48h3.46c2.2,0,4.16.38,5.85,1.13s3,1.82,3.91,3.19,1.37,2.94,1.37,4.71c0,2.74-1.02,4.97-3.05,6.67-2.03,1.71-4.76,2.56-8.19,2.56h-10.08v-27.84h6.73v9.58h0ZM380.08,429.64v7.94h3.44c1.36,0,2.44-.38,3.24-1.15s1.2-1.75,1.2-2.96-.39-2.07-1.18-2.77-1.89-1.05-3.29-1.05h-3.41ZM403.39,442.74h-6.69v-27.84h6.69v27.84Z"/>
      <path class="st14" d="M415.46,414.9v22.68h6.92v-22.68h6.71v22.68h6.85v-22.68h6.67v27.84h-33.87v-27.84h6.72Z"/>
      <path class="st14" d="M471.48,414.9v27.84h-6.71v-22.66h-6.25l-.46,9.35c-.19,3.23-.64,5.8-1.34,7.72-.7,1.92-1.7,3.33-2.99,4.22-1.29.88-3.06,1.34-5.29,1.36h-1.8v-5.16l.94-.1c1.34-.19,2.31-1.01,2.91-2.46.6-1.44.99-3.88,1.16-7.31l.48-12.81h19.35,0Z"/>
      <path class="st14" d="M494.27,430.92h-10.56v6.66h12.47v5.16h-19.18v-27.84h19.22v5.18h-12.51v5.87h10.56v4.97Z"/>
      <path class="st14" d="M523.55,442.74h-6.67v-11.62h-9.89v11.62h-6.71v-27.84h6.71v11.05h9.89v-11.05h6.67v27.84Z"/>
      <path class="st14" d="M552.44,442.74h-6.67v-11.62h-9.89v11.62h-6.71v-27.84h6.71v11.05h9.89v-11.05h6.67v27.84Z"/>
      <path class="st14" d="M573.87,437.54h-9.2l-1.61,5.2h-7.17l10.21-27.84h6.31l10.29,27.84h-7.21l-1.62-5.2ZM566.28,432.36h5.99l-3-9.65-2.98,9.65h-.01Z"/>
      <path class="st14" d="M598.06,442.74v-9.77h-3.86l-4.7,9.77h-7.28l5.72-12.05c-2.49-1.62-3.73-4-3.73-7.14,0-2.75.9-4.88,2.72-6.39,1.81-1.51,4.42-2.27,7.82-2.27h10.06v27.84h-6.75ZM590.89,424.15c0,1.42.29,2.44.86,3.08s1.54.96,2.89.96h3.42v-8.12h-3.39c-1.34,0-2.3.35-2.89,1.04-.59.7-.89,1.71-.89,3.04h0Z"/>
      <path class="st14" d="M268.31,489.74h-6.71v-22.66h-10v22.66h-6.71v-27.84h23.43v27.84h-.01Z"/>
      <path class="st14" d="M289.66,484.54h-9.2l-1.61,5.2h-7.17l10.21-27.84h6.31l10.29,27.84h-7.21l-1.62-5.2ZM282.07,479.35h5.99l-3-9.65-2.98,9.65h0Z"/>
      <path class="st14" d="M325.28,461.9v27.84h-6.71v-22.66h-6.25l-.46,9.35c-.19,3.23-.64,5.8-1.34,7.72-.7,1.92-1.7,3.33-2.99,4.22-1.29.88-3.06,1.34-5.29,1.36h-1.8v-5.16l.94-.1c1.34-.19,2.31-1.01,2.91-2.46.6-1.44.99-3.88,1.16-7.31l.48-12.81h19.35,0Z"/>
      <path class="st14" d="M346.62,484.54h-9.2l-1.61,5.2h-7.17l10.21-27.84h6.31l10.29,27.84h-7.21l-1.62-5.2ZM339.02,479.35h5.99l-3-9.65-2.98,9.65h0Z"/>
      <path class="st14" d="M380.67,467.08h-8.36v22.66h-6.71v-22.66h-8.2v-5.18h23.27v5.18Z"/>
      <path class="st14" d="M400.68,484.54h-9.2l-1.61,5.2h-7.17l10.21-27.84h6.31l10.29,27.84h-7.21l-1.62-5.2ZM393.09,479.35h5.99l-3-9.65-2.98,9.65h0Z"/>
    </g>
    <rect class="st2" x="44.01" y="325.92" width="569.3" height="67.48"/>
  </g>
  <g>
    <path class="st3" d="M108.52,365.45c-.09,1.94-.61,3.65-1.57,5.13-.96,1.49-2.3,2.64-4.03,3.45-1.73.82-3.7,1.22-5.92,1.22-3.66,0-6.54-1.19-8.64-3.58-2.1-2.38-3.16-5.75-3.16-10.1v-1.38c0-2.73.48-5.12,1.42-7.16.95-2.05,2.32-3.63,4.1-4.74,1.78-1.12,3.85-1.67,6.2-1.67,3.38,0,6.09.89,8.15,2.67,2.05,1.78,3.22,4.23,3.5,7.35h-6.69c-.05-1.7-.48-2.91-1.28-3.65s-2.03-1.11-3.67-1.11-2.89.62-3.67,1.87c-.78,1.25-1.19,3.25-1.22,5.99v1.97c0,2.97.37,5.09,1.12,6.37.75,1.28,2.03,1.91,3.85,1.91,1.54,0,2.72-.36,3.54-1.09s1.25-1.88,1.3-3.46h6.67Z"/>
    <path class="st3" d="M128.56,369.68h-9.2l-1.61,5.2h-7.17l10.21-27.84h6.31l10.29,27.84h-7.21l-1.63-5.2ZM120.97,364.5h5.99l-3-9.66-2.98,9.66Z"/>
    <path class="st3" d="M163.76,374.88h-6.67v-11.63h-9.89v11.63h-6.71v-27.84h6.71v11.05h9.89v-11.05h6.67v27.84Z"/>
    <path class="st3" d="M178.91,363.87h-3.17v11.02h-6.71v-27.84h6.71v10.77h2.58l5.35-10.77h8.13l-7.65,12.85,8.61,14.99h-7.94l-5.91-11.02Z"/>
    <path class="st3" d="M217.32,352.22h-8.36v22.66h-6.71v-22.66h-8.2v-5.18h23.27v5.18Z"/>
    <path class="st3" d="M233.5,365.36h-11.49v-4.97h11.49v4.97Z"/>
    <path class="st3" d="M263.27,374.88h-6.71v-22.66h-10v22.66h-6.71v-27.84h23.43v27.84Z"/>
    <path class="st3" d="M285.76,363.06h-10.56v6.66h12.47v5.16h-19.18v-27.84h19.22v5.18h-12.51v5.87h10.56v4.97Z"/>
    <path class="st3" d="M313.32,352.22h-8.36v22.66h-6.71v-22.66h-8.2v-5.18h23.27v5.18Z"/>
    <path class="st3" d="M334.48,363.06h-10.56v6.66h12.47v5.16h-19.18v-27.84h19.22v5.18h-12.51v5.87h10.56v4.97Z"/>
    <path class="st3" d="M346.9,365.44v9.45h-6.71v-27.84h11.11c2.13,0,4.01.39,5.65,1.18,1.64.78,2.91,1.9,3.81,3.35.9,1.45,1.35,3.09,1.35,4.92,0,2.72-.97,4.89-2.92,6.51-1.94,1.63-4.61,2.44-8,2.44h-4.28ZM346.9,360.25h4.4c1.3,0,2.29-.33,2.97-.98s1.02-1.57,1.02-2.75c0-1.3-.35-2.34-1.05-3.12-.7-.78-1.66-1.17-2.87-1.19h-4.47v8.03Z"/>
    <path class="st3" d="M385.55,352.2h-12.07v4.42h3.46c2.21,0,4.16.38,5.85,1.13,1.7.75,3,1.81,3.91,3.18.91,1.37,1.37,2.94,1.37,4.71,0,2.74-1.02,4.97-3.05,6.67-2.03,1.71-4.76,2.56-8.19,2.56h-10.1v-27.84h18.82v5.16ZM373.49,361.78v7.94h3.44c1.36,0,2.44-.38,3.24-1.15.8-.77,1.2-1.75,1.2-2.96,0-1.15-.4-2.07-1.19-2.77-.79-.7-1.89-1.05-3.29-1.05h-3.4Z"/>
    <path class="st3" d="M403.06,359.12v.02l4.61-12.11h7.08l-9.37,22.09c-1.01,2.23-2.14,3.8-3.39,4.71-1.26.91-2.72,1.39-4.41,1.44h-1.36l-1.03-.04-.11-5.2c.15.05.6.08,1.34.08,1.02,0,1.79-.18,2.3-.53.52-.35.93-1.03,1.25-2.04l.33-.92-10.06-19.6h7.13l5.7,12.09Z"/>
    <path class="st3" d="M424.79,365.44v9.45h-6.71v-27.84h11.11c2.13,0,4.01.39,5.65,1.18,1.64.78,2.91,1.9,3.81,3.35.9,1.45,1.35,3.09,1.35,4.92,0,2.72-.97,4.89-2.92,6.51-1.94,1.63-4.61,2.44-8,2.44h-4.28ZM424.79,360.25h4.4c1.3,0,2.29-.33,2.97-.98s1.02-1.57,1.02-2.75c0-1.3-.35-2.34-1.05-3.12-.7-.78-1.66-1.17-2.87-1.19h-4.47v8.03Z"/>
    <path class="st3" d="M463.41,352.22h-12.11v22.66h-6.71v-27.84h18.82v5.18Z"/>
    <path class="st3" d="M490.74,365.45c-.09,1.94-.61,3.65-1.57,5.13s-2.3,2.64-4.03,3.45c-1.73.82-3.7,1.22-5.92,1.22-3.66,0-6.54-1.19-8.64-3.58-2.1-2.38-3.16-5.75-3.16-10.1v-1.38c0-2.73.47-5.12,1.42-7.16.95-2.05,2.32-3.63,4.1-4.74,1.78-1.12,3.85-1.67,6.2-1.67,3.38,0,6.09.89,8.15,2.67,2.05,1.78,3.22,4.23,3.5,7.35h-6.69c-.05-1.7-.48-2.91-1.28-3.65-.8-.74-2.03-1.11-3.67-1.11s-2.89.62-3.67,1.87c-.78,1.25-1.19,3.25-1.22,5.99v1.97c0,2.97.37,5.09,1.12,6.37.75,1.28,2.03,1.91,3.85,1.91,1.54,0,2.72-.36,3.54-1.09.82-.73,1.25-1.88,1.3-3.46h6.67Z"/>
    <path class="st3" d="M506.2,363.87h-3.17v11.02h-6.71v-27.84h6.71v10.77h2.58l5.36-10.77h8.13l-7.65,12.85,8.61,14.99h-7.94l-5.91-11.02Z"/>
    <path class="st3" d="M539.94,369.68h-9.2l-1.61,5.2h-7.17l10.21-27.84h6.31l10.29,27.84h-7.21l-1.63-5.2ZM532.35,364.5h5.99l-3-9.66-2.98,9.66Z"/>
    <path class="st3" d="M565.23,374.88v-9.77h-3.86l-4.7,9.77h-7.29l5.72-12.05c-2.49-1.62-3.73-4-3.73-7.13,0-2.75.91-4.89,2.72-6.4,1.81-1.51,4.42-2.27,7.82-2.27h10.06v27.84h-6.73ZM558.06,356.28c0,1.42.29,2.45.86,3.09.57.64,1.54.96,2.89.96h3.42v-8.13h-3.38c-1.34,0-2.3.35-2.9,1.04s-.89,1.71-.89,3.04Z"/>
  </g>
  <path class="st20" d="M317.73,314.72s.18,5.16,5.14,5.23c4.96.07,5.3-5.23,5.3-5.23l1.03-43.17c-3.33-2.31-7.16-4.61-11.17-7-.5-.3-1-.61-1.5-.9l1.2,51.07Z"/>
</svg>